<?xml version="1.0" encoding="UTF-8" standalone="no"?>
<!DOCTYPE svg PUBLIC "-//W3C//DTD SVG 1.1//EN" "http://www.w3.org/Graphics/SVG/1.1/DTD/svg11.dtd">
<svg width="100%" height="100%" viewBox="0 0 120 120" version="1.1" xmlns="http://www.w3.org/2000/svg" xmlns:xlink="http://www.w3.org/1999/xlink" xml:space="preserve" xmlns:serif="http://www.serif.com/" style="fill-rule:evenodd;clip-rule:evenodd;stroke-linejoin:round;stroke-miterlimit:1.41421;">
    <g transform="matrix(1,0,0,1,-0.881793,0)">
        <g id="logo-emblem" transform="matrix(1,0,0,1,0.881793,0)">
            <rect x="0" y="0" width="120" height="120" style="fill:none;"/>
            <clipPath id="_clip1">
                <rect x="0" y="0" width="120" height="120"/>
            </clipPath>
            <g clip-path="url(#_clip1)">
                <g transform="matrix(3.3286,0,0,3.3286,-199.69,-188.032)">
                    <circle cx="78.018" cy="74.515" r="18.026" style="fill:white;"/>
                    <path d="M78.134,56.49L78.251,56.491L78.367,56.493L78.483,56.496L78.598,56.499L78.714,56.503L78.83,56.508L78.945,56.513L79.06,56.519L79.175,56.526L79.289,56.534L79.404,56.542L79.518,56.551L79.632,56.561L79.746,56.572L79.86,56.583L79.973,56.595L80.086,56.607L80.199,56.621L80.312,56.635L80.425,56.649L80.537,56.665L80.649,56.681L80.761,56.698L80.873,56.715L80.985,56.733L81.096,56.752L81.207,56.772L81.318,56.792L81.428,56.813L81.539,56.834L81.649,56.856L81.758,56.879L81.868,56.903L81.977,56.927L82.087,56.952L82.195,56.977L82.304,57.003L82.412,57.03L82.52,57.058L82.628,57.086L82.736,57.115L82.843,57.144L82.95,57.174L83.057,57.205L83.163,57.236L83.27,57.268L83.376,57.301L83.481,57.334L83.587,57.368L83.692,57.402L83.797,57.438L83.901,57.473L84.005,57.51L84.109,57.547L84.213,57.584L84.316,57.623L84.419,57.661L84.522,57.701L84.625,57.741L84.727,57.782L84.829,57.823L84.93,57.865L85.031,57.907L85.132,57.95L85.233,57.994L85.333,58.038L85.433,58.083L85.533,58.129L85.632,58.175L85.731,58.221L85.83,58.268L85.928,58.316L86.026,58.365L86.124,58.414L86.221,58.463L86.318,58.513L86.415,58.564L86.511,58.615L86.607,58.667L86.702,58.719L86.798,58.772L86.893,58.825L86.987,58.879L87.081,58.934L87.175,58.989L87.269,59.045L87.362,59.101L87.454,59.158L87.547,59.215L87.639,59.273L87.73,59.331L87.822,59.39L87.913,59.45L88.003,59.51L88.093,59.57L88.183,59.631L88.272,59.693L88.361,59.755L88.45,59.817L88.538,59.88L88.626,59.944L88.713,60.008L88.8,60.073L88.886,60.138L88.973,60.204L89.058,60.27L89.144,60.336L89.229,60.404L89.313,60.471L89.397,60.539L89.481,60.608L89.564,60.677L89.647,60.747L89.729,60.817L89.811,60.888L89.893,60.959L89.974,61.03L90.055,61.102L90.135,61.175L90.215,61.248L90.294,61.321L90.373,61.395L90.452,61.47L90.53,61.545L90.607,61.62L90.685,61.696L90.761,61.772L90.838,61.849L90.913,61.926L90.989,62.003L91.063,62.081L91.138,62.16L91.212,62.239L91.285,62.318L91.358,62.398L91.431,62.478L91.503,62.559L91.574,62.64L91.646,62.722L91.716,62.804L91.786,62.886L91.856,62.969L91.925,63.052L91.994,63.136L92.062,63.22L92.13,63.305L92.197,63.389L92.263,63.475L92.33,63.561L92.395,63.647L92.46,63.733L92.525,63.82L92.589,63.908L92.653,63.995L92.716,64.084L92.778,64.172L92.841,64.261L92.902,64.35L92.963,64.44L93.024,64.53L93.084,64.621L93.143,64.712L93.202,64.803L93.26,64.894L93.318,64.986L93.375,65.079L93.432,65.171L93.488,65.265L93.544,65.358L93.599,65.452L93.654,65.546L93.708,65.641L93.761,65.735L93.814,65.831L93.866,65.926L93.918,66.022L93.969,66.119L94.02,66.215L94.07,66.312L94.12,66.409L94.169,66.507L94.217,66.605L94.265,66.703L94.312,66.802L94.358,66.901L94.405,67L94.45,67.1L94.495,67.2L94.539,67.3L94.583,67.401L94.626,67.502L94.668,67.603L94.71,67.705L94.752,67.806L94.792,67.909L94.832,68.011L94.872,68.114L94.911,68.217L94.949,68.32L94.986,68.424L95.023,68.528L95.06,68.632L95.096,68.737L95.131,68.841L95.165,68.947L95.199,69.052L95.232,69.158L95.265,69.264L95.297,69.37L95.328,69.476L95.359,69.583L95.389,69.69L95.419,69.797L95.447,69.905L95.475,70.013L95.503,70.121L95.53,70.229L95.556,70.338L95.581,70.447L95.606,70.556L95.63,70.665L95.654,70.775L95.677,70.885L95.699,70.995L95.721,71.105L95.741,71.216L95.762,71.326L95.781,71.437L95.8,71.549L95.818,71.66L95.835,71.772L95.852,71.884L95.868,71.996L95.884,72.108L95.898,72.221L95.912,72.334L95.926,72.447L95.938,72.56L95.95,72.673L95.961,72.787L95.972,72.901L95.982,73.015L95.991,73.129L95.999,73.244L96.007,73.358L96.014,73.473L96.02,73.588L96.025,73.704L96.03,73.819L96.034,73.935L96.037,74.05L96.04,74.166L96.042,74.283L96.043,74.399L96.043,74.515L96.043,74.632L96.042,74.748L96.04,74.864L96.037,74.98L96.034,75.096L96.03,75.212L96.025,75.327L96.02,75.442L96.014,75.557L96.007,75.672L95.999,75.787L95.991,75.901L95.982,76.016L95.972,76.13L95.961,76.244L95.95,76.357L95.938,76.471L95.926,76.584L95.912,76.697L95.898,76.81L95.884,76.922L95.868,77.035L95.852,77.147L95.835,77.259L95.818,77.371L95.8,77.482L95.781,77.593L95.762,77.704L95.741,77.815L95.721,77.926L95.699,78.036L95.677,78.146L95.654,78.256L95.63,78.366L95.606,78.475L95.581,78.584L95.556,78.693L95.53,78.802L95.503,78.91L95.475,79.018L95.447,79.126L95.419,79.233L95.389,79.341L95.359,79.448L95.328,79.555L95.297,79.661L95.265,79.767L95.232,79.873L95.199,79.979L95.165,80.084L95.131,80.189L95.096,80.294L95.06,80.399L95.023,80.503L94.986,80.607L94.949,80.711L94.911,80.814L94.872,80.917L94.832,81.02L94.792,81.122L94.752,81.224L94.71,81.326L94.668,81.428L94.626,81.529L94.583,81.63L94.539,81.73L94.495,81.831L94.45,81.931L94.405,82.03L94.358,82.13L94.312,82.229L94.265,82.327L94.217,82.426L94.169,82.524L94.12,82.621L94.07,82.719L94.02,82.816L93.969,82.912L93.918,83.009L93.866,83.105L93.814,83.2L93.761,83.295L93.708,83.39L93.654,83.485L93.599,83.579L93.544,83.673L93.488,83.766L93.432,83.859L93.375,83.952L93.318,84.044L93.26,84.136L93.202,84.228L93.143,84.319L93.084,84.41L93.024,84.501L92.963,84.591L92.902,84.68L92.841,84.77L92.778,84.859L92.716,84.947L92.653,85.035L92.589,85.123L92.525,85.211L92.46,85.298L92.395,85.384L92.33,85.47L92.263,85.556L92.197,85.641L92.13,85.726L92.062,85.811L91.994,85.895L91.925,85.979L91.856,86.062L91.786,86.145L91.716,86.227L91.646,86.309L91.574,86.391L91.503,86.472L91.431,86.552L91.358,86.633L91.285,86.713L91.212,86.792L91.138,86.871L91.063,86.949L90.989,87.027L90.913,87.105L90.838,87.182L90.761,87.259L90.685,87.335L90.607,87.411L90.53,87.486L90.452,87.561L90.373,87.636L90.294,87.709L90.215,87.783L90.135,87.856L90.055,87.928L89.974,88L89.893,88.072L89.811,88.143L89.729,88.214L89.647,88.284L89.564,88.354L89.481,88.423L89.397,88.491L89.313,88.559L89.229,88.627L89.144,88.694L89.058,88.761L88.973,88.827L88.886,88.893L88.8,88.958L88.713,89.023L88.626,89.087L88.538,89.15L88.45,89.213L88.361,89.276L88.272,89.338L88.183,89.4L88.093,89.461L88.003,89.521L87.913,89.581L87.822,89.641L87.73,89.7L87.639,89.758L87.547,89.816L87.454,89.873L87.362,89.93L87.269,89.986L87.175,90.042L87.081,90.097L86.987,90.151L86.893,90.205L86.798,90.259L86.702,90.312L86.607,90.364L86.511,90.416L86.415,90.467L86.318,90.518L86.221,90.568L86.124,90.617L86.026,90.666L85.928,90.715L85.83,90.762L85.731,90.81L85.632,90.856L85.533,90.902L85.433,90.948L85.333,90.992L85.233,91.037L85.132,91.08L85.031,91.123L84.93,91.166L84.829,91.208L84.727,91.249L84.625,91.29L84.522,91.33L84.419,91.369L84.316,91.408L84.213,91.446L84.109,91.484L84.005,91.521L83.901,91.557L83.797,91.593L83.692,91.628L83.587,91.663L83.481,91.697L83.376,91.73L83.27,91.763L83.163,91.795L83.057,91.826L82.95,91.857L82.843,91.887L82.736,91.916L82.628,91.945L82.52,91.973L82.412,92.001L82.304,92.027L82.195,92.054L82.087,92.079L81.977,92.104L81.868,92.128L81.758,92.152L81.649,92.174L81.539,92.197L81.428,92.218L81.318,92.239L81.207,92.259L81.096,92.279L80.985,92.298L80.873,92.316L80.761,92.333L80.649,92.35L80.537,92.366L80.425,92.381L80.312,92.396L80.199,92.41L80.086,92.423L79.973,92.436L79.86,92.448L79.746,92.459L79.632,92.47L79.518,92.479L79.404,92.488L79.289,92.497L79.175,92.504L79.06,92.511L78.945,92.517L78.83,92.523L78.714,92.528L78.598,92.532L78.483,92.535L78.367,92.538L78.251,92.539L78.134,92.541L78.018,92.541L77.901,92.541L77.785,92.539L77.669,92.538L77.553,92.535L77.437,92.532L77.321,92.528L77.206,92.523L77.091,92.517L76.976,92.511L76.861,92.504L76.746,92.497L76.632,92.488L76.517,92.479L76.403,92.47L76.29,92.459L76.176,92.448L76.062,92.436L75.949,92.423L75.836,92.41L75.723,92.396L75.611,92.381L75.498,92.366L75.386,92.35L75.274,92.333L75.162,92.316L75.051,92.298L74.94,92.279L74.829,92.259L74.718,92.239L74.607,92.218L74.497,92.197L74.387,92.174L74.277,92.152L74.167,92.128L74.058,92.104L73.949,92.079L73.84,92.054L73.732,92.027L73.623,92.001L73.515,91.973L73.407,91.945L73.3,91.916L73.192,91.887L73.085,91.857L72.979,91.826L72.872,91.795L72.766,91.763L72.66,91.73L72.554,91.697L72.449,91.663L72.344,91.628L72.239,91.593L72.134,91.557L72.03,91.521L71.926,91.484L71.823,91.446L71.719,91.408L71.616,91.369L71.513,91.33L71.411,91.29L71.309,91.249L71.207,91.208L71.105,91.166L71.004,91.123L70.903,91.08L70.803,91.037L70.702,90.992L70.602,90.948L70.503,90.902L70.403,90.856L70.304,90.81L70.206,90.762L70.107,90.715L70.01,90.666L69.912,90.617L69.815,90.568L69.718,90.518L69.621,90.467L69.525,90.416L69.429,90.364L69.333,90.312L69.238,90.259L69.143,90.205L69.048,90.151L68.954,90.097L68.86,90.042L68.767,89.986L68.674,89.93L68.581,89.873L68.489,89.816L68.397,89.758L68.305,89.7L68.214,89.641L68.123,89.581L68.033,89.521L67.942,89.461L67.853,89.4L67.763,89.338L67.674,89.276L67.586,89.213L67.498,89.15L67.41,89.087L67.323,89.023L67.236,88.958L67.149,88.893L67.063,88.827L66.977,88.761L66.892,88.694L66.807,88.627L66.722,88.559L66.638,88.491L66.555,88.423L66.471,88.354L66.388,88.284L66.306,88.214L66.224,88.143L66.143,88.072L66.061,88L65.981,87.928L65.9,87.856L65.821,87.783L65.741,87.709L65.662,87.636L65.584,87.561L65.506,87.486L65.428,87.411L65.351,87.335L65.274,87.259L65.198,87.182L65.122,87.105L65.047,87.027L64.972,86.949L64.898,86.871L64.824,86.792L64.75,86.713L64.677,86.633L64.605,86.552L64.533,86.472L64.461,86.391L64.39,86.309L64.319,86.227L64.249,86.145L64.18,86.062L64.11,85.979L64.042,85.895L63.974,85.811L63.906,85.726L63.839,85.641L63.772,85.556L63.706,85.47L63.64,85.384L63.575,85.298L63.511,85.211L63.446,85.123L63.383,85.035L63.32,84.947L63.257,84.859L63.195,84.77L63.133,84.68L63.072,84.591L63.012,84.501L62.952,84.41L62.893,84.319L62.834,84.228L62.775,84.136L62.717,84.044L62.66,83.952L62.603,83.859L62.547,83.766L62.491,83.673L62.436,83.579L62.382,83.485L62.328,83.39L62.274,83.295L62.221,83.2L62.169,83.105L62.117,83.009L62.066,82.912L62.015,82.816L61.965,82.719L61.916,82.621L61.867,82.524L61.819,82.426L61.771,82.327L61.724,82.229L61.677,82.13L61.631,82.03L61.586,81.931L61.541,81.831L61.496,81.73L61.453,81.63L61.41,81.529L61.367,81.428L61.325,81.326L61.284,81.224L61.243,81.122L61.203,81.02L61.164,80.917L61.125,80.814L61.087,80.711L61.049,80.607L61.012,80.503L60.976,80.399L60.94,80.294L60.905,80.189L60.87,80.084L60.836,79.979L60.803,79.873L60.771,79.767L60.739,79.661L60.707,79.555L60.676,79.448L60.646,79.341L60.617,79.233L60.588,79.126L60.56,79.018L60.533,78.91L60.506,78.802L60.48,78.693L60.454,78.584L60.429,78.475L60.405,78.366L60.382,78.256L60.359,78.146L60.336,78.036L60.315,77.926L60.294,77.815L60.274,77.704L60.254,77.593L60.236,77.482L60.217,77.371L60.2,77.259L60.183,77.147L60.167,77.035L60.152,76.922L60.137,76.81L60.123,76.697L60.11,76.584L60.097,76.471L60.085,76.357L60.074,76.244L60.064,76.13L60.054,76.016L60.045,75.901L60.036,75.787L60.029,75.672L60.022,75.557L60.016,75.442L60.01,75.327L60.005,75.212L60.001,75.096L59.998,74.98L59.995,74.864L59.994,74.748L59.993,74.632L59.992,74.515L59.993,74.399L59.994,74.283L59.995,74.166L59.998,74.05L60.001,73.935L60.005,73.819L60.01,73.704L60.016,73.588L60.022,73.473L60.029,73.358L60.036,73.244L60.045,73.129L60.054,73.015L60.064,72.901L60.074,72.787L60.085,72.673L60.097,72.56L60.11,72.447L60.123,72.334L60.137,72.221L60.152,72.108L60.167,71.996L60.183,71.884L60.2,71.772L60.217,71.66L60.236,71.549L60.254,71.437L60.274,71.326L60.294,71.216L60.315,71.105L60.336,70.995L60.359,70.885L60.382,70.775L60.405,70.665L60.429,70.556L60.454,70.447L60.48,70.338L60.506,70.229L60.533,70.121L60.56,70.013L60.588,69.905L60.617,69.797L60.646,69.69L60.676,69.583L60.707,69.476L60.739,69.37L60.771,69.264L60.803,69.158L60.836,69.052L60.87,68.947L60.905,68.841L60.94,68.737L60.976,68.632L61.012,68.528L61.049,68.424L61.087,68.32L61.125,68.217L61.164,68.114L61.203,68.011L61.243,67.909L61.284,67.806L61.325,67.705L61.367,67.603L61.41,67.502L61.453,67.401L61.496,67.3L61.541,67.2L61.586,67.1L61.631,67L61.677,66.901L61.724,66.802L61.771,66.703L61.819,66.605L61.867,66.507L61.916,66.409L61.965,66.312L62.015,66.215L62.066,66.119L62.117,66.022L62.169,65.926L62.221,65.831L62.274,65.735L62.328,65.641L62.382,65.546L62.436,65.452L62.491,65.358L62.547,65.265L62.603,65.171L62.66,65.079L62.717,64.986L62.775,64.894L62.834,64.803L62.893,64.712L62.952,64.621L63.012,64.53L63.072,64.44L63.133,64.35L63.195,64.261L63.257,64.172L63.32,64.084L63.383,63.995L63.446,63.908L63.511,63.82L63.575,63.733L63.64,63.647L63.706,63.561L63.772,63.475L63.839,63.389L63.906,63.305L63.974,63.22L64.042,63.136L64.11,63.052L64.18,62.969L64.249,62.886L64.319,62.804L64.39,62.722L64.461,62.64L64.533,62.559L64.605,62.478L64.677,62.398L64.75,62.318L64.824,62.239L64.898,62.16L64.972,62.081L65.047,62.003L65.122,61.926L65.198,61.849L65.274,61.772L65.351,61.696L65.428,61.62L65.506,61.545L65.584,61.47L65.662,61.395L65.741,61.321L65.821,61.248L65.9,61.175L65.981,61.102L66.061,61.03L66.143,60.959L66.224,60.888L66.306,60.817L66.388,60.747L66.471,60.677L66.555,60.608L66.638,60.539L66.722,60.471L66.807,60.404L66.892,60.336L66.977,60.27L67.063,60.204L67.149,60.138L67.236,60.073L67.323,60.008L67.41,59.944L67.498,59.88L67.586,59.817L67.674,59.755L67.763,59.693L67.853,59.631L67.942,59.57L68.033,59.51L68.123,59.45L68.214,59.39L68.305,59.331L68.397,59.273L68.489,59.215L68.581,59.158L68.674,59.101L68.767,59.045L68.86,58.989L68.954,58.934L69.048,58.879L69.143,58.825L69.238,58.772L69.333,58.719L69.429,58.667L69.525,58.615L69.621,58.564L69.718,58.513L69.815,58.463L69.912,58.414L70.01,58.365L70.107,58.316L70.206,58.268L70.304,58.221L70.403,58.175L70.503,58.129L70.602,58.083L70.702,58.038L70.803,57.994L70.903,57.95L71.004,57.907L71.105,57.865L71.207,57.823L71.309,57.782L71.411,57.741L71.513,57.701L71.616,57.661L71.719,57.623L71.823,57.584L71.926,57.547L72.03,57.51L72.134,57.473L72.239,57.438L72.344,57.402L72.449,57.368L72.554,57.334L72.66,57.301L72.766,57.268L72.872,57.236L72.979,57.205L73.085,57.174L73.192,57.144L73.3,57.115L73.407,57.086L73.515,57.058L73.623,57.03L73.732,57.003L73.84,56.977L73.949,56.952L74.058,56.927L74.167,56.903L74.277,56.879L74.387,56.856L74.497,56.834L74.607,56.813L74.718,56.792L74.829,56.772L74.94,56.752L75.051,56.733L75.162,56.715L75.274,56.698L75.386,56.681L75.498,56.665L75.611,56.649L75.723,56.635L75.836,56.621L75.949,56.607L76.062,56.595L76.176,56.583L76.29,56.572L76.403,56.561L76.517,56.551L76.632,56.542L76.746,56.534L76.861,56.526L76.976,56.519L77.091,56.513L77.206,56.508L77.321,56.503L77.437,56.499L77.553,56.496L77.669,56.493L77.785,56.491L77.901,56.49L78.018,56.49L78.134,56.49ZM77.913,58.293L77.808,58.294L77.703,58.295L77.599,58.298L77.494,58.301L77.39,58.304L77.286,58.309L77.182,58.314L77.078,58.319L76.975,58.325L76.872,58.332L76.769,58.34L76.666,58.348L76.563,58.357L76.461,58.366L76.358,58.376L76.256,58.387L76.154,58.398L76.052,58.41L75.951,58.423L75.85,58.436L75.748,58.45L75.647,58.464L75.547,58.48L75.446,58.495L75.346,58.512L75.246,58.528L75.146,58.546L75.046,58.564L74.947,58.583L74.848,58.602L74.749,58.622L74.65,58.643L74.551,58.664L74.453,58.686L74.355,58.708L74.257,58.731L74.159,58.754L74.062,58.779L73.965,58.803L73.868,58.829L73.771,58.854L73.675,58.881L73.578,58.908L73.482,58.936L73.387,58.964L73.291,58.993L73.196,59.022L73.101,59.052L73.006,59.082L72.911,59.113L72.817,59.145L72.723,59.177L72.63,59.21L72.536,59.243L72.443,59.277L72.35,59.311L72.257,59.346L72.165,59.382L72.073,59.418L71.981,59.454L71.889,59.491L71.798,59.529L71.707,59.567L71.616,59.606L71.526,59.645L71.435,59.685L71.345,59.725L71.256,59.766L71.166,59.808L71.077,59.85L70.989,59.892L70.9,59.935L70.812,59.979L70.724,60.023L70.637,60.067L70.549,60.112L70.462,60.158L70.376,60.204L70.289,60.251L70.203,60.298L70.118,60.345L70.032,60.393L69.947,60.442L69.862,60.491L69.778,60.541L69.694,60.591L69.61,60.641L69.527,60.692L69.444,60.744L69.361,60.796L69.278,60.849L69.196,60.902L69.114,60.955L69.033,61.009L68.952,61.064L68.871,61.118L68.791,61.174L68.71,61.23L68.631,61.286L68.551,61.343L68.472,61.4L68.394,61.458L68.315,61.516L68.237,61.575L68.16,61.634L68.083,61.694L68.006,61.754L67.929,61.814L67.853,61.875L67.777,61.936L67.702,61.998L67.627,62.061L67.552,62.123L67.478,62.186L67.404,62.25L67.331,62.314L67.258,62.379L67.185,62.443L67.113,62.509L67.041,62.574L66.969,62.641L66.898,62.707L66.828,62.774L66.757,62.842L66.687,62.91L66.618,62.978L66.549,63.046L66.48,63.116L66.412,63.185L66.344,63.255L66.277,63.325L66.21,63.396L66.143,63.467L66.077,63.539L66.011,63.61L65.946,63.683L65.881,63.755L65.816,63.829L65.752,63.902L65.689,63.976L65.626,64.05L65.563,64.125L65.501,64.2L65.439,64.275L65.377,64.351L65.317,64.427L65.256,64.503L65.196,64.58L65.136,64.657L65.077,64.735L65.019,64.813L64.96,64.891L64.903,64.97L64.845,65.049L64.789,65.128L64.732,65.208L64.676,65.288L64.621,65.369L64.566,65.449L64.511,65.531L64.457,65.612L64.404,65.694L64.351,65.776L64.298,65.858L64.246,65.941L64.195,66.024L64.144,66.108L64.093,66.192L64.043,66.276L63.993,66.36L63.944,66.445L63.896,66.53L63.848,66.615L63.8,66.701L63.753,66.787L63.706,66.873L63.66,66.96L63.615,67.047L63.57,67.134L63.525,67.222L63.481,67.31L63.438,67.398L63.395,67.486L63.352,67.575L63.31,67.664L63.269,67.753L63.228,67.843L63.187,67.933L63.148,68.023L63.108,68.114L63.07,68.204L63.031,68.296L62.994,68.387L62.957,68.478L62.92,68.57L62.884,68.662L62.849,68.755L62.814,68.848L62.779,68.94L62.745,69.034L62.712,69.127L62.679,69.221L62.647,69.315L62.616,69.409L62.585,69.504L62.554,69.598L62.524,69.693L62.495,69.789L62.466,69.884L62.438,69.98L62.41,70.076L62.383,70.172L62.357,70.269L62.331,70.365L62.306,70.462L62.281,70.56L62.257,70.657L62.233,70.755L62.21,70.852L62.188,70.951L62.166,71.049L62.145,71.147L62.125,71.246L62.105,71.345L62.085,71.445L62.066,71.544L62.048,71.644L62.031,71.743L62.014,71.844L61.998,71.944L61.982,72.044L61.967,72.145L61.952,72.246L61.938,72.347L61.925,72.449L61.913,72.55L61.901,72.652L61.889,72.754L61.879,72.856L61.869,72.958L61.859,73.061L61.85,73.163L61.842,73.266L61.835,73.369L61.828,73.473L61.821,73.576L61.816,73.68L61.811,73.784L61.807,73.888L61.803,73.992L61.8,74.096L61.798,74.201L61.796,74.305L61.795,74.41L61.795,74.515L61.795,74.62L61.796,74.725L61.798,74.83L61.8,74.935L61.803,75.039L61.807,75.143L61.811,75.247L61.816,75.351L61.821,75.455L61.828,75.558L61.835,75.661L61.842,75.764L61.85,75.867L61.859,75.97L61.869,76.073L61.879,76.175L61.889,76.277L61.901,76.379L61.913,76.481L61.925,76.582L61.938,76.684L61.952,76.785L61.967,76.886L61.982,76.986L61.998,77.087L62.014,77.187L62.031,77.287L62.048,77.387L62.066,77.487L62.085,77.586L62.105,77.686L62.125,77.785L62.145,77.883L62.166,77.982L62.188,78.08L62.21,78.178L62.233,78.276L62.257,78.374L62.281,78.471L62.306,78.568L62.331,78.665L62.357,78.762L62.383,78.859L62.41,78.955L62.438,79.051L62.466,79.147L62.495,79.242L62.524,79.337L62.554,79.432L62.585,79.527L62.616,79.622L62.647,79.716L62.679,79.81L62.712,79.904L62.745,79.997L62.779,80.09L62.814,80.183L62.849,80.276L62.884,80.368L62.92,80.461L62.957,80.552L62.994,80.644L63.031,80.735L63.07,80.826L63.108,80.917L63.148,81.008L63.187,81.098L63.228,81.188L63.269,81.277L63.31,81.367L63.352,81.456L63.395,81.544L63.438,81.633L63.481,81.721L63.525,81.809L63.57,81.897L63.615,81.984L63.66,82.071L63.706,82.157L63.753,82.244L63.8,82.33L63.848,82.415L63.896,82.501L63.944,82.586L63.993,82.671L64.043,82.755L64.093,82.839L64.144,82.923L64.195,83.006L64.246,83.09L64.298,83.172L64.351,83.255L64.404,83.337L64.457,83.419L64.511,83.5L64.566,83.581L64.621,83.662L64.676,83.743L64.732,83.823L64.789,83.902L64.845,83.982L64.903,84.061L64.96,84.139L65.019,84.218L65.077,84.296L65.136,84.373L65.196,84.451L65.256,84.527L65.317,84.604L65.377,84.68L65.439,84.756L65.501,84.831L65.563,84.906L65.626,84.981L65.689,85.055L65.752,85.129L65.816,85.202L65.881,85.275L65.946,85.348L66.011,85.42L66.077,85.492L66.143,85.564L66.21,85.635L66.277,85.706L66.344,85.776L66.412,85.846L66.48,85.915L66.549,85.984L66.618,86.053L66.687,86.121L66.757,86.189L66.828,86.257L66.898,86.324L66.969,86.39L67.041,86.456L67.113,86.522L67.185,86.587L67.258,86.652L67.331,86.717L67.404,86.781L67.478,86.844L67.552,86.908L67.627,86.97L67.702,87.032L67.777,87.094L67.853,87.156L67.929,87.217L68.006,87.277L68.083,87.337L68.16,87.397L68.237,87.456L68.315,87.515L68.394,87.573L68.472,87.631L68.551,87.688L68.631,87.745L68.71,87.801L68.791,87.857L68.871,87.912L68.952,87.967L69.033,88.022L69.114,88.076L69.196,88.129L69.278,88.182L69.361,88.235L69.444,88.287L69.527,88.338L69.61,88.389L69.694,88.44L69.778,88.49L69.862,88.54L69.947,88.589L70.032,88.637L70.118,88.686L70.203,88.733L70.289,88.78L70.376,88.827L70.462,88.873L70.549,88.919L70.637,88.964L70.724,89.008L70.812,89.052L70.9,89.096L70.989,89.139L71.077,89.181L71.166,89.223L71.256,89.264L71.345,89.305L71.435,89.346L71.526,89.385L71.616,89.425L71.707,89.464L71.798,89.502L71.889,89.539L71.981,89.577L72.073,89.613L72.165,89.649L72.257,89.685L72.35,89.72L72.443,89.754L72.536,89.788L72.63,89.821L72.723,89.854L72.817,89.886L72.911,89.918L73.006,89.949L73.101,89.979L73.196,90.009L73.291,90.038L73.387,90.067L73.482,90.095L73.578,90.123L73.675,90.15L73.771,90.176L73.868,90.202L73.965,90.227L74.062,90.252L74.159,90.276L74.257,90.3L74.355,90.323L74.453,90.345L74.551,90.367L74.65,90.388L74.749,90.409L74.848,90.429L74.947,90.448L75.046,90.467L75.146,90.485L75.246,90.502L75.346,90.519L75.446,90.536L75.547,90.551L75.647,90.566L75.748,90.581L75.85,90.595L75.951,90.608L76.052,90.62L76.154,90.632L76.256,90.644L76.358,90.655L76.461,90.665L76.563,90.674L76.666,90.683L76.769,90.691L76.872,90.699L76.975,90.705L77.078,90.712L77.182,90.717L77.286,90.722L77.39,90.726L77.494,90.73L77.599,90.733L77.703,90.735L77.808,90.737L77.913,90.738L78.018,90.738L78.123,90.738L78.228,90.737L78.332,90.735L78.437,90.733L78.541,90.73L78.646,90.726L78.75,90.722L78.853,90.717L78.957,90.712L79.06,90.705L79.164,90.699L79.267,90.691L79.37,90.683L79.472,90.674L79.575,90.665L79.677,90.655L79.779,90.644L79.881,90.632L79.983,90.62L80.085,90.608L80.186,90.595L80.287,90.581L80.388,90.566L80.489,90.551L80.589,90.536L80.69,90.519L80.79,90.502L80.89,90.485L80.989,90.467L81.089,90.448L81.188,90.429L81.287,90.409L81.386,90.388L81.484,90.367L81.583,90.345L81.681,90.323L81.779,90.3L81.876,90.276L81.974,90.252L82.071,90.227L82.168,90.202L82.265,90.176L82.361,90.15L82.457,90.123L82.553,90.095L82.649,90.067L82.744,90.038L82.84,90.009L82.935,89.979L83.03,89.949L83.124,89.918L83.218,89.886L83.312,89.854L83.406,89.821L83.499,89.788L83.593,89.754L83.686,89.72L83.778,89.685L83.871,89.649L83.963,89.613L84.055,89.577L84.146,89.539L84.238,89.502L84.329,89.464L84.419,89.425L84.51,89.385L84.6,89.346L84.69,89.305L84.78,89.264L84.869,89.223L84.958,89.181L85.047,89.139L85.135,89.096L85.223,89.052L85.311,89.008L85.399,88.964L85.486,88.919L85.573,88.873L85.66,88.827L85.746,88.78L85.832,88.733L85.918,88.686L86.003,88.637L86.088,88.589L86.173,88.54L86.257,88.49L86.342,88.44L86.425,88.389L86.509,88.338L86.592,88.287L86.675,88.235L86.757,88.182L86.839,88.129L86.921,88.076L87.003,88.022L87.084,87.967L87.165,87.912L87.245,87.857L87.325,87.801L87.405,87.745L87.484,87.688L87.563,87.631L87.642,87.573L87.72,87.515L87.798,87.456L87.876,87.397L87.953,87.337L88.03,87.277L88.106,87.217L88.182,87.156L88.258,87.094L88.333,87.032L88.408,86.97L88.483,86.907L88.557,86.844L88.631,86.781L88.705,86.717L88.778,86.652L88.85,86.587L88.923,86.522L88.995,86.456L89.066,86.39L89.137,86.324L89.208,86.257L89.278,86.189L89.348,86.121L89.418,86.053L89.487,85.984L89.555,85.915L89.624,85.846L89.691,85.776L89.759,85.706L89.826,85.635L89.892,85.564L89.959,85.492L90.024,85.42L90.09,85.348L90.155,85.275L90.219,85.202L90.283,85.129L90.347,85.055L90.41,84.981L90.473,84.906L90.535,84.831L90.597,84.756L90.658,84.68L90.719,84.604L90.779,84.527L90.84,84.451L90.899,84.373L90.958,84.296L91.017,84.218L91.075,84.139L91.133,84.061L91.19,83.982L91.247,83.902L91.303,83.823L91.359,83.743L91.415,83.662L91.47,83.581L91.524,83.5L91.578,83.419L91.632,83.337L91.685,83.255L91.737,83.172L91.789,83.09L91.841,83.006L91.892,82.923L91.942,82.839L91.993,82.755L92.042,82.671L92.091,82.586L92.14,82.501L92.188,82.415L92.236,82.33L92.283,82.244L92.329,82.157L92.375,82.071L92.421,81.984L92.466,81.897L92.51,81.809L92.554,81.721L92.598,81.633L92.641,81.544L92.683,81.456L92.725,81.367L92.767,81.277L92.808,81.188L92.848,81.098L92.888,81.008L92.927,80.917L92.966,80.826L93.004,80.735L93.042,80.644L93.079,80.552L93.115,80.46L93.151,80.368L93.187,80.276L93.222,80.183L93.256,80.09L93.29,79.997L93.323,79.904L93.356,79.81L93.388,79.716L93.42,79.622L93.451,79.527L93.481,79.432L93.511,79.337L93.541,79.242L93.569,79.147L93.598,79.051L93.625,78.955L93.652,78.859L93.679,78.762L93.705,78.665L93.73,78.568L93.755,78.471L93.779,78.374L93.802,78.276L93.825,78.178L93.847,78.08L93.869,77.982L93.89,77.883L93.911,77.785L93.931,77.685L93.95,77.586L93.969,77.487L93.987,77.387L94.005,77.287L94.022,77.187L94.038,77.087L94.054,76.986L94.069,76.886L94.083,76.785L94.097,76.684L94.11,76.582L94.123,76.481L94.135,76.379L94.146,76.277L94.157,76.175L94.167,76.073L94.176,75.97L94.185,75.867L94.193,75.764L94.201,75.661L94.208,75.558L94.214,75.455L94.22,75.351L94.225,75.247L94.229,75.143L94.232,75.039L94.235,74.935L94.238,74.83L94.239,74.725L94.24,74.62L94.241,74.515L94.24,74.41L94.239,74.305L94.238,74.201L94.235,74.096L94.232,73.992L94.229,73.888L94.225,73.784L94.22,73.68L94.214,73.576L94.208,73.473L94.201,73.369L94.193,73.266L94.185,73.163L94.176,73.061L94.167,72.958L94.157,72.856L94.146,72.754L94.135,72.652L94.123,72.55L94.11,72.449L94.097,72.347L94.083,72.246L94.069,72.145L94.054,72.044L94.038,71.944L94.022,71.844L94.005,71.743L93.987,71.644L93.969,71.544L93.95,71.445L93.931,71.345L93.911,71.246L93.89,71.147L93.869,71.049L93.847,70.951L93.825,70.852L93.802,70.755L93.779,70.657L93.755,70.56L93.73,70.462L93.705,70.365L93.679,70.269L93.652,70.172L93.625,70.076L93.598,69.98L93.569,69.884L93.541,69.789L93.511,69.693L93.481,69.598L93.451,69.504L93.42,69.409L93.388,69.315L93.356,69.221L93.323,69.127L93.29,69.034L93.256,68.94L93.222,68.848L93.187,68.755L93.151,68.662L93.115,68.57L93.079,68.478L93.042,68.387L93.004,68.296L92.966,68.204L92.927,68.114L92.888,68.023L92.848,67.933L92.808,67.843L92.767,67.753L92.725,67.664L92.683,67.575L92.641,67.486L92.598,67.398L92.555,67.31L92.51,67.222L92.466,67.134L92.421,67.047L92.375,66.96L92.329,66.873L92.283,66.787L92.236,66.701L92.188,66.615L92.14,66.53L92.091,66.445L92.042,66.36L91.993,66.276L91.942,66.192L91.892,66.108L91.841,66.024L91.789,65.941L91.737,65.858L91.685,65.776L91.632,65.694L91.578,65.612L91.524,65.53L91.47,65.449L91.415,65.369L91.359,65.288L91.303,65.208L91.247,65.128L91.19,65.049L91.133,64.97L91.075,64.891L91.017,64.813L90.958,64.735L90.899,64.657L90.84,64.58L90.779,64.503L90.719,64.427L90.658,64.351L90.597,64.275L90.535,64.2L90.473,64.125L90.41,64.05L90.347,63.976L90.283,63.902L90.219,63.829L90.155,63.755L90.09,63.683L90.024,63.61L89.959,63.539L89.893,63.467L89.826,63.396L89.759,63.325L89.691,63.255L89.624,63.185L89.555,63.116L89.487,63.047L89.418,62.978L89.348,62.91L89.278,62.842L89.208,62.774L89.137,62.707L89.066,62.641L88.995,62.574L88.923,62.509L88.85,62.443L88.778,62.379L88.705,62.314L88.631,62.25L88.557,62.186L88.483,62.123L88.408,62.061L88.333,61.998L88.258,61.936L88.182,61.875L88.106,61.814L88.03,61.754L87.953,61.694L87.876,61.634L87.798,61.575L87.72,61.516L87.642,61.458L87.563,61.4L87.484,61.343L87.405,61.286L87.325,61.23L87.245,61.174L87.165,61.118L87.084,61.064L87.003,61.009L86.921,60.955L86.839,60.902L86.757,60.849L86.675,60.796L86.592,60.744L86.509,60.692L86.425,60.641L86.342,60.591L86.257,60.541L86.173,60.491L86.088,60.442L86.003,60.393L85.918,60.345L85.832,60.298L85.746,60.251L85.66,60.204L85.573,60.158L85.486,60.112L85.399,60.067L85.311,60.023L85.223,59.979L85.135,59.935L85.047,59.892L84.958,59.85L84.869,59.808L84.78,59.766L84.69,59.725L84.6,59.685L84.51,59.645L84.419,59.606L84.329,59.567L84.238,59.529L84.146,59.491L84.055,59.454L83.963,59.418L83.871,59.382L83.778,59.346L83.686,59.311L83.593,59.277L83.499,59.243L83.406,59.21L83.312,59.177L83.218,59.145L83.124,59.113L83.03,59.082L82.935,59.052L82.84,59.022L82.744,58.993L82.649,58.964L82.553,58.936L82.457,58.908L82.361,58.881L82.265,58.854L82.168,58.829L82.071,58.803L81.974,58.779L81.876,58.754L81.779,58.731L81.681,58.708L81.583,58.686L81.484,58.664L81.386,58.643L81.287,58.622L81.188,58.602L81.089,58.583L80.989,58.564L80.89,58.546L80.79,58.528L80.69,58.512L80.589,58.495L80.489,58.48L80.388,58.464L80.287,58.45L80.186,58.436L80.085,58.423L79.983,58.41L79.881,58.398L79.779,58.387L79.677,58.376L79.575,58.366L79.472,58.357L79.37,58.348L79.267,58.34L79.164,58.332L79.06,58.325L78.957,58.319L78.853,58.314L78.75,58.309L78.646,58.304L78.541,58.301L78.437,58.298L78.332,58.295L78.228,58.294L78.123,58.293L78.018,58.292L77.913,58.293Z" style="fill:rgb(233,234,240);"/>
                </g>
                <g id="logo-geometry" transform="matrix(1,0,0,1,9.99218,10)">
                    <path id="top-filler" d="M50.009,40.002L50.016,0L94.016,59.982L50.016,99.986L50.016,100L50.008,99.993L50,100L50,99.986L6,59.982L50,0L50.006,40.003L50.008,40L50.009,40.002Z" style="fill:rgb(155,162,199);"/>
                    <g id="right-top-leaf" transform="matrix(-1,0,0,1,100.016,0)">
                        <path d="M50,0L50.016,100L6,59.982L50,0Z" style="fill:rgb(130,139,185);"/>
                    </g>
                    <path id="left-top-leaf" d="M50,0L50.016,100L6,59.982L50,0Z" style="fill:rgb(155,162,199);"/>
                    <g id="mid-leaf" transform="matrix(0.484096,0,0,1,25.8033,0)">
                        <path d="M50,40L19.03,59.982L50,79.96L81.001,59.982L50,40Z" style="fill:rgb(180,185,213);"/>
                    </g>
                    <path id="bottom-filler" d="M50,100L94,60.007L82,20.014L50,79.96L18,20.014L6,59.982L50,100Z" style="fill:rgb(50,56,66);"/>
                    <g id="right-mid-leaf" transform="matrix(-1,0,0,1,100,0)">
                        <path d="M6,59.982L18,20.014L50,79.96L6,59.982Z" style="fill:rgb(63,70,84);"/>
                    </g>
                    <path id="left-mid-leaf" d="M6,59.982L18,20.014L50,79.96L6,59.982Z" style="fill:rgb(63,70,84);"/>
                    <path id="bottom-leaf" d="M94,59.982L50,100L6,60L50.001,80L94,59.982Z" style="fill:rgb(50,56,66);"/>
                </g>
            </g>
        </g>
    </g>
</svg>
