<?xml version="1.0" encoding="UTF-8" standalone="no"?>
<!DOCTYPE svg PUBLIC "-//W3C//DTD SVG 1.1//EN" "http://www.w3.org/Graphics/SVG/1.1/DTD/svg11.dtd">
<svg width="100%" height="100%" viewBox="0 0 996 500" version="1.1" xmlns="http://www.w3.org/2000/svg" xmlns:xlink="http://www.w3.org/1999/xlink" xml:space="preserve" xmlns:serif="http://www.serif.com/" style="fill-rule:evenodd;clip-rule:evenodd;stroke-miterlimit:3.864;">
    <g id="Artboard1" transform="matrix(1.992,0,0,1,0,0)">
        <rect x="0" y="0" width="500" height="500" style="fill:none;"/>
        <clipPath id="_clip1">
            <rect x="0" y="0" width="500" height="500"/>
        </clipPath>
        <g clip-path="url(#_clip1)">
            <g transform="matrix(2.56779,0,0,5.1286,0.278931,0.554478)">
                <g id="path325" transform="matrix(1.25,0,0,-1.25,-63.3069,168.819)">
                    <path d="M104.979,131.951C104.979,132.738 105.615,133.374 106.402,133.374C107.187,133.374 107.825,132.738 107.825,131.951C107.825,131.164 107.187,130.526 106.402,130.526C105.615,130.526 104.979,131.164 104.979,131.951ZM132.308,130.607L121.138,130.607C122.019,133.194 124.471,134.986 126.636,134.986C128.966,134.986 131.469,132.866 132.308,130.607ZM145.669,131.951C145.669,132.738 146.308,133.374 147.093,133.374C147.88,133.374 148.517,132.738 148.517,131.951C148.517,131.164 147.88,130.526 147.093,130.526C146.308,130.526 145.669,131.164 145.669,131.951ZM134.708,131.951C134.708,132.738 135.345,133.374 136.132,133.374C136.918,133.374 137.555,132.738 137.555,131.951C137.555,131.164 136.918,130.526 136.132,130.526C135.345,130.526 134.708,131.164 134.708,131.951ZM115.948,131.951C115.948,132.738 116.584,133.374 117.373,133.374C118.158,133.374 118.795,132.738 118.795,131.951C118.795,131.164 118.158,130.526 117.373,130.526C116.584,130.526 115.948,131.164 115.948,131.951ZM104.971,129.555L104.971,127.706L96.396,127.706L96.396,125.006L96.596,125.006C97.084,125.006 97.496,124.619 97.496,124.131L97.496,120.906C97.496,120.196 97.067,120.031 96.596,120.031L96.396,120.031L96.396,116.706L96.596,116.706C97.084,116.706 97.496,116.318 97.496,115.831L97.496,112.581C97.496,111.901 97.069,111.706 96.596,111.706L96.396,111.706L96.396,108.381L96.596,108.381C97.084,108.381 97.496,107.992 97.496,107.506L97.496,104.281C97.496,103.588 97.073,103.381 96.596,103.381L96.396,103.381L96.396,100.081L96.596,100.081C97.084,100.081 97.496,99.667 97.496,99.181L97.496,95.956C97.496,95.263 97.073,95.056 96.596,95.056L96.396,95.056L96.396,92.331L104.971,92.331L104.971,89.506L148.496,89.506L148.496,92.331L157.345,92.331L157.345,95.056L156.871,95.056C156.222,95.056 155.996,95.513 155.996,95.956L155.996,99.181C155.996,99.876 156.395,100.081 156.871,100.081L157.345,100.081L157.345,103.381L156.871,103.381C156.384,103.381 155.996,103.793 155.996,104.281L155.996,107.506C155.996,108.076 156.403,108.381 156.871,108.381L157.345,108.381L157.345,111.706L156.871,111.706C156.175,111.706 155.996,112.05 155.996,112.581L155.996,115.831C155.996,116.337 156.4,116.706 156.871,116.706L157.345,116.706L157.345,120.055L156.871,120.055C156.384,120.055 155.996,120.443 155.996,120.93L155.996,124.131C155.996,124.843 156.402,125.006 156.871,125.006L157.345,125.006L157.345,127.706L148.496,127.706L148.496,129.555L104.971,129.555ZM101.271,125.006L103.946,125.006C104.54,125.006 104.971,124.621 104.971,124.131L104.971,120.906C104.971,120.417 104.54,120.031 103.946,120.031L101.271,120.031C100.676,120.031 100.296,120.417 100.296,120.906L100.296,124.131C100.296,124.849 100.735,125.006 101.271,125.006ZM108.846,125.006L114.896,125.006C115.531,125.006 115.946,124.418 115.946,123.93L115.946,121.131C115.946,120.644 115.531,120.031 114.896,120.031L108.871,120.031C108.161,120.031 107.796,120.521 107.796,121.131L107.796,123.93C107.796,124.418 108.211,125.006 108.846,125.006ZM119.696,125.006L133.746,125.006C134.232,125.006 134.696,124.596 134.696,124.106L134.696,121.006C134.696,120.516 134.232,120.031 133.746,120.031L119.696,120.031C119.059,120.031 118.746,120.471 118.746,121.006L118.746,124.106C118.746,124.596 119.21,125.006 119.696,125.006ZM138.571,125.006L144.621,125.006C145.256,125.006 145.671,124.418 145.671,123.93L145.671,121.131C145.671,120.644 145.231,120.031 144.595,120.031L138.546,120.031C137.832,120.031 137.49,120.522 137.496,121.131L137.521,123.93C137.525,124.417 137.936,125.006 138.571,125.006ZM149.496,125.006L152.196,125.006C152.791,125.006 153.171,124.621 153.171,124.131L153.171,120.906C153.171,120.417 152.791,120.031 152.196,120.031L149.496,120.031C148.832,120.031 148.47,120.35 148.47,120.906L148.47,124.131C148.47,124.621 148.901,125.006 149.496,125.006ZM101.271,116.706L103.946,116.706C104.54,116.706 104.971,116.32 104.971,115.831L104.971,112.606C104.971,112.116 104.54,111.706 103.946,111.706L101.271,111.706C100.532,111.706 100.296,112.011 100.296,112.606L100.296,115.831C100.296,116.522 100.736,116.706 101.271,116.706ZM108.846,116.706L114.896,116.706C115.531,116.706 115.946,116.118 115.946,115.631L115.946,112.805C115.946,112.318 115.531,111.706 114.896,111.706L108.871,111.706C108.161,111.706 107.796,112.195 107.796,112.805L107.796,115.631C107.796,116.118 108.211,116.706 108.846,116.706ZM119.696,116.706L133.746,116.706C134.232,116.706 134.696,116.271 134.696,115.781L134.696,112.706C134.696,112.217 134.232,111.706 133.746,111.706L119.696,111.706C119.021,111.706 118.746,112.15 118.746,112.706L118.746,115.781C118.746,116.271 119.21,116.706 119.696,116.706ZM138.571,116.706L144.621,116.706C145.256,116.706 145.671,116.118 145.671,115.631L145.671,112.805C145.671,112.318 145.231,111.706 144.595,111.706L138.571,111.706C137.813,111.706 137.521,112.168 137.521,112.805L137.521,115.631C137.521,116.118 137.935,116.706 138.571,116.706ZM149.496,116.706L152.196,116.706C152.789,116.706 153.171,116.32 153.171,115.831L153.171,112.606C153.171,112.116 152.789,111.706 152.196,111.706L149.496,111.706C148.84,111.706 148.496,112.052 148.496,112.606L148.496,115.831C148.496,116.32 148.901,116.706 149.496,116.706ZM101.271,108.381L103.946,108.381C104.54,108.381 104.971,107.995 104.971,107.506L104.971,104.281C104.971,103.793 104.54,103.406 103.946,103.406L101.271,103.406C100.612,103.406 100.296,103.723 100.296,104.281L100.296,107.506C100.296,108.224 100.735,108.381 101.271,108.381ZM108.846,108.381L114.896,108.381C115.531,108.381 115.946,107.793 115.946,107.306L115.946,104.506C115.946,104.018 115.531,103.406 114.896,103.406L108.871,103.406C108.161,103.406 107.796,103.896 107.796,104.506L107.796,107.306C107.796,107.793 108.211,108.381 108.846,108.381ZM119.696,108.381L133.746,108.381C134.232,108.381 134.696,107.972 134.696,107.481L134.696,104.381C134.696,103.891 134.232,103.406 133.746,103.406L119.696,103.406C119.085,103.406 118.746,103.858 118.746,104.381L118.746,107.481C118.746,107.972 119.21,108.381 119.696,108.381ZM138.571,108.381L144.621,108.381C145.256,108.381 145.671,107.793 145.671,107.306L145.671,104.506C145.671,104.018 145.231,103.406 144.595,103.406L138.571,103.406C137.865,103.406 137.521,103.898 137.521,104.506L137.521,107.306C137.521,107.793 137.935,108.381 138.571,108.381ZM149.496,108.381L152.196,108.381C152.789,108.381 153.171,107.995 153.171,107.506L153.171,104.281C153.171,103.793 152.789,103.406 152.196,103.406L149.496,103.406C148.833,103.406 148.496,103.723 148.496,104.281L148.496,107.506C148.496,107.995 148.901,108.381 149.496,108.381ZM101.271,100.081L103.946,100.081C104.54,100.081 104.971,99.67 104.971,99.181L104.971,95.956C104.971,95.466 104.54,95.081 103.946,95.081L101.271,95.081C100.582,95.081 100.296,95.483 100.296,95.956L100.296,99.181C100.296,99.885 100.734,100.081 101.271,100.081ZM108.846,100.081L114.896,100.081C115.531,100.081 115.946,99.493 115.946,99.006L115.946,96.181C115.946,95.692 115.531,95.081 114.896,95.081L108.871,95.081C108.16,95.081 107.796,95.57 107.796,96.181L107.796,99.006C107.796,99.494 108.211,100.081 108.846,100.081ZM119.696,100.081L133.746,100.081C134.232,100.081 134.696,99.646 134.696,99.156L134.696,96.081C134.696,95.592 134.232,95.081 133.746,95.081L119.696,95.081C119.051,95.081 118.746,95.538 118.746,96.081L118.746,99.156C118.746,99.647 119.21,100.081 119.696,100.081ZM138.571,100.081L144.621,100.081C145.256,100.081 145.671,99.493 145.671,99.006L145.671,96.181C145.671,95.692 145.231,95.081 144.595,95.081L138.546,95.081C137.832,95.081 137.49,95.572 137.496,96.181L137.521,99.006C137.525,99.493 137.936,100.081 138.571,100.081ZM149.496,100.081L152.196,100.081C152.789,100.081 153.171,99.67 153.171,99.181L153.171,95.956C153.171,95.466 152.789,95.081 152.196,95.081L149.496,95.081C148.849,95.081 148.496,95.412 148.496,95.956L148.496,99.181C148.496,99.671 148.901,100.081 149.496,100.081ZM107.796,92.331L145.671,92.331L145.671,91.981C145.671,91.784 145.384,91.606 145.021,91.606L108.446,91.606C108.085,91.606 107.796,91.784 107.796,91.981L107.796,92.331Z" style="fill:rgb(29,29,27);fill-rule:nonzero;stroke:rgb(29,29,27);stroke-width:0.14px;"/>
                </g>
                <g id="path343" transform="matrix(1.25,0,0,-1.25,-63.3069,168.819)">
                    <path d="M103.718,57.966L103.484,58.459C103.431,58.564 103.315,58.628 103.159,58.551C102.939,58.446 102.447,58.303 102.095,58.303C100.811,58.303 99.864,59.328 99.864,61.768C99.864,64.144 100.668,65.156 102.122,65.156C102.524,65.156 102.822,65.052 103.121,64.909C103.277,64.832 103.406,64.883 103.471,65.014L103.678,65.416C103.756,65.558 103.704,65.714 103.575,65.792C103.121,66.066 102.589,66.13 102.082,66.13C100.098,66.13 98.722,64.521 98.722,61.783C98.722,58.927 99.929,57.304 102.004,57.304C102.797,57.304 103.264,57.486 103.602,57.654C103.704,57.706 103.782,57.824 103.718,57.966ZM111.875,57.628L111.875,65.805C111.875,65.961 111.746,66.066 111.602,66.066L111.109,66.066C110.966,66.066 110.837,65.961 110.837,65.805L110.837,62.443L107.554,62.443L107.554,65.805C107.554,65.961 107.424,66.066 107.281,66.066L106.788,66.066C106.646,66.066 106.516,65.961 106.516,65.805L106.516,57.628C106.516,57.486 106.646,57.37 106.788,57.37L107.281,57.37C107.424,57.37 107.554,57.486 107.554,57.628L107.554,61.51L110.837,61.51L110.837,57.628C110.837,57.486 110.966,57.37 111.109,57.37L111.602,57.37C111.746,57.37 111.875,57.486 111.875,57.628ZM119.941,57.628L119.941,58.096C119.941,58.252 119.812,58.37 119.656,58.37L116.398,58.37L116.398,61.495L119.253,61.495C119.409,61.495 119.526,61.612 119.526,61.783L119.526,62.184C119.526,62.327 119.409,62.443 119.253,62.443L116.398,62.443L116.398,65.092L119.565,65.092C119.734,65.092 119.838,65.221 119.838,65.377L119.838,65.805C119.838,65.961 119.708,66.066 119.565,66.066L115.621,66.066C115.478,66.066 115.347,65.961 115.347,65.805L115.347,57.628C115.347,57.486 115.478,57.37 115.621,57.37L119.669,57.37C119.812,57.37 119.941,57.486 119.941,57.628ZM130.032,57.591L129.383,65.819C129.37,65.987 129.253,66.066 129.097,66.066L128.124,66.066C127.994,66.066 127.877,65.974 127.851,65.857L126.437,60.459C126.32,60.029 126.281,59.472 126.243,58.991C126.19,59.472 126.152,60.043 126.048,60.446L124.633,65.857C124.607,65.961 124.504,66.066 124.374,66.066L123.375,66.066C123.22,66.066 123.09,65.961 123.076,65.819L122.414,57.628C122.401,57.486 122.493,57.37 122.622,57.37L123.271,57.37C123.4,57.37 123.478,57.459 123.491,57.603L123.867,63.638C123.894,63.962 123.894,64.975 123.894,65.391C123.971,64.949 124.023,64.209 124.179,63.638L125.568,58.524C125.62,58.343 125.685,58.265 125.84,58.265L126.606,58.265C126.762,58.265 126.826,58.343 126.878,58.524L128.266,63.638C128.409,64.17 128.487,65.026 128.539,65.391C128.539,64.949 128.565,63.935 128.578,63.625L128.915,57.591C128.928,57.459 129.006,57.37 129.162,57.37L129.85,57.37C129.992,57.37 130.044,57.459 130.032,57.591ZM138.719,57.616L138.719,65.819C138.719,65.961 138.591,66.066 138.448,66.066L137.992,66.066C137.85,66.066 137.721,65.961 137.721,65.819L137.746,59.913C137.746,59.356 137.837,58.653 137.876,58.136C137.721,58.576 137.578,59.161 137.318,59.744L134.619,65.883C134.567,66 134.463,66.066 134.321,66.066L133.335,66.066C133.179,66.066 133.062,65.987 133.062,65.819L133.062,57.616C133.062,57.486 133.193,57.37 133.335,57.37L133.788,57.37C133.932,57.37 134.062,57.486 134.062,57.616L134.035,63.625C134.035,64.04 133.945,64.883 133.905,65.416C134.062,64.858 134.23,64.26 134.477,63.716L137.227,57.577C137.293,57.447 137.41,57.37 137.539,57.37L138.448,57.37C138.591,57.37 138.719,57.486 138.719,57.616ZM144.126,57.642L144.126,57.927C144.126,58.07 144.021,58.2 143.865,58.2L143.217,58.2L143.217,65.233L143.865,65.233C144.021,65.233 144.126,65.363 144.126,65.507L144.126,65.792C144.126,65.935 144.021,66.066 143.865,66.066L141.53,66.066C141.374,66.066 141.271,65.935 141.271,65.792L141.271,65.507C141.271,65.363 141.374,65.233 141.53,65.233L142.18,65.233L142.18,58.2L141.53,58.2C141.374,58.2 141.271,58.07 141.271,57.927L141.271,57.642C141.271,57.499 141.374,57.37 141.53,57.37L143.865,57.37C144.021,57.37 144.126,57.499 144.126,57.642ZM151.262,65.377L151.262,65.805C151.262,65.961 151.143,66.066 151.002,66.066L146.006,66.066C145.85,66.066 145.721,65.961 145.721,65.805L145.721,65.377C145.721,65.221 145.85,65.117 146.006,65.117L147.977,65.117L147.977,57.628C147.977,57.486 148.108,57.37 148.25,57.37L148.756,57.37C148.899,57.37 149.029,57.486 149.029,57.628L149.029,65.117L151.002,65.117C151.143,65.117 151.262,65.221 151.262,65.377ZM158.016,57.628L158.016,58.083C158.016,58.225 157.9,58.343 157.756,58.343L154.422,58.343C154.162,58.343 153.902,58.291 153.748,58.265C153.902,58.381 154.085,58.576 154.227,58.836L157.73,64.909C157.808,65.039 157.873,65.195 157.873,65.338L157.873,65.805C157.873,65.961 157.756,66.066 157.614,66.066L153.229,66.066C153.073,66.066 152.943,65.961 152.943,65.805L152.943,65.377C152.943,65.233 153.073,65.117 153.229,65.117L156.212,65.117C156.51,65.117 156.77,65.144 156.966,65.195C156.81,65.065 156.616,64.871 156.485,64.65L152.943,58.524C152.89,58.433 152.826,58.303 152.826,58.161L152.826,57.628C152.826,57.486 152.943,57.37 153.085,57.37L157.756,57.37C157.9,57.37 158.016,57.486 158.016,57.628Z" style="fill:rgb(29,29,27);fill-rule:nonzero;stroke:rgb(29,29,27);stroke-width:0.14px;"/>
                </g>
                <g id="path359" transform="matrix(1.25,0,0,-1.25,-63.3069,168.819)">
                    <path d="M56.256,80.233L56.256,80.662C56.256,80.818 56.139,80.921 55.998,80.921L51.002,80.921C50.846,80.921 50.715,80.818 50.715,80.662L50.715,80.233C50.715,80.078 50.846,79.973 51.002,79.973L52.974,79.973L52.974,72.487C52.974,72.343 53.104,72.225 53.247,72.225L53.751,72.225C53.895,72.225 54.025,72.343 54.025,72.487L54.025,79.973L55.998,79.973C56.139,79.973 56.256,80.078 56.256,80.233ZM63.064,72.487L63.064,72.953C63.064,73.109 62.934,73.225 62.779,73.225L59.522,73.225L59.522,76.354L62.376,76.354C62.531,76.354 62.649,76.471 62.649,76.639L62.649,77.041C62.649,77.184 62.531,77.3 62.376,77.3L59.522,77.3L59.522,79.949L62.688,79.949C62.856,79.949 62.959,80.078 62.959,80.233L62.959,80.662C62.959,80.818 62.83,80.921 62.688,80.921L58.742,80.921C58.6,80.921 58.471,80.818 58.471,80.662L58.471,72.487C58.471,72.343 58.6,72.225 58.742,72.225L62.791,72.225C62.934,72.225 63.064,72.343 63.064,72.487ZM70.39,72.823L70.156,73.316C70.104,73.421 69.987,73.485 69.831,73.407C69.611,73.303 69.119,73.161 68.769,73.161C67.483,73.161 66.536,74.187 66.536,76.626C66.536,79.001 67.34,80.014 68.794,80.014C69.197,80.014 69.495,79.91 69.793,79.766C69.949,79.689 70.078,79.741 70.143,79.87L70.35,80.273C70.429,80.415 70.377,80.571 70.247,80.648C69.793,80.921 69.261,80.987 68.755,80.987C66.77,80.987 65.394,79.378 65.394,76.639C65.394,73.784 66.601,72.161 68.677,72.161C69.469,72.161 69.936,72.343 70.274,72.511C70.377,72.564 70.454,72.681 70.39,72.823ZM78.547,72.487L78.547,80.662C78.547,80.818 78.418,80.921 78.275,80.921L77.781,80.921C77.639,80.921 77.509,80.818 77.509,80.662L77.509,77.3L74.226,77.3L74.226,80.662C74.226,80.818 74.097,80.921 73.953,80.921L73.461,80.921C73.318,80.921 73.188,80.818 73.188,80.662L73.188,72.487C73.188,72.343 73.318,72.225 73.461,72.225L73.953,72.225C74.097,72.225 74.226,72.343 74.226,72.487L74.226,76.365L77.509,76.365L77.509,72.487C77.509,72.343 77.639,72.225 77.781,72.225L78.275,72.225C78.418,72.225 78.547,72.343 78.547,72.487ZM87.677,72.473L87.677,80.676C87.677,80.818 87.548,80.921 87.405,80.921L86.951,80.921C86.809,80.921 86.678,80.818 86.678,80.676L86.704,74.77C86.704,74.213 86.795,73.512 86.834,72.993C86.678,73.434 86.536,74.018 86.276,74.601L83.578,80.74C83.525,80.856 83.422,80.921 83.279,80.921L82.293,80.921C82.137,80.921 82.02,80.845 82.02,80.676L82.02,72.473C82.02,72.343 82.149,72.225 82.293,72.225L82.747,72.225C82.89,72.225 83.02,72.343 83.02,72.473L82.993,78.483C82.993,78.897 82.903,79.741 82.864,80.273C83.02,79.714 83.188,79.117 83.435,78.572L86.186,72.434C86.25,72.304 86.368,72.225 86.497,72.225L87.405,72.225C87.548,72.225 87.677,72.343 87.677,72.473ZM93.084,72.499L93.084,72.784C93.084,72.927 92.979,73.057 92.824,73.057L92.175,73.057L92.175,80.091L92.824,80.091C92.979,80.091 93.084,80.22 93.084,80.364L93.084,80.648C93.084,80.792 92.979,80.921 92.824,80.921L90.488,80.921C90.332,80.921 90.229,80.792 90.229,80.648L90.229,80.364C90.229,80.22 90.332,80.091 90.488,80.091L91.138,80.091L91.138,73.057L90.488,73.057C90.332,73.057 90.229,72.927 90.229,72.784L90.229,72.499C90.229,72.355 90.332,72.225 90.488,72.225L92.824,72.225C92.979,72.225 93.084,72.355 93.084,72.499ZM100.128,74.654C100.128,76.042 99.324,76.626 98.364,77.028L97.65,77.327C96.924,77.638 96.313,77.949 96.313,78.716C96.313,79.52 96.754,80.001 97.818,80.001C98.349,80.001 98.726,79.883 99.154,79.754C99.259,79.728 99.415,79.819 99.453,79.961L99.557,80.377C99.595,80.52 99.518,80.676 99.401,80.714C99.012,80.845 98.349,80.987 97.818,80.987C96.131,80.987 95.197,80.001 95.197,78.676C95.197,77.222 96.196,76.781 97.13,76.365L97.741,76.093C98.427,75.782 98.986,75.418 98.986,74.615C98.986,73.744 98.324,73.161 97.286,73.161C96.638,73.161 96.015,73.369 95.548,73.537C95.366,73.601 95.25,73.499 95.209,73.354L95.08,72.85C95.042,72.706 95.093,72.59 95.261,72.526C95.755,72.343 96.56,72.161 97.273,72.161C99.181,72.161 100.128,73.343 100.128,74.654ZM107.313,72.823L107.079,73.316C107.028,73.421 106.911,73.485 106.755,73.407C106.534,73.303 106.041,73.161 105.691,73.161C104.407,73.161 103.459,74.187 103.459,76.626C103.459,79.001 104.264,80.014 105.716,80.014C106.119,80.014 106.417,79.91 106.716,79.766C106.872,79.689 107.002,79.741 107.066,79.87L107.274,80.273C107.352,80.415 107.299,80.571 107.17,80.648C106.716,80.921 106.184,80.987 105.678,80.987C103.692,80.987 102.316,79.378 102.316,76.639C102.316,73.784 103.524,72.161 105.6,72.161C106.391,72.161 106.858,72.343 107.196,72.511C107.299,72.564 107.379,72.681 107.313,72.823ZM115.47,72.487L115.47,80.662C115.47,80.818 115.34,80.921 115.198,80.921L114.704,80.921C114.561,80.921 114.432,80.818 114.432,80.662L114.432,77.3L111.149,77.3L111.149,80.662C111.149,80.818 111.02,80.921 110.877,80.921L110.384,80.921C110.241,80.921 110.111,80.818 110.111,80.662L110.111,72.487C110.111,72.343 110.241,72.225 110.384,72.225L110.877,72.225C111.02,72.225 111.149,72.343 111.149,72.487L111.149,76.365L114.432,76.365L114.432,72.487C114.432,72.343 114.561,72.225 114.704,72.225L115.198,72.225C115.34,72.225 115.47,72.343 115.47,72.487ZM123.537,72.487L123.537,72.953C123.537,73.109 123.406,73.225 123.25,73.225L119.995,73.225L119.995,76.354L122.848,76.354C123.005,76.354 123.122,76.471 123.122,76.639L123.122,77.041C123.122,77.184 123.005,77.3 122.848,77.3L119.995,77.3L119.995,79.949L123.16,79.949C123.328,79.949 123.433,80.078 123.433,80.233L123.433,80.662C123.433,80.818 123.302,80.921 123.16,80.921L119.216,80.921C119.073,80.921 118.944,80.818 118.944,80.662L118.944,72.487C118.944,72.343 119.073,72.225 119.216,72.225L123.264,72.225C123.406,72.225 123.537,72.343 123.537,72.487Z" style="fill:rgb(29,29,27);fill-rule:nonzero;stroke:rgb(29,29,27);stroke-width:0.14px;"/>
                </g>
                <g id="path379" transform="matrix(1.25,0,0,-1.25,-63.3069,168.819)">
                    <path d="M135.363,74.835L135.363,80.662C135.363,80.818 135.232,80.921 135.091,80.921L134.596,80.921C134.453,80.921 134.324,80.818 134.324,80.662L134.324,74.913C134.324,73.369 133.597,73.057 132.638,73.057C131.392,73.057 131.002,73.822 131.002,75.068L131.002,80.662C131.002,80.818 130.872,80.921 130.73,80.921L130.236,80.921C130.095,80.921 129.964,80.818 129.964,80.662L129.964,74.835C129.964,73.199 130.73,72.161 132.638,72.161C134.44,72.161 135.363,73.122 135.363,74.835ZM144.43,72.473L144.43,80.676C144.43,80.818 144.3,80.921 144.157,80.921L143.703,80.921C143.56,80.921 143.43,80.818 143.43,80.676L143.457,74.77C143.457,74.213 143.547,73.512 143.586,72.993C143.43,73.434 143.288,74.018 143.028,74.601L140.329,80.74C140.277,80.856 140.174,80.921 140.031,80.921L139.045,80.921C138.89,80.921 138.773,80.845 138.773,80.676L138.773,72.473C138.773,72.343 138.903,72.225 139.045,72.225L139.499,72.225C139.641,72.225 139.772,72.343 139.772,72.473L139.746,78.483C139.746,78.897 139.654,79.741 139.616,80.273C139.772,79.714 139.941,79.117 140.186,78.572L142.937,72.434C143.002,72.304 143.119,72.225 143.248,72.225L144.157,72.225C144.3,72.225 144.43,72.343 144.43,72.473ZM149.835,72.499L149.835,72.784C149.835,72.927 149.732,73.057 149.576,73.057L148.927,73.057L148.927,80.091L149.576,80.091C149.732,80.091 149.835,80.22 149.835,80.364L149.835,80.648C149.835,80.792 149.732,80.921 149.576,80.921L147.241,80.921C147.085,80.921 146.981,80.792 146.981,80.648L146.981,80.364C146.981,80.22 147.085,80.091 147.241,80.091L147.889,80.091L147.889,73.057L147.241,73.057C147.085,73.057 146.981,72.927 146.981,72.784L146.981,72.499C146.981,72.355 147.085,72.225 147.241,72.225L149.576,72.225C149.732,72.225 149.835,72.355 149.835,72.499ZM157.879,80.662C157.918,80.805 157.814,80.921 157.671,80.921L157.113,80.921C156.971,80.921 156.841,80.818 156.801,80.662L155.115,74.381C155.024,74.056 154.907,73.394 154.83,72.953C154.764,73.407 154.648,74.056 154.556,74.381L152.87,80.662C152.819,80.845 152.702,80.921 152.533,80.921L151.871,80.921C151.73,80.921 151.625,80.805 151.677,80.648L154.104,72.487C154.141,72.343 154.311,72.225 154.454,72.225L155.18,72.225C155.324,72.225 155.491,72.343 155.53,72.487L157.879,80.662ZM165.145,72.487L165.145,72.953C165.145,73.109 165.015,73.225 164.859,73.225L161.602,73.225L161.602,76.354L164.456,76.354C164.612,76.354 164.729,76.471 164.729,76.639L164.729,77.041C164.729,77.184 164.612,77.3 164.456,77.3L161.602,77.3L161.602,79.949L164.768,79.949C164.937,79.949 165.04,80.078 165.04,80.233L165.04,80.662C165.04,80.818 164.911,80.921 164.768,80.921L160.823,80.921C160.68,80.921 160.551,80.818 160.551,80.662L160.551,72.487C160.551,72.343 160.68,72.225 160.823,72.225L164.872,72.225C165.015,72.225 165.145,72.343 165.145,72.487ZM168.321,80.931C168.178,80.931 168.046,80.811 168.046,80.656L168.046,72.481C168.046,72.337 168.178,72.23 168.321,72.231L168.845,72.231C168.988,72.231 169.121,72.336 169.121,72.481L169.121,76.206L169.796,76.206C170.755,76.206 171.171,75.638 171.47,75.106C171.845,74.445 172.083,73.511 172.446,72.381C172.485,72.264 172.568,72.231 172.671,72.231L173.446,72.231C173.543,72.23 173.616,72.25 173.646,72.306C173.675,72.361 173.677,72.439 173.646,72.531C173.127,73.985 172.736,74.983 172.621,75.231C172.478,75.536 172.258,75.844 171.996,76.106C171.864,76.236 171.733,76.364 171.571,76.456C171.408,76.547 171.215,76.598 171.021,76.631L171.146,76.656C172.56,76.811 173.095,77.858 173.095,78.806C173.095,79.622 172.648,80.931 170.521,80.931L168.321,80.931ZM169.121,79.981L170.521,79.981C171.521,79.981 172.021,79.421 172.021,78.656C172.021,77.695 171.396,77.131 170.371,77.131L169.121,77.131L169.121,79.981ZM180.669,74.654C180.669,76.042 179.864,76.626 178.905,77.028L178.19,77.327C177.463,77.638 176.854,77.949 176.854,78.716C176.854,79.52 177.295,80.001 178.358,80.001C178.89,80.001 179.268,79.883 179.696,79.754C179.799,79.728 179.955,79.819 179.994,79.961L180.099,80.377C180.137,80.52 180.059,80.676 179.942,80.714C179.552,80.845 178.89,80.987 178.358,80.987C176.672,80.987 175.738,80.001 175.738,78.676C175.738,77.222 176.737,76.781 177.672,76.365L178.281,76.093C178.968,75.782 179.527,75.418 179.527,74.615C179.527,73.744 178.865,73.161 177.827,73.161C177.178,73.161 176.556,73.369 176.087,73.537C175.906,73.601 175.79,73.499 175.751,73.354L175.621,72.85C175.583,72.706 175.634,72.59 175.803,72.526C176.296,72.343 177.1,72.161 177.814,72.161C179.721,72.161 180.669,73.343 180.669,74.654ZM185.388,72.499L185.388,72.784C185.388,72.927 185.285,73.057 185.129,73.057L184.48,73.057L184.48,80.091L185.129,80.091C185.285,80.091 185.388,80.22 185.388,80.364L185.388,80.648C185.388,80.792 185.285,80.921 185.129,80.921L182.793,80.921C182.637,80.921 182.533,80.792 182.533,80.648L182.533,80.364C182.533,80.22 182.637,80.091 182.793,80.091L183.443,80.091L183.443,73.057L182.793,73.057C182.637,73.057 182.533,72.927 182.533,72.784L182.533,72.499C182.533,72.355 182.637,72.225 182.793,72.225L185.129,72.225C185.285,72.225 185.388,72.355 185.388,72.499ZM192.522,80.233L192.522,80.662C192.522,80.818 192.406,80.921 192.264,80.921L187.268,80.921C187.113,80.921 186.982,80.818 186.982,80.662L186.982,80.233C186.982,80.078 187.113,79.973 187.268,79.973L189.24,79.973L189.24,72.487C189.24,72.343 189.371,72.225 189.512,72.225L190.019,72.225C190.161,72.225 190.291,72.343 190.291,72.487L190.291,79.973L192.264,79.973C192.406,79.973 192.522,80.078 192.522,80.233ZM197.571,83.006C197.208,83.005 196.946,82.732 196.946,82.381C196.946,82.017 197.232,81.756 197.595,81.756C197.907,81.756 198.196,82.016 198.196,82.381C198.195,82.732 197.883,83.006 197.571,83.006ZM195.296,83.006C194.985,83.005 194.72,82.732 194.72,82.381C194.72,82.017 194.996,81.756 195.321,81.756C195.683,81.756 195.946,82.016 195.946,82.381C195.946,82.732 195.66,83.006 195.296,83.006ZM196.046,80.931C195.904,80.93 195.748,80.839 195.696,80.656L193.296,72.506C193.244,72.349 193.327,72.231 193.47,72.231L194.121,72.231C194.263,72.23 194.381,72.337 194.421,72.481L195.021,74.656L197.921,74.656L198.546,72.481C198.555,72.444 198.572,72.412 198.595,72.381C198.666,72.287 198.788,72.231 198.896,72.231L199.571,72.231C199.712,72.23 199.798,72.35 199.746,72.506L197.196,80.656C197.144,80.838 196.991,80.931 196.845,80.931L196.046,80.931ZM196.446,80.356C196.472,80.181 196.49,80.012 196.521,79.831C196.551,79.649 196.575,79.467 196.621,79.306L197.671,75.531L195.246,75.531L196.246,79.306C196.336,79.643 196.407,79.992 196.446,80.356ZM206.178,80.233L206.178,80.662C206.178,80.818 206.061,80.921 205.919,80.921L200.923,80.921C200.768,80.921 200.637,80.818 200.637,80.662L200.637,80.233C200.637,80.078 200.768,79.973 200.923,79.973L202.896,79.973L202.896,72.487C202.896,72.343 203.025,72.225 203.167,72.225L203.673,72.225C203.816,72.225 203.947,72.343 203.947,72.487L203.947,79.973L205.919,79.973C206.061,79.973 206.178,80.078 206.178,80.233Z" style="fill:rgb(29,29,27);fill-rule:nonzero;stroke:rgb(29,29,27);stroke-width:0.14px;"/>
                </g>
            </g>
        </g>
    </g>
</svg>