<?xml version="1.0" encoding="UTF-8" standalone="no"?>
<!DOCTYPE svg PUBLIC "-//W3C//DTD SVG 1.1//EN" "http://www.w3.org/Graphics/SVG/1.1/DTD/svg11.dtd">
<svg width="100%" height="100%" viewBox="0 0 220 100" version="1.1" xmlns="http://www.w3.org/2000/svg" xmlns:xlink="http://www.w3.org/1999/xlink" xml:space="preserve" xmlns:serif="http://www.serif.com/" style="fill-rule:evenodd;clip-rule:evenodd;stroke-linejoin:round;stroke-miterlimit:2;">
    <g transform="matrix(1,0,0,1,-442,0)">
        <g id="ESF" transform="matrix(0.114583,0,0,0.0833333,442,0)">
            <rect x="0" y="0" width="1920" height="1200" style="fill:none;"/>
            <clipPath id="_clip1">
                <rect x="0" y="0" width="1920" height="1200"/>
            </clipPath>
            <g clip-path="url(#_clip1)">
                <g transform="matrix(8.55273,0,0,11.76,-68.4304,-117.6)">
                    <rect x="205.058" y="38.678" width="26.941" height="67.888" style="fill:rgb(105,190,40);"/>
                    <rect x="155.836" y="38.697" width="44.903" height="67.869" style="fill:rgb(0,51,153);"/>
                    <path d="M206.195,47.389L204.119,41.019L202.035,47.389L195.306,47.404L200.749,51.347L198.656,57.757L204.111,53.804L209.566,57.757L207.475,51.352L212.912,47.404L206.195,47.389Z" style="fill:rgb(255,204,0);fill-rule:nonzero;"/>
                    <path d="M217.471,64.833L215.395,58.442L213.313,64.833L206.586,64.852L212.027,68.794L209.932,75.195L215.39,71.22L220.845,75.195L218.753,68.8L224.183,64.852L217.471,64.833Z" style="fill:rgb(255,204,0);fill-rule:nonzero;"/>
                    <path d="M212.587,84.885L210.505,78.523L208.431,84.885L201.712,84.903L207.126,88.843L205.036,95.27L210.505,91.305L215.971,95.27L213.88,88.848L219.304,84.903L212.587,84.885Z" style="fill:rgb(255,204,0);fill-rule:nonzero;"/>
                    <path d="M190.558,93.861L188.487,87.498L186.4,93.861L179.672,93.875L185.113,97.818L183.021,104.242L188.479,100.279L193.932,104.242L191.842,97.818L197.273,93.875L190.558,93.861Z" style="fill:rgb(255,204,0);fill-rule:nonzero;"/>
                    <path d="M171.538,85.816L169.463,79.424L167.387,85.816L160.652,85.837L166.095,89.773L164.001,96.173L169.461,92.21L174.911,96.173L172.825,89.779L178.249,85.837L171.538,85.816Z" style="fill:rgb(255,204,0);fill-rule:nonzero;"/>
                    <path d="M43.734,56.256L15.213,56.256L15.213,45.883L50.931,45.883L50.931,38.694L8.019,38.694L8.019,81.602L50.931,81.602L50.931,74.409L15.213,74.409L15.213,63.395L43.734,63.395L43.734,56.256ZM88.05,63.395C90.071,63.395 91.618,64.956 91.618,67.029L91.618,70.852C91.618,72.852 90.071,74.409 88.05,74.409L67.117,74.409C65.104,74.409 63.543,72.852 63.543,70.852L63.543,67.727L56.351,67.727L56.351,70.852C56.351,76.805 61.144,81.602 67.117,81.602L88.05,81.602C94.025,81.602 98.829,76.805 98.829,70.852L98.829,67.029C98.829,61.13 94.025,56.257 88.05,56.257L66.666,56.257C64.645,56.257 63.083,54.696 63.083,52.621L63.083,49.445C63.083,47.45 64.645,45.884 66.666,45.884L87.592,45.884C89.615,45.884 91.175,47.45 91.175,49.445L91.175,52.506L98.368,52.506L98.368,49.445C98.368,43.487 94.024,38.695 88.049,38.695L66.666,38.695C60.686,38.695 55.892,43.487 55.892,49.445L55.892,52.621C55.892,58.655 60.686,63.395 66.666,63.395L88.05,63.395ZM112.425,81.602L112.425,63.395L140.948,63.395L140.948,56.257L112.425,56.257L112.425,45.883L148.163,45.883L148.163,38.694L105.23,38.694L105.23,81.602L112.425,81.602" style="fill:rgb(0,51,153);fill-rule:nonzero;"/>
                    <path d="M8.062,27.303L8.062,10.155L18.472,10.155L18.472,11.297L9.369,11.297L9.369,18.061L17.134,18.061L17.134,19.234L9.369,19.234L9.369,26.148L18.472,26.148L18.472,27.303L8.062,27.303Z" style="fill:rgb(0,51,153);fill-rule:nonzero;"/>
                    <path d="M29.932,27.303L29.932,25.93C29.057,26.93 27.893,27.456 26.504,27.456C25.203,27.456 24.155,27.053 23.412,26.34C22.64,25.599 22.209,24.487 22.209,23.101L22.209,15.686L23.442,15.686L23.442,22.885C23.442,25.139 24.57,26.366 26.65,26.366C28.726,26.366 29.932,25.078 29.932,22.885L29.932,15.686L31.139,15.686L31.139,27.303L29.932,27.303Z" style="fill:rgb(0,51,153);fill-rule:nonzero;"/>
                    <path d="M42.534,17.538C41.85,16.852 41.306,16.633 40.341,16.633C38.352,16.633 37.253,18.274 37.253,20.133L37.253,27.302L36.016,27.302L36.016,15.684L37.253,15.684L37.253,17.23C37.914,16.148 39.26,15.541 40.649,15.541C41.744,15.541 42.619,15.839 43.431,16.643L42.534,17.538Z" style="fill:rgb(0,51,153);fill-rule:nonzero;"/>
                    <path d="M52.446,26.159C51.613,26.992 50.5,27.454 49.203,27.454C47.906,27.454 46.794,26.992 45.985,26.159C44.751,24.945 44.536,23.159 44.536,21.496C44.536,19.825 44.751,18.055 45.985,16.828C46.794,15.995 47.905,15.541 49.203,15.541C50.501,15.541 51.613,15.996 52.446,16.828C53.666,18.055 53.883,19.826 53.883,21.496C53.883,23.159 53.666,24.945 52.446,26.159M51.613,17.617C50.993,16.982 50.155,16.633 49.203,16.633C48.274,16.633 47.431,16.983 46.794,17.617C45.832,18.587 45.771,20.133 45.771,21.496C45.771,22.85 45.832,24.398 46.794,25.378C47.43,26.002 48.273,26.365 49.203,26.365C50.156,26.365 50.993,26.001 51.613,25.378C52.571,24.398 52.661,22.85 52.661,21.496C52.661,20.133 52.571,18.587 51.613,17.617" style="fill:rgb(0,51,153);fill-rule:nonzero;"/>
                    <path d="M65.585,26.436C64.985,27.023 63.945,27.455 62.743,27.455C61.43,27.455 60.317,27.149 59.298,25.817L59.298,32.833L58.062,32.833L58.062,15.684L59.298,15.684L59.298,17.181C60.317,15.839 61.43,15.541 62.743,15.541C63.945,15.541 64.985,15.963 65.585,16.549C66.775,17.728 67.086,19.671 67.086,21.494C67.086,23.316 66.775,25.262 65.585,26.436M62.573,16.633C59.73,16.633 59.298,19.082 59.298,21.494C59.298,23.904 59.73,26.366 62.573,26.366C65.416,26.366 65.848,23.904 65.848,21.494C65.848,19.082 65.417,16.633 62.573,16.633" style="fill:rgb(0,51,153);fill-rule:nonzero;"/>
                    <path d="M71.821,21.77C71.821,24.704 73.14,26.342 75.609,26.342C76.968,26.342 77.835,25.93 78.82,24.946L79.719,25.665C78.542,26.838 77.461,27.455 75.539,27.455C72.333,27.455 70.602,25.379 70.602,21.492C70.602,17.752 72.332,15.541 75.237,15.541C78.138,15.541 79.9,17.661 79.9,21.212L79.9,21.77L71.821,21.77ZM78.267,18.587C77.741,17.382 76.567,16.63 75.239,16.63C73.911,16.63 72.736,17.382 72.238,18.587C71.933,19.3 71.872,19.67 71.822,20.778L78.668,20.778C78.608,19.671 78.542,19.3 78.267,18.587" style="fill:rgb(0,51,153);fill-rule:nonzero;"/>
                    <path d="M91.979,16.61L91.979,27.302L90.743,27.302L90.743,16.61L89.166,16.61L89.166,15.686L90.743,15.686L90.743,13.181C90.743,11.419 91.726,10.155 93.553,10.155L94.604,10.155L94.604,11.236L93.769,11.236C92.533,11.236 91.979,11.946 91.979,13.153L91.979,15.687L94.604,15.687L94.604,16.611L91.979,16.611L91.979,16.61Z" style="fill:rgb(0,51,153);fill-rule:nonzero;"/>
                    <path d="M105.476,27.303L105.476,25.93C104.612,26.93 103.44,27.456 102.05,27.456C100.753,27.456 99.713,27.053 98.96,26.34C98.188,25.599 97.754,24.487 97.754,23.101L97.754,15.686L98.99,15.686L98.99,22.885C98.99,25.139 100.133,26.366 102.202,26.366C104.275,26.366 105.475,25.078 105.475,22.885L105.475,15.686L106.711,15.686L106.711,27.303L105.476,27.303Z" style="fill:rgb(0,51,153);fill-rule:nonzero;"/>
                    <path d="M119.286,27.303L119.286,20.101C119.286,17.848 118.141,16.633 116.072,16.633C114.001,16.633 112.798,17.91 112.798,20.101L112.798,27.303L111.559,27.303L111.559,15.686L112.798,15.686L112.798,17.065C113.663,16.055 114.805,15.54 116.225,15.54C117.528,15.54 118.544,15.931 119.29,16.642C120.06,17.397 120.494,18.495 120.494,19.888L120.494,27.303L119.286,27.303Z" style="fill:rgb(0,51,153);fill-rule:nonzero;"/>
                    <path d="M132.32,27.303L132.32,25.816C131.32,27.149 130.186,27.454 128.889,27.454C127.682,27.454 126.634,27.022 126.044,26.435C124.867,25.262 124.538,23.315 124.538,21.493C124.538,19.67 124.868,17.727 126.044,16.548C126.633,15.962 127.682,15.54 128.889,15.54C130.185,15.54 131.319,15.838 132.32,17.18L132.32,10.155L133.554,10.155L133.554,27.303L132.32,27.303ZM129.046,16.633C126.202,16.633 125.767,19.082 125.767,21.494C125.767,23.904 126.203,26.366 129.046,26.366C131.888,26.366 132.32,23.904 132.32,21.494C132.32,19.082 131.888,16.633 129.046,16.633" style="fill:rgb(0,51,153);fill-rule:nonzero;"/>
                    <path d="M141.987,27.454C139.961,27.454 138.463,26.915 137.288,25.787L138.125,24.946C139.049,25.908 140.287,26.366 141.931,26.366C144.208,26.366 145.43,25.569 145.43,23.994C145.43,22.788 144.733,22.202 143.218,22.047L141.276,21.883C138.957,21.678 137.783,20.656 137.783,18.835C137.783,16.849 139.421,15.54 141.952,15.54C143.559,15.54 145.015,15.992 146.033,16.765L145.213,17.598C144.333,16.951 143.243,16.611 141.952,16.611C140.068,16.611 138.991,17.415 138.991,18.836C138.991,20.04 139.728,20.657 141.366,20.79L143.243,20.967C145.17,21.125 146.633,21.74 146.633,23.995C146.633,26.127 144.829,27.454 141.987,27.454" style="fill:rgb(0,51,153);fill-rule:nonzero;"/>
                    <path d="M161.445,27.454C158.883,27.454 157.304,26.746 155.727,25.169L156.654,24.271C158.201,25.816 159.436,26.281 161.508,26.281C164.223,26.281 165.925,24.981 165.925,22.754C165.925,21.739 165.615,20.898 164.996,20.347C164.351,19.804 163.913,19.638 162.495,19.42L160.516,19.115C159.212,18.925 158.167,18.489 157.457,17.848C156.535,17.076 156.101,16.024 156.101,14.696C156.101,11.824 158.139,10 161.416,10C163.547,10 164.899,10.586 166.357,11.849L165.524,12.696C164.461,11.758 163.392,11.112 161.354,11.112C158.879,11.112 157.368,12.477 157.368,14.662C157.368,15.647 157.673,16.396 158.262,16.888C158.879,17.398 159.869,17.814 160.827,17.946L162.681,18.248C164.288,18.49 165.006,18.774 165.738,19.369C166.667,20.134 167.225,21.334 167.225,22.699C167.225,25.599 165.005,27.454 161.445,27.454" style="fill:rgb(0,51,153);fill-rule:nonzero;"/>
                    <path d="M178.001,27.303L178.001,26.148C177.012,27.133 176.084,27.454 174.449,27.454C172.749,27.454 171.786,27.146 171.024,26.375C170.493,25.82 170.181,24.984 170.181,24.121C170.181,21.992 171.701,20.781 174.23,20.781L178,20.781L178,19.477C178,17.617 177.073,16.633 174.723,16.633C173.089,16.633 172.223,17.046 171.512,18.092L170.616,17.321C171.603,15.963 172.843,15.541 174.724,15.541C177.786,15.541 179.224,16.921 179.224,19.36L179.224,27.303L178.001,27.303ZM178.001,21.768L174.388,21.768C172.377,21.768 171.421,22.544 171.421,24.088C171.421,25.633 172.35,26.365 174.449,26.365C175.505,26.365 176.518,26.257 177.348,25.474C177.785,25.055 178,24.334 178,23.252L178,21.768L178.001,21.768Z" style="fill:rgb(0,51,153);fill-rule:nonzero;"/>
                    <path d="M190.275,27.303L187.212,22.418L184.116,27.303L182.619,27.303L186.555,21.37L182.788,15.686L184.272,15.686L187.212,20.353L190.109,15.686L191.594,15.686L187.85,21.37L191.777,27.303L190.275,27.303Z" style="fill:rgb(0,51,153);fill-rule:nonzero;"/>
                    <path d="M202.001,26.159C201.194,26.992 200.085,27.454 198.784,27.454C197.489,27.454 196.377,26.992 195.54,26.159C194.318,24.945 194.098,23.159 194.098,21.496C194.098,19.825 194.318,18.055 195.54,16.828C196.377,15.995 197.488,15.541 198.784,15.541C200.085,15.541 201.194,15.996 202.001,16.828C203.235,18.055 203.451,19.826 203.451,21.496C203.451,23.159 203.235,24.945 202.001,26.159M201.194,17.617C200.555,16.982 199.712,16.633 198.784,16.633C197.828,16.633 196.995,16.983 196.377,17.617C195.413,18.587 195.327,20.133 195.327,21.496C195.327,22.85 195.412,24.398 196.377,25.378C196.995,26.002 197.828,26.365 198.784,26.365C199.712,26.365 200.555,26.001 201.194,25.378C202.153,24.398 202.216,22.85 202.216,21.496C202.216,20.133 202.153,18.587 201.194,17.617" style="fill:rgb(0,51,153);fill-rule:nonzero;"/>
                    <path d="M215.343,27.303L215.343,20.101C215.343,17.848 214.224,16.633 212.15,16.633C210.067,16.633 208.868,17.91 208.868,20.101L208.868,27.303L207.648,27.303L207.648,15.686L208.868,15.686L208.868,17.065C209.743,16.055 210.892,15.54 212.283,15.54C213.585,15.54 214.633,15.931 215.372,16.642C216.146,17.397 216.578,18.495 216.578,19.888L216.578,27.303L215.343,27.303Z" style="fill:rgb(0,51,153);fill-rule:nonzero;"/>
                    <path d="M223.588,30.453C223.371,31.072 223.125,31.509 222.784,31.812C222.212,32.367 221.363,32.552 220.592,32.552L220.024,32.552L220.024,31.471L220.468,31.471C221.798,31.471 222.166,31.039 222.6,29.867L223.526,27.303L219.293,15.684L220.654,15.684L224.142,25.848L227.637,15.684L228.993,15.684L223.588,30.453Z" style="fill:rgb(0,51,153);fill-rule:nonzero;"/>
                    <rect x="230.105" y="25.506" width="1.787" height="1.794" style="fill:rgb(0,51,153);"/>
                    <path d="M8.001,106.555L8.001,95.929L14.458,95.929L14.458,96.643L8.819,96.643L8.819,100.847L13.627,100.847L13.627,101.555L8.819,101.555L8.819,105.85L14.458,105.85L14.458,106.555L8.001,106.555Z" style="fill:rgb(0,51,153);fill-rule:nonzero;"/>
                    <path d="M21.421,106.555L21.421,105.708C20.886,106.326 20.179,106.649 19.315,106.649C18.501,106.649 17.863,106.422 17.389,105.973C16.915,105.502 16.649,104.806 16.649,103.962L16.649,99.359L17.409,99.359L17.409,103.82C17.409,105.223 18.119,105.985 19.404,105.985C20.679,105.985 21.422,105.192 21.422,103.82L21.422,99.359L22.184,99.359L22.184,106.555L21.421,106.555Z" style="fill:rgb(0,51,153);fill-rule:nonzero;"/>
                    <path d="M29.139,100.518C28.708,100.084 28.379,99.952 27.766,99.952C26.54,99.952 25.851,100.961 25.851,102.129L25.851,106.556L25.09,106.556L25.09,99.36L25.851,99.36L25.851,100.307C26.265,99.649 27.089,99.274 27.961,99.274C28.63,99.274 29.165,99.443 29.691,99.967L29.139,100.518Z" style="fill:rgb(0,51,153);fill-rule:nonzero;"/>
                    <path d="M35.157,105.868C34.633,106.365 33.963,106.649 33.145,106.649C32.336,106.649 31.658,106.365 31.134,105.868C30.374,105.107 30.258,103.998 30.258,102.954C30.258,101.939 30.374,100.834 31.134,100.069C31.657,99.543 32.336,99.274 33.145,99.274C33.963,99.274 34.632,99.543 35.157,100.069C35.919,100.834 36.055,101.939 36.055,102.954C36.055,103.999 35.919,105.107 35.157,105.868M34.632,100.55C34.254,100.172 33.736,99.949 33.145,99.949C32.556,99.949 32.036,100.172 31.658,100.55C31.052,101.159 31.021,102.128 31.021,102.955C31.021,103.805 31.052,104.777 31.658,105.363C32.036,105.766 32.556,105.986 33.145,105.986C33.736,105.986 34.254,105.766 34.632,105.363C35.241,104.777 35.289,103.805 35.289,102.955C35.29,102.128 35.241,101.159 34.632,100.55" style="fill:rgb(0,51,153);fill-rule:nonzero;"/>
                    <path d="M43.174,106.018C42.817,106.405 42.177,106.649 41.413,106.649C40.62,106.649 39.904,106.47 39.286,105.641L39.286,110L38.524,110L38.524,99.359L39.286,99.359L39.286,100.296C39.905,99.443 40.62,99.274 41.413,99.274C42.177,99.274 42.817,99.534 43.174,99.893C43.926,100.633 44.113,101.833 44.113,102.956C44.113,104.104 43.926,105.293 43.174,106.018M41.307,99.951C39.555,99.951 39.286,101.471 39.286,102.954C39.286,104.459 39.556,105.985 41.307,105.985C43.071,105.985 43.357,104.459 43.357,102.954C43.357,101.471 43.071,99.951 41.307,99.951" style="fill:rgb(0,51,153);fill-rule:nonzero;"/>
                    <path d="M46.928,103.137C46.928,104.948 47.758,105.973 49.284,105.973C50.132,105.973 50.645,105.708 51.258,105.105L51.821,105.553C51.096,106.279 50.421,106.649 49.227,106.649C47.235,106.649 46.164,105.361 46.164,102.955C46.164,100.635 47.236,99.274 49.058,99.274C50.836,99.274 51.923,100.59 51.923,102.789L51.923,103.138L46.928,103.138L46.928,103.137ZM50.931,101.159C50.601,100.411 49.866,99.951 49.058,99.951C48.223,99.951 47.502,100.411 47.187,101.159C46.993,101.611 46.966,101.832 46.928,102.503L51.167,102.503C51.148,101.832 51.097,101.611 50.931,101.159" style="fill:rgb(0,51,153);fill-rule:nonzero;"/>
                    <path d="M58.618,106.553L58.618,105.85C58.015,106.452 57.446,106.649 56.422,106.649C55.369,106.649 54.759,106.468 54.316,105.992C53.988,105.66 53.773,105.117 53.773,104.583C53.773,103.266 54.732,102.503 56.29,102.503L58.619,102.503L58.619,101.715C58.619,100.551 58.047,99.948 56.599,99.948C55.575,99.948 55.059,100.194 54.608,100.848L54.055,100.381C54.656,99.532 55.42,99.274 56.599,99.274C58.479,99.274 59.38,100.117 59.38,101.621L59.38,106.552L58.618,106.552L58.618,106.553ZM58.618,103.134L56.395,103.134C55.143,103.134 54.54,103.611 54.54,104.569C54.54,105.539 55.128,105.986 56.422,105.986C57.079,105.986 57.712,105.914 58.225,105.438C58.478,105.172 58.618,104.721 58.618,104.048L58.618,103.134Z" style="fill:rgb(0,51,153);fill-rule:nonzero;"/>
                    <path d="M67.007,106.555L67.007,102.09C67.007,100.71 66.299,99.951 65.023,99.951C63.725,99.951 62.974,100.743 62.974,102.09L62.974,106.555L62.212,106.555L62.212,99.359L62.974,99.359L62.974,100.206C63.509,99.58 64.244,99.273 65.107,99.273C65.915,99.273 66.562,99.517 67.007,99.966C67.49,100.411 67.774,101.099 67.774,101.947L67.774,106.554L67.007,106.554L67.007,106.555Z" style="fill:rgb(0,51,153);fill-rule:nonzero;"/>
                    <path d="M77.23,106.649C75.648,106.649 74.663,106.212 73.681,105.24L74.251,104.679C75.211,105.64 75.981,105.931 77.287,105.931C78.941,105.931 80.018,105.117 80.018,103.735C80.018,103.112 79.806,102.597 79.426,102.253C79.04,101.919 78.751,101.818 77.886,101.678L76.636,101.488C75.847,101.371 75.207,101.087 74.758,100.709C74.184,100.219 73.902,99.562 73.902,98.755C73.902,96.969 75.188,95.823 77.211,95.823C78.524,95.823 79.369,96.192 80.272,96.987L79.754,97.505C79.099,96.913 78.439,96.518 77.181,96.518C75.639,96.518 74.702,97.363 74.702,98.717C74.702,99.319 74.883,99.787 75.255,100.099C75.639,100.412 76.239,100.671 76.852,100.755L77.986,100.953C78.994,101.087 79.447,101.283 79.896,101.64C80.462,102.128 80.809,102.852 80.809,103.697C80.81,105.502 79.448,106.649 77.23,106.649" style="fill:rgb(0,51,153);fill-rule:nonzero;"/>
                    <path d="M87.623,105.868C87.126,106.365 86.43,106.649 85.615,106.649C84.821,106.649 84.133,106.365 83.633,105.868C82.867,105.107 82.731,103.998 82.731,102.954C82.731,101.939 82.867,100.834 83.633,100.069C84.133,99.543 84.821,99.274 85.615,99.274C86.43,99.274 87.126,99.543 87.623,100.069C88.384,100.834 88.527,101.939 88.527,102.954C88.527,103.999 88.384,105.107 87.623,105.868M87.125,100.55C86.72,100.172 86.204,99.949 85.614,99.949C85.049,99.949 84.507,100.172 84.132,100.55C83.525,101.159 83.49,102.128 83.49,102.955C83.49,103.805 83.525,104.777 84.132,105.363C84.507,105.766 85.049,105.986 85.614,105.986C86.203,105.986 86.719,105.766 87.125,105.363C87.704,104.777 87.763,103.805 87.763,102.955C87.764,102.128 87.705,101.159 87.125,100.55" style="fill:rgb(0,51,153);fill-rule:nonzero;"/>
                    <path d="M93.746,106.649C91.791,106.649 90.58,105.24 90.58,102.955C90.58,100.672 91.791,99.274 93.746,99.274C94.73,99.274 95.337,99.534 96.111,100.383L95.594,100.85C94.992,100.176 94.502,99.953 93.746,99.953C92.93,99.953 92.275,100.28 91.838,100.899C91.482,101.416 91.337,101.99 91.337,102.956C91.337,103.925 91.482,104.498 91.838,105.013C92.276,105.661 92.93,105.987 93.746,105.987C94.502,105.987 94.992,105.765 95.594,105.07L96.111,105.554C95.337,106.405 94.73,106.649 93.746,106.649" style="fill:rgb(0,51,153);fill-rule:nonzero;"/>
                    <path d="M98.28,95.928L99.209,95.928L99.209,96.865L98.28,96.865L98.28,95.928ZM98.364,99.359L99.126,99.359L99.126,106.555L98.364,106.555L98.364,99.359Z" style="fill:rgb(0,51,153);fill-rule:nonzero;"/>
                    <path d="M106.254,106.553L106.254,105.85C105.62,106.452 105.07,106.649 104.057,106.649C102.993,106.649 102.394,106.468 101.922,105.992C101.595,105.66 101.405,105.117 101.405,104.583C101.405,103.266 102.339,102.503 103.913,102.503L106.255,102.503L106.255,101.715C106.255,100.551 105.68,99.948 104.205,99.948C103.21,99.948 102.666,100.194 102.227,100.848L101.682,100.381C102.288,99.532 103.051,99.274 104.205,99.274C106.112,99.274 107.017,100.117 107.017,101.621L107.017,106.552L106.254,106.552L106.254,106.553ZM106.254,103.134L103.998,103.134C102.775,103.134 102.166,103.611 102.166,104.569C102.166,105.539 102.757,105.986 104.057,105.986C104.715,105.986 105.329,105.914 105.837,105.438C106.111,105.172 106.254,104.721 106.254,104.048L106.254,103.134Z" style="fill:rgb(0,51,153);fill-rule:nonzero;"/>
                    <path d="M111.535,106.555C110.381,106.555 109.807,105.811 109.807,104.684L109.807,95.929L110.569,95.929L110.569,104.679C110.569,105.482 110.836,105.88 111.678,105.88L112.193,105.88L112.193,106.555L111.535,106.555Z" style="fill:rgb(0,51,153);fill-rule:nonzero;"/>
                    <path d="M118.945,96.643L118.945,101.022L123.756,101.022L123.756,101.725L118.945,101.725L118.945,106.557L118.126,106.557L118.126,95.929L124.581,95.929L124.581,96.643L118.945,96.643Z" style="fill:rgb(0,51,153);fill-rule:nonzero;"/>
                    <path d="M130.774,106.555L130.774,105.708C130.231,106.326 129.529,106.649 128.665,106.649C127.844,106.649 127.206,106.422 126.736,105.973C126.275,105.502 125.995,104.806 125.995,103.962L125.995,99.359L126.754,99.359L126.754,103.82C126.754,105.223 127.468,105.985 128.746,105.985C130.025,105.985 130.774,105.192 130.774,103.82L130.774,99.359L131.539,99.359L131.539,106.555L130.774,106.555Z" style="fill:rgb(0,51,153);fill-rule:nonzero;"/>
                    <path d="M139.209,106.555L139.209,102.09C139.209,100.71 138.521,99.951 137.225,99.951C135.938,99.951 135.196,100.743 135.196,102.09L135.196,106.555L134.434,106.555L134.434,99.359L135.196,99.359L135.196,100.206C135.731,99.58 136.462,99.273 137.329,99.273C138.118,99.273 138.758,99.517 139.225,99.966C139.714,100.411 139.97,101.099 139.97,101.947L139.97,106.554L139.209,106.554L139.209,106.555Z" style="fill:rgb(0,51,153);fill-rule:nonzero;"/>
                    <path d="M147.181,106.555L147.181,105.64C146.559,106.47 145.868,106.648 145.059,106.648C144.313,106.648 143.676,106.404 143.292,106.017C142.566,105.292 142.369,104.103 142.369,102.954C142.369,101.831 142.567,100.631 143.292,99.891C143.676,99.533 144.313,99.272 145.059,99.272C145.868,99.272 146.559,99.441 147.181,100.294L147.181,95.927L147.946,95.927L147.946,106.553L147.181,106.553L147.181,106.555ZM145.16,99.951C143.394,99.951 143.132,101.471 143.132,102.954C143.132,104.459 143.394,105.985 145.16,105.985C146.929,105.985 147.181,104.459 147.181,102.954C147.181,101.471 146.928,99.951 145.16,99.951" style="fill:rgb(0,51,153);fill-rule:nonzero;"/>
                </g>
            </g>
        </g>
    </g>
</svg>