<?xml version="1.0" encoding="UTF-8" standalone="no"?>
<!DOCTYPE svg PUBLIC "-//W3C//DTD SVG 1.1//EN" "http://www.w3.org/Graphics/SVG/1.1/DTD/svg11.dtd">
<svg width="100%" height="100%" viewBox="0 0 209 100" version="1.1" xmlns="http://www.w3.org/2000/svg" xmlns:xlink="http://www.w3.org/1999/xlink" xml:space="preserve" xmlns:serif="http://www.serif.com/" style="fill-rule:evenodd;clip-rule:evenodd;stroke-linejoin:round;stroke-miterlimit:2;">
    <g transform="matrix(1,0,0,1,-213,0)">
        <g id="SAB" transform="matrix(0.108854,0,0,0.0833333,213,0)">
            <rect x="0" y="0" width="1920" height="1200" style="fill:none;"/>
            <g id="Sächsische_Aufbaubank_201x_logo" transform="matrix(1.86341,0,0,2.43408,954.065,600)">
                <g transform="matrix(1,0,0,1,-512,-246.5)">
                    <path id="path5" d="M128.286,209.077C115.703,208.741 103.284,210.251 91.204,213.271C79.795,216.627 69.059,221.335 60.335,227.376C50.939,234.087 43.551,242.138 38.182,251.533C31.471,261.6 28.115,273.673 28.115,287.095C28.115,299.847 30.131,310.592 34.158,318.646C38.185,327.37 43.557,334.076 50.268,340.117C56.979,346.157 63.685,350.852 71.739,354.208C79.121,357.563 87.177,360.253 94.559,362.937L116.712,370.317C123.423,372.331 128.792,375.012 133.49,377.697C138.188,380.381 141.541,383.74 144.225,387.095C146.91,390.451 147.581,394.48 147.581,399.849C147.581,405.889 146.239,410.585 144.225,413.94C142.212,417.967 138.851,421.325 135.495,423.339C131.469,426.023 127.439,428.042 122.741,428.713C108.648,432.068 95.233,430.721 80.468,423.339C71.073,418.641 63.685,412.606 58.316,405.223L54.292,399.849L14.025,437.43L17.38,441.454C28.118,453.534 41.541,463.609 57.648,469.649C73.755,475.689 90.535,479.047 107.313,479.047C120.065,479.047 132.148,477.029 143.557,473.673C154.966,470.317 165.701,464.943 174.426,458.232C183.15,450.849 190.528,442.125 195.897,431.387C201.266,420.649 203.958,407.9 203.958,393.807C203.958,380.384 201.263,369.646 196.565,360.25C192.538,354.21 185.832,346.825 178.45,340.785C171.068,335.416 162.348,330.718 153.624,327.363C144.899,324.007 136.838,321.33 128.784,318.646C122.073,316.632 115.37,314.616 110.001,312.603C104.632,310.59 99.934,308.576 96.578,305.892C93.222,303.879 90.53,300.528 88.517,297.844C86.503,294.488 85.83,291.125 85.83,286.427C85.83,281.729 87.172,277.028 89.185,273.673C91.199,270.317 94.559,266.969 97.915,264.956C101.271,262.943 105.974,260.924 110.001,259.582C122.752,256.226 134.83,257.566 147.581,263.606C154.963,266.961 160.998,271.659 165.696,277.028L169.72,282.403L206.632,241.467L202.608,237.442C192.541,228.047 180.458,220.656 166.364,215.959C153.613,211.596 140.87,209.413 128.286,209.077ZM519.386,214.622L519.386,474.341L609.306,474.341C621.387,474.341 633.472,473.002 644.881,470.317C656.962,467.633 667.705,463.603 677.101,457.563C686.496,451.523 694.539,443.472 699.908,433.405C705.948,423.339 708.638,410.587 708.638,396.494C708.638,378.373 703.269,363.611 691.86,352.202C684.478,344.82 676.419,339.448 666.352,336.092C673.734,332.066 679.78,327.373 685.149,321.333C693.873,311.266 698.571,298.507 698.571,283.071C698.571,270.991 695.889,260.258 691.191,251.533C686.494,242.809 679.777,235.419 672.395,230.05C665.012,224.681 655.614,220.662 646.218,217.977C636.823,215.964 626.764,214.622 617.368,214.622L519.386,214.622ZM334.827,215.29L221.405,475.01L283.143,475.01L305.295,417.964L405.295,417.964L428.785,475.01L491.86,475.01L381.806,218.646L380.456,215.29L334.827,215.29ZM575.082,262.937L599.24,262.937C614.675,262.937 626.766,264.953 633.477,268.98C639.518,272.336 642.863,279.052 642.863,287.777C642.863,296.501 639.518,303.213 633.477,307.91C626.766,313.279 616.699,315.29 603.277,315.29L575.082,315.29L575.082,262.937ZM356.298,289.782L386.498,368.98L325.429,368.98L356.298,289.782ZM575.082,365.624L605.282,365.624C622.06,365.624 634.809,367.638 642.863,372.336C649.574,376.362 652.93,383.737 652.93,394.475C652.93,401.186 651.59,406.558 648.905,410.585C645.55,414.611 642.199,417.97 637.502,419.983C632.804,421.996 626.761,424.004 621.392,424.676C614.681,426.018 608.646,426.026 603.277,426.026L575.082,426.026L575.082,365.624Z" style="fill:rgb(21,80,75);fill-rule:nonzero;"/>
                    <path id="path15" d="M974.401,13.953C954.938,13.953 938.839,30.065 938.839,49.528C938.839,68.99 954.938,85.089 974.401,85.089C993.863,85.089 1009.98,68.99 1009.98,49.528C1009.98,30.065 993.863,13.953 974.401,13.953ZM868.371,19.996C852.264,19.996 838.839,33.421 838.839,49.528C838.839,65.635 852.264,79.047 868.371,79.047C884.478,79.047 897.89,65.635 897.89,49.528C897.89,33.421 884.478,19.996 868.371,19.996ZM664.347,26.038C651.595,26.038 640.857,36.776 640.857,49.528C640.857,62.279 651.595,73.017 664.347,73.017C677.098,73.017 687.836,62.279 687.836,49.528C687.836,36.776 677.098,26.038 664.347,26.038ZM766.352,29.394C754.943,29.394 746.218,38.119 746.218,49.528C746.218,60.937 755.614,69.661 766.352,69.661C777.761,69.661 786.486,60.937 786.486,49.528C786.486,38.119 777.761,29.394 766.352,29.394ZM562.328,33.418C553.603,33.418 546.231,40.803 546.231,49.528C546.231,58.252 553.603,65.624 562.328,65.624C571.052,65.624 578.437,58.252 578.437,49.528C578.437,40.803 571.052,33.418 562.328,33.418ZM766.352,122.001C750.245,122.001 736.82,135.426 736.82,151.533C736.82,167.64 750.245,181.065 766.352,181.065C782.459,181.065 795.884,167.64 795.884,151.533C795.884,135.426 782.459,122.001 766.352,122.001ZM974.401,122.001C958.294,122.001 944.869,135.426 944.869,151.533C944.869,167.64 958.294,181.065 974.401,181.065C990.508,181.065 1003.93,167.64 1003.93,151.533C1003.93,135.426 990.508,122.001 974.401,122.001ZM873.732,126.025C859.638,126.025 848.237,137.44 848.237,151.533C848.237,165.627 859.638,177.041 873.732,177.041C887.826,177.041 899.24,165.627 899.24,151.533C899.24,137.44 887.826,126.025 873.732,126.025ZM664.347,135.424C655.622,135.424 648.237,142.809 648.237,151.533C648.237,160.258 655.622,167.643 664.347,167.643C673.071,167.643 680.456,160.258 680.456,151.533C680.456,142.809 673.071,135.424 664.347,135.424ZM562.328,139.448C555.617,139.448 550.255,144.822 550.255,151.533C550.255,158.245 555.617,163.619 562.328,163.619C569.039,163.619 574.413,158.245 574.413,151.533C574.413,144.822 569.039,139.448 562.328,139.448ZM869.039,226.694C854.275,226.694 842.194,238.774 842.194,253.539C842.194,268.304 853.604,280.384 869.039,280.384C883.804,280.384 895.884,268.304 895.884,253.539C895.884,238.774 883.804,226.694 869.039,226.694ZM975.069,234.087C964.331,234.087 955.617,242.801 955.617,253.539C955.617,264.277 964.331,273.004 975.069,273.004C985.807,273.004 994.534,264.277 994.534,253.539C994.534,242.801 985.807,234.087 975.069,234.087ZM766.352,237.442C757.628,237.442 750.243,244.814 750.243,253.539C750.243,262.264 757.628,269.649 766.352,269.649C775.077,269.649 782.462,262.264 782.462,253.539C782.462,244.814 775.077,237.442 766.352,237.442ZM974.401,332.068C961.649,332.068 950.911,342.806 950.911,355.558C950.911,368.98 961.649,379.047 974.401,379.047C987.152,379.047 997.89,368.309 997.89,355.558C997.89,342.806 987.152,332.068 974.401,332.068ZM868.371,339.448C859.646,339.448 852.261,346.833 852.261,355.558C852.261,364.282 859.646,371.667 868.371,371.667C877.096,371.667 884.467,364.282 884.467,355.558C884.467,346.833 877.096,339.448 868.371,339.448ZM766.352,343.472C759.641,343.472 754.28,348.846 754.28,355.558C754.28,362.269 759.641,367.63 766.352,367.63C773.063,367.63 778.438,362.269 778.438,355.558C778.438,348.846 773.063,343.472 766.352,343.472ZM974.401,439.448C965.676,439.448 958.291,446.833 958.291,455.558C958.291,464.282 965.676,471.654 974.401,471.654C983.125,471.654 990.51,464.282 990.51,455.558C990.51,446.833 983.125,439.448 974.401,439.448ZM766.352,443.472C759.641,443.472 754.28,448.847 754.28,455.558C754.28,462.269 759.641,467.63 766.352,467.63C773.063,467.63 778.438,462.269 778.438,455.558C778.438,448.847 773.063,443.472 766.352,443.472ZM868.371,443.472C861.66,443.472 856.285,448.847 856.285,455.558C856.285,462.269 861.66,467.63 868.371,467.63C875.082,467.63 880.443,462.269 880.443,455.558C880.443,448.847 875.082,443.472 868.371,443.472Z" style="fill:rgb(174,204,82);fill-rule:nonzero;"/>
                </g>
            </g>
        </g>
    </g>
</svg>