<?xml version="1.0" encoding="UTF-8" standalone="no"?>
<!DOCTYPE svg PUBLIC "-//W3C//DTD SVG 1.1//EN" "http://www.w3.org/Graphics/SVG/1.1/DTD/svg11.dtd">
<svg width="100%" height="100%" viewBox="0 0 1420 498" version="1.1" xmlns="http://www.w3.org/2000/svg" xmlns:xlink="http://www.w3.org/1999/xlink" xml:space="preserve" xmlns:serif="http://www.serif.com/" style="fill-rule:evenodd;clip-rule:evenodd;stroke-linejoin:round;stroke-miterlimit:2;">
    <g id="Artboard1" transform="matrix(2.84,0,0,1.0231,0,0)">
        <rect x="0" y="0" width="500" height="486.755" style="fill:none;"/>
        <g transform="matrix(1.91045,0,0,5.31503,-71.4585,-134.832)">
            <path d="M287.93,49.334L287.93,51.365L292.14,51.365L292.14,67.128L294.35,67.128L294.35,51.365L298.57,51.365L298.57,49.334L287.93,49.334Z" style="fill:rgb(29,29,27);fill-rule:nonzero;stroke:rgb(29,29,27);stroke-width:0.18px;"/>
        </g>
        <g transform="matrix(1.91045,0,0,5.31503,-71.4585,-134.832)">
            <path d="M273.08,49.334L262.44,49.334L262.44,51.365L266.66,51.365L266.66,67.128L268.87,67.128L268.87,51.365L273.08,51.365L273.08,49.334Z" style="fill:rgb(29,29,27);fill-rule:nonzero;stroke:rgb(29,29,27);stroke-width:0.18px;"/>
        </g>
        <g transform="matrix(1.91045,0,0,5.31503,-71.4585,-134.832)">
            <rect x="257.11" y="49.334" width="2.213" height="17.794" style="fill:rgb(29,29,27);stroke:rgb(29,29,27);stroke-width:0.18px;"/>
        </g>
        <g transform="matrix(1.91045,0,0,5.31503,-71.4585,-134.832)">
            <path d="M248.66,56.604L247.389,56.108C246.282,55.683 244.917,54.953 244.917,53.559C244.917,52 246.471,51.035 247.883,51.035C249.225,51.035 250.072,51.599 250.732,52.709L252.497,51.647C251.532,49.923 249.909,48.957 247.931,48.957C245.247,48.957 242.703,50.68 242.703,53.559C242.703,56.037 244.541,57.195 246.564,58.066L247.789,58.585C249.319,59.223 250.849,60.049 250.849,61.96C250.849,63.825 249.484,65.429 247.577,65.429C245.671,65.429 244.116,64.013 244.139,62.055L241.903,62.529C242.281,65.382 244.517,67.506 247.388,67.506C250.567,67.506 253.062,65.195 253.062,61.96C253.062,58.987 251.178,57.595 248.66,56.604Z" style="fill:rgb(29,29,27);fill-rule:nonzero;stroke:rgb(29,29,27);stroke-width:0.18px;"/>
        </g>
        <g transform="matrix(1.91045,0,0,5.31503,-71.4585,-134.832)">
            <path d="M224.38,65.1L217.06,65.1L217.06,58.374L224.17,58.374L224.17,56.345L217.06,56.345L217.06,51.365L224.38,51.365L224.38,49.334L214.85,49.334L214.85,67.128L224.38,67.128L224.38,65.1Z" style="fill:rgb(29,29,27);fill-rule:nonzero;stroke:rgb(29,29,27);stroke-width:0.18px;"/>
        </g>
        <g transform="matrix(1.91045,0,0,5.31503,-71.4585,-134.832)">
            <path d="M212.55,49.334L210.13,49.334L204.85,62.504L199.56,49.334L197.13,49.334L204.85,68.074L212.55,49.334Z" style="fill:rgb(29,29,27);fill-rule:nonzero;stroke:rgb(29,29,27);stroke-width:0.18px;"/>
        </g>
        <g transform="matrix(1.91045,0,0,5.31503,-71.4585,-134.832)">
            <rect x="192.61" y="49.334" width="2.213" height="17.794" style="fill:rgb(29,29,27);stroke:rgb(29,29,27);stroke-width:0.18px;"/>
        </g>
        <g transform="matrix(1.91045,0,0,5.31503,-71.4585,-134.832)">
            <path d="M174.45,53.867L187.77,67.861L187.77,49.334L185.56,49.334L185.56,62.48L172.23,48.485L172.23,67.128L174.45,67.128L174.45,53.867Z" style="fill:rgb(29,29,27);fill-rule:nonzero;stroke:rgb(29,29,27);stroke-width:0.18px;"/>
        </g>
        <g transform="matrix(1.91045,0,0,5.31503,-71.4585,-134.832)">
            <path d="M161.73,67.507C165.803,67.507 168.227,64.51 168.227,60.592L168.227,49.334L166.014,49.334L166.014,59.838C166.014,62.739 165.143,65.43 161.73,65.43C158.316,65.43 157.445,62.739 157.445,59.838L157.445,49.334L155.232,49.334L155.232,60.592C155.232,64.51 157.657,67.507 161.73,67.507Z" style="fill:rgb(29,29,27);fill-rule:nonzero;stroke:rgb(29,29,27);stroke-width:0.18px;"/>
        </g>
        <g transform="matrix(1.91045,0,0,5.31503,-71.4585,-134.832)">
            <path d="M238.77,54.41C238.77,52.71 237.922,51.035 236.439,50.16C235.027,49.36 233.332,49.334 231.754,49.334L229.071,49.334L229.071,67.128L231.284,67.128L231.284,59.601L232.202,59.601L237.427,67.128L240.112,67.128L234.509,59.39C237.076,59.082 238.77,56.957 238.77,54.41L238.77,54.41ZM231.989,57.761L231.284,57.761L231.284,51.318L231.872,51.318C234.061,51.318 236.699,51.718 236.699,54.504C236.699,57.336 234.251,57.761 231.989,57.761Z" style="fill:rgb(29,29,27);fill-rule:nonzero;stroke:rgb(29,29,27);stroke-width:0.18px;"/>
        </g>
        <g transform="matrix(1.91045,0,0,5.31503,-71.4585,-134.832)">
            <path d="M283.98,52.046C284.758,52.046 285.393,51.409 285.393,50.608C285.393,49.828 284.758,49.192 283.98,49.192C283.18,49.192 282.545,49.828 282.545,50.608C282.545,51.409 283.18,52.046 283.98,52.046Z" style="fill:rgb(29,29,27);fill-rule:nonzero;stroke:rgb(29,29,27);stroke-width:0.18px;"/>
        </g>
        <g transform="matrix(1.91045,0,0,5.31503,-71.4585,-134.832)">
            <path d="M272.02,67.128L274.397,67.128L276.422,62.669L284.566,62.669L286.591,67.128L288.97,67.128L280.493,48.581L272.02,67.128ZM277.34,60.639L280.493,53.442L283.649,60.639L277.34,60.639Z" style="fill:rgb(29,29,27);fill-rule:nonzero;stroke:rgb(29,29,27);stroke-width:0.18px;"/>
        </g>
        <g transform="matrix(1.91045,0,0,5.31503,-71.4585,-134.832)">
            <path d="M277,52.046C277.802,52.046 278.437,51.409 278.437,50.608C278.437,49.828 277.802,49.192 277,49.192C276.223,49.192 275.587,49.828 275.587,50.608C275.587,51.409 276.223,52.046 277,52.046Z" style="fill:rgb(29,29,27);fill-rule:nonzero;stroke:rgb(29,29,27);stroke-width:0.18px;"/>
        </g>
        <g transform="matrix(1.91045,0,0,5.31503,-71.4585,-134.832)">
            <path d="M157.44,75.659L155.23,75.659L155.23,93.453L162.83,93.453L162.83,91.424L157.44,91.424L157.44,75.659Z" style="fill:rgb(29,29,27);fill-rule:nonzero;stroke:rgb(29,29,27);stroke-width:0.18px;"/>
        </g>
        <g transform="matrix(1.91045,0,0,5.31503,-71.4585,-134.832)">
            <path d="M227.44,86.515L232.031,86.515C231.937,89.418 228.972,91.802 226.216,91.802C222.38,91.802 219.319,88.262 219.319,84.534C219.319,80.545 222.427,77.311 226.405,77.311C228.572,77.311 230.713,78.467 231.984,80.215L233.538,78.727C231.797,76.534 229.066,75.282 226.311,75.282C221.202,75.282 217.106,79.482 217.106,84.604C217.106,89.536 221.108,93.831 226.076,93.831C231.044,93.831 234.479,90.08 234.479,85.194L234.479,84.486L227.44,84.486L227.44,86.515Z" style="fill:rgb(29,29,27);fill-rule:nonzero;stroke:rgb(29,29,27);stroke-width:0.18px;"/>
        </g>
        <g transform="matrix(1.91045,0,0,5.31503,-71.4585,-134.832)">
            <rect x="211.78" y="75.659" width="2.213" height="17.794" style="fill:rgb(29,29,27);stroke:rgb(29,29,27);stroke-width:0.18px;"/>
        </g>
        <g transform="matrix(1.91045,0,0,5.31503,-71.4585,-134.832)">
            <path d="M197.42,75.858L197.42,77.89L205.14,77.89L196.15,93.653L208.75,93.653L208.75,91.623L199.75,91.623L208.75,75.858L197.42,75.858Z" style="fill:rgb(29,29,27);fill-rule:nonzero;stroke:rgb(29,29,27);stroke-width:0.18px;"/>
        </g>
        <g transform="matrix(1.91045,0,0,5.31503,-71.4585,-134.832)">
            <rect x="178.88" y="75.659" width="2.214" height="17.794" style="fill:rgb(29,29,27);stroke:rgb(29,29,27);stroke-width:0.18px;"/>
        </g>
        <g transform="matrix(1.91045,0,0,5.31503,-71.4585,-134.832)">
            <path d="M165.04,93.453L174.58,93.453L174.58,91.424L167.26,91.424L167.26,84.699L174.36,84.699L174.36,82.669L167.26,82.669L167.26,77.688L174.58,77.688L174.58,75.659L165.04,75.659L165.04,93.453Z" style="fill:rgb(29,29,27);fill-rule:nonzero;stroke:rgb(29,29,27);stroke-width:0.18px;"/>
        </g>
        <g transform="matrix(1.91045,0,0,5.31503,-71.4585,-134.832)">
            <path d="M188.55,75.659L186.007,75.659L186.007,93.453L188.219,93.453L188.219,85.996L189.49,85.996C192.857,85.996 195.706,84.557 195.706,80.804C195.706,77.547 194.011,75.659 188.55,75.659ZM188.927,84.014L188.219,84.014L188.219,77.642L188.809,77.642C190.998,77.642 193.634,77.973 193.634,80.758C193.634,83.589 191.185,84.014 188.927,84.014Z" style="fill:rgb(29,29,27);fill-rule:nonzero;stroke:rgb(29,29,27);stroke-width:0.18px;"/>
        </g>
        <g transform="matrix(1.91045,0,0,5.31503,-71.4585,-134.832)">
            <rect x="141.94" y="25.552" width="0.521" height="91.213" style="fill:rgb(29,29,27);stroke:rgb(29,29,27);stroke-width:0.18px;"/>
        </g>
        <g transform="matrix(1.91045,0,0,5.31503,-71.4585,-134.832)">
            <path d="M83.563,25.552C58.416,25.552 37.957,46.012 37.957,71.158C37.957,96.304 58.417,116.765 83.563,116.765C108.711,116.765 129.169,96.304 129.169,71.158C129.169,46.012 108.71,25.552 83.563,25.552ZM83.563,116.239C58.706,116.239 38.484,96.015 38.484,71.158C38.484,46.301 58.706,26.079 83.563,26.079C108.42,26.079 128.644,46.301 128.644,71.158C128.644,96.015 108.421,116.239 83.563,116.239Z" style="fill:rgb(29,29,27);fill-rule:nonzero;stroke:rgb(29,29,27);stroke-width:0.18px;"/>
        </g>
        <g transform="matrix(1.91045,0,0,5.31503,-71.4585,-134.832)">
            <path d="M72.371,57.684C72.38,57.69 72.554,57.763 72.559,57.763C72.57,57.763 72.663,57.808 72.673,57.809C72.758,57.784 72.792,57.704 72.836,57.618C72.839,57.614 73.077,57.211 73.253,56.896C73.354,56.713 73.499,56.526 73.82,56.614C73.923,56.639 74.109,56.706 74.25,56.761C74.257,56.743 74.265,56.726 74.277,56.709C74.299,56.682 74.319,56.655 74.335,56.622C74.335,56.622 74.354,56.581 74.358,56.576C74.375,56.53 74.389,56.485 74.403,56.436C74.382,56.409 74.37,56.374 74.362,56.34C74.324,56.323 74.294,56.293 74.272,56.261C74.211,56.241 74.153,56.219 74.099,56.197C73.612,55.996 73.12,56.164 72.857,56.636C72.724,56.877 72.455,57.222 72.373,57.387C72.323,57.485 72.284,57.612 72.371,57.684Z" style="fill:rgb(29,29,27);fill-rule:nonzero;stroke:rgb(29,29,27);stroke-width:0.18px;"/>
        </g>
        <g transform="matrix(1.91045,0,0,5.31503,-71.4585,-134.832)">
            <path d="M72.098,56.574C72.234,56.606 72.363,56.488 72.391,56.429C72.417,56.37 72.354,56.228 72.327,56.174C72.3,56.122 72.241,56.076 72.138,56.04C72.035,56.005 71.931,56.043 71.931,56.043C71.931,56.043 71.765,56.103 71.725,56.174C71.684,56.248 71.74,56.362 71.796,56.432C71.854,56.504 71.961,56.541 72.098,56.574Z" style="fill:rgb(29,29,27);fill-rule:nonzero;stroke:rgb(29,29,27);stroke-width:0.18px;"/>
        </g>
        <g transform="matrix(1.91045,0,0,5.31503,-71.4585,-134.832)">
            <path d="M72.02,58.106C71.904,58.021 71.784,58.134 71.784,58.134C71.784,58.134 71.726,58.216 71.726,58.334C71.726,58.451 71.723,58.662 72.23,58.783C72.422,58.83 72.53,58.782 72.593,58.626C72.727,58.286 72.27,58.289 72.02,58.106Z" style="fill:rgb(29,29,27);fill-rule:nonzero;stroke:rgb(29,29,27);stroke-width:0.18px;"/>
        </g>
        <g transform="matrix(1.91045,0,0,5.31503,-71.4585,-134.832)">
            <path d="M95.099,56.902C95.271,56.922 95.414,56.759 95.439,56.681C95.464,56.606 95.366,56.44 95.326,56.379C95.285,56.316 95.206,56.267 95.074,56.24C94.94,56.209 94.818,56.271 94.818,56.271C94.818,56.271 94.623,56.368 94.583,56.464C94.542,56.559 94.626,56.692 94.708,56.772C94.788,56.849 94.926,56.882 95.099,56.902Z" style="fill:rgb(29,29,27);fill-rule:nonzero;stroke:rgb(29,29,27);stroke-width:0.18px;"/>
        </g>
        <g transform="matrix(1.91045,0,0,5.31503,-71.4585,-134.832)">
            <path d="M99.857,68.547C99.982,68.56 100.084,68.444 100.104,68.388C100.121,68.333 100.05,68.213 100.022,68.17C99.991,68.126 99.936,68.092 99.84,68.07C99.744,68.047 99.656,68.093 99.656,68.093C99.656,68.093 99.514,68.162 99.485,68.232C99.457,68.301 99.518,68.397 99.576,68.453C99.633,68.509 99.733,68.532 99.857,68.547Z" style="fill:rgb(29,29,27);fill-rule:nonzero;stroke:rgb(29,29,27);stroke-width:0.18px;"/>
        </g>
        <g transform="matrix(1.91045,0,0,5.31503,-71.4585,-134.832)">
            <path d="M92.595,56.256C92.535,56.213 92.445,56.196 92.311,56.215C92.177,56.232 92.082,56.33 92.082,56.33C92.082,56.33 91.934,56.491 91.929,56.595C91.924,56.697 92.049,56.794 92.153,56.84C92.255,56.885 92.395,56.866 92.565,56.825C92.734,56.786 92.81,56.581 92.808,56.502C92.804,56.422 92.656,56.301 92.595,56.256Z" style="fill:rgb(29,29,27);fill-rule:nonzero;stroke:rgb(29,29,27);stroke-width:0.18px;"/>
        </g>
        <g transform="matrix(1.91045,0,0,5.31503,-71.4585,-134.832)">
            <path d="M74.098,57.168C73.991,57.143 73.893,57.193 73.893,57.193C73.893,57.193 73.734,57.272 73.703,57.35C73.67,57.427 73.737,57.532 73.804,57.597C73.867,57.66 73.978,57.687 74.119,57.702C74.258,57.719 74.371,57.586 74.393,57.524C74.413,57.462 74.333,57.329 74.301,57.279C74.267,57.23 74.205,57.192 74.098,57.168Z" style="fill:rgb(29,29,27);fill-rule:nonzero;stroke:rgb(29,29,27);stroke-width:0.18px;"/>
        </g>
        <g transform="matrix(1.91045,0,0,5.31503,-71.4585,-134.832)">
            <path d="M54.85,94.127L53.219,94.488L51.875,92.607L52.754,91.193L52.365,90.65L49.164,95.93L55.234,94.664L54.85,94.127ZM50.319,95.123L51.557,93.125L52.621,94.615L50.319,95.123Z" style="fill:rgb(29,29,27);fill-rule:nonzero;stroke:rgb(29,29,27);stroke-width:0.18px;"/>
        </g>
        <g transform="matrix(1.91045,0,0,5.31503,-71.4585,-134.832)">
            <path d="M50.605,87.309L50.111,87.57L50.806,88.892L46.51,91.153L46.792,91.688L51.582,89.164L50.605,87.309Z" style="fill:rgb(29,29,27);fill-rule:nonzero;stroke:rgb(29,29,27);stroke-width:0.18px;"/>
        </g>
        <g transform="matrix(1.91045,0,0,5.31503,-71.4585,-134.832)">
            <path d="M50.035,86.323L49.832,85.74L46.144,86.284L46.139,86.27L49.238,83.354L44.996,82.98L44.992,82.966L48.223,81.107L48.02,80.524L42.974,83.438L47.916,83.813L44.267,87.162L50.035,86.323Z" style="fill:rgb(29,29,27);fill-rule:nonzero;stroke:rgb(29,29,27);stroke-width:0.18px;"/>
        </g>
        <g transform="matrix(1.91045,0,0,5.31503,-71.4585,-134.832)">
            <path d="M47.682,78.666L46.064,78.25L45.718,75.964L47.14,75.102L47.041,74.441L41.797,77.698L47.781,79.318L47.682,78.666ZM43.19,77.501L45.2,76.283L45.473,78.093L43.19,77.501Z" style="fill:rgb(29,29,27);fill-rule:nonzero;stroke:rgb(29,29,27);stroke-width:0.18px;"/>
        </g>
        <g transform="matrix(1.91045,0,0,5.31503,-71.4585,-134.832)">
            <path d="M46.868,71.66L46.915,71.046L43.314,70.075L43.316,70.06L47.321,68.621L43.579,66.587L43.58,66.573L47.284,66.155L47.331,65.539L41.54,66.202L45.925,68.516L41.243,70.135L46.868,71.66Z" style="fill:rgb(29,29,27);fill-rule:nonzero;stroke:rgb(29,29,27);stroke-width:0.18px;"/>
        </g>
        <g transform="matrix(1.91045,0,0,5.31503,-71.4585,-134.832)">
            <path d="M47.621,64.387L46.286,63.385L46.839,61.139L48.483,60.886L48.643,60.24L42.553,61.244L47.463,65.028L47.621,64.387ZM45.8,63.014L43.916,61.595L46.238,61.235L45.8,63.014Z" style="fill:rgb(29,29,27);fill-rule:nonzero;stroke:rgb(29,29,27);stroke-width:0.18px;"/>
        </g>
        <g transform="matrix(1.91045,0,0,5.31503,-71.4585,-134.832)">
            <path d="M44.841,56.662L49.365,58.424L49.583,57.861L45.06,56.099L45.54,54.869L45.018,54.663L43.844,57.676L44.366,57.88L44.841,56.662Z" style="fill:rgb(29,29,27);fill-rule:nonzero;stroke:rgb(29,29,27);stroke-width:0.18px;"/>
        </g>
        <g transform="matrix(1.91045,0,0,5.31503,-71.4585,-134.832)">
            <path d="M52.149,52.621L51.657,52.354L50.6,54.287L48.734,53.268L49.762,51.389L49.27,51.12L48.243,52.998L46.832,52.226L47.891,50.292L47.399,50.022L46.051,52.486L50.801,55.085L52.149,52.621Z" style="fill:rgb(29,29,27);fill-rule:nonzero;stroke:rgb(29,29,27);stroke-width:0.18px;"/>
        </g>
        <g transform="matrix(1.91045,0,0,5.31503,-71.4585,-134.832)">
            <path d="M53.727,50.26L51.8,48.866L51.888,48.745L54.774,48.809L55.207,48.209L52.235,48.19C52.448,47.83 52.517,47.472 52.44,47.115C52.364,46.76 52.157,46.459 51.819,46.215C51.322,45.857 50.878,45.785 50.485,46.001C50.094,46.217 49.746,46.531 49.441,46.944L48.984,47.579L53.374,50.748L53.727,50.26ZM51.49,48.401C51.488,48.403 51.485,48.404 51.478,48.405L51.369,48.557L49.792,47.417L49.896,47.273C50.109,46.977 50.338,46.747 50.585,46.581C50.832,46.417 51.136,46.466 51.498,46.728C51.837,46.974 51.971,47.244 51.898,47.539C51.827,47.836 51.693,48.121 51.496,48.392C51.495,48.397 51.492,48.4 51.49,48.401Z" style="fill:rgb(29,29,27);fill-rule:nonzero;stroke:rgb(29,29,27);stroke-width:0.18px;"/>
        </g>
        <g transform="matrix(1.91045,0,0,5.31503,-71.4585,-134.832)">
            <path d="M113.98,51.024L114.43,50.696L113.56,49.485L117.49,46.642L117.14,46.153L112.75,49.324L113.98,51.024Z" style="fill:rgb(29,29,27);fill-rule:nonzero;stroke:rgb(29,29,27);stroke-width:0.18px;"/>
        </g>
        <g transform="matrix(1.65674,-2.64689,0.951403,4.6092,-90.9145,213.132)">
            <rect x="114.92" y="51.524" width="5.414" height="0.604" style="fill:rgb(29,29,27);stroke:rgb(29,29,27);stroke-width:0.18px;"/>
        </g>
        <g transform="matrix(1.91045,0,0,5.31503,-71.4585,-134.832)">
            <path d="M117.04,56.628L119.226,55.713L119.395,56.115C119.406,56.143 119.417,56.17 119.429,56.195C119.439,56.221 119.451,56.249 119.461,56.276C119.546,56.453 119.648,56.622 119.767,56.781C119.886,56.943 120.037,57.071 120.222,57.164C120.408,57.262 120.608,57.315 120.822,57.318C121.036,57.321 121.241,57.287 121.439,57.215C121.449,57.211 121.456,57.207 121.465,57.202C121.475,57.199 121.483,57.195 121.492,57.192C121.711,57.1 121.905,56.964 122.07,56.783C122.235,56.602 122.342,56.392 122.392,56.153C122.433,55.954 122.433,55.757 122.39,55.563C122.347,55.367 122.289,55.176 122.216,54.989C122.203,54.957 122.19,54.928 122.177,54.897C122.164,54.864 122.154,54.832 122.144,54.802L121.8,53.98L116.806,56.072L117.04,56.628ZM121.518,54.75L121.603,54.957C121.605,54.961 121.606,54.965 121.608,54.968C121.608,54.97 121.61,54.972 121.612,54.978C121.746,55.3 121.825,55.613 121.845,55.919C121.867,56.226 121.675,56.461 121.272,56.63C120.914,56.781 120.626,56.768 120.41,56.595C120.193,56.419 120.023,56.179 119.897,55.868L119.742,55.495L121.518,54.75Z" style="fill:rgb(29,29,27);fill-rule:nonzero;stroke:rgb(29,29,27);stroke-width:0.18px;"/>
        </g>
        <g transform="matrix(1.91045,0,0,5.31503,-71.4585,-134.832)">
            <path d="M121.83,60.313C121.698,60.589 121.606,60.898 121.551,61.239L121.488,61.596C121.486,61.607 121.485,61.616 121.484,61.623C121.483,61.632 121.482,61.64 121.48,61.652C121.435,61.916 121.367,62.158 121.277,62.382C121.186,62.605 120.994,62.756 120.697,62.833C120.4,62.91 120.127,62.865 119.878,62.697C119.63,62.529 119.469,62.304 119.395,62.021C119.321,61.739 119.355,61.477 119.496,61.238C119.637,60.999 119.839,60.825 120.102,60.717L119.788,60.189C119.401,60.379 119.124,60.652 118.954,61.009C118.785,61.363 118.754,61.753 118.863,62.174C118.981,62.629 119.236,62.976 119.628,63.218C120.02,63.461 120.445,63.522 120.904,63.403C121.321,63.295 121.602,63.088 121.745,62.789C121.89,62.486 121.994,62.143 122.058,61.76L122.113,61.374C122.119,61.338 122.125,61.3 122.131,61.259C122.138,61.217 122.146,61.177 122.154,61.134C122.19,60.966 122.248,60.804 122.329,60.647C122.409,60.49 122.54,60.388 122.721,60.34C122.962,60.279 123.18,60.315 123.376,60.449C123.571,60.585 123.699,60.767 123.759,60.999C123.817,61.222 123.814,61.416 123.751,61.582C123.687,61.746 123.58,61.902 123.431,62.048L123.847,62.435C124.069,62.228 124.219,61.99 124.299,61.72C124.379,61.447 124.381,61.165 124.305,60.873C124.203,60.482 123.995,60.172 123.678,59.941C123.359,59.709 122.997,59.646 122.589,59.752C122.214,59.85 121.961,60.037 121.83,60.313Z" style="fill:rgb(29,29,27);fill-rule:nonzero;stroke:rgb(29,29,27);stroke-width:0.18px;"/>
        </g>
        <g transform="matrix(1.91045,0,0,5.31503,-71.4585,-134.832)">
            <path d="M123.85,62.438L123.84,62.436L123.84,62.439L123.85,62.438Z" style="fill:rgb(29,29,27);fill-rule:nonzero;stroke:rgb(29,29,27);stroke-width:0.18px;"/>
        </g>
        <g transform="matrix(1.8944,-0.685639,0.246448,5.27039,-85.8491,-47.8996)">
            <rect x="119.81" y="66.036" width="5.414" height="0.603" style="fill:rgb(29,29,27);stroke:rgb(29,29,27);stroke-width:0.18px;"/>
        </g>
        <g transform="matrix(1.91045,0,0,5.31503,-71.4585,-134.832)">
            <path d="M120.15,72.605L120.71,72.602L120.69,70.396L122.82,70.382L122.83,72.522L123.39,72.518L123.38,70.377L124.99,70.367L125,72.571L125.56,72.567L125.54,69.76L120.13,69.797L120.15,72.605Z" style="fill:rgb(29,29,27);fill-rule:nonzero;stroke:rgb(29,29,27);stroke-width:0.18px;"/>
        </g>
        <g transform="matrix(1.91045,0,0,5.31503,-71.4585,-134.832)">
            <path d="M119.96,75.749L119.85,76.342L123.96,77.104L118.84,80.447L124.4,81.484L124.51,80.891L120.39,80.124L125.51,76.781L119.96,75.749Z" style="fill:rgb(29,29,27);fill-rule:nonzero;stroke:rgb(29,29,27);stroke-width:0.18px;"/>
        </g>
        <g transform="matrix(1.91045,0,0,5.31503,-71.4585,-134.832)">
            <path d="M122.13,84.503C121.766,84.365 121.452,84.371 121.186,84.521C120.918,84.67 120.664,84.867 120.421,85.114L120.163,85.369C120.155,85.375 120.149,85.383 120.145,85.388C120.139,85.394 120.132,85.401 120.125,85.408C119.936,85.598 119.739,85.757 119.536,85.886C119.333,86.017 119.087,86.027 118.802,85.918C118.515,85.811 118.32,85.615 118.214,85.334C118.108,85.053 118.107,84.776 118.211,84.504C118.315,84.231 118.493,84.037 118.746,83.923C119,83.809 119.265,83.785 119.542,83.85L119.591,83.237C119.167,83.17 118.782,83.231 118.438,83.42C118.092,83.612 117.843,83.913 117.689,84.32C117.522,84.757 117.528,85.19 117.707,85.614C117.887,86.038 118.197,86.335 118.641,86.504C119.044,86.657 119.392,86.652 119.684,86.489C119.976,86.326 120.259,86.107 120.533,85.832L120.801,85.551C120.826,85.524 120.854,85.495 120.883,85.466C120.913,85.436 120.943,85.406 120.975,85.376C121.101,85.262 121.241,85.163 121.398,85.08C121.555,85 121.72,84.993 121.895,85.059C122.127,85.148 122.284,85.303 122.366,85.526C122.447,85.748 122.446,85.973 122.362,86.197C122.279,86.412 122.164,86.568 122.017,86.666C121.87,86.762 121.693,86.828 121.486,86.863L121.602,87.417C121.901,87.379 122.161,87.273 122.383,87.097C122.607,86.921 122.773,86.692 122.88,86.408C123.022,86.033 123.03,85.659 122.907,85.287C122.782,84.914 122.523,84.652 122.13,84.503Z" style="fill:rgb(29,29,27);fill-rule:nonzero;stroke:rgb(29,29,27);stroke-width:0.18px;"/>
        </g>
        <g transform="matrix(1.91045,0,0,5.31503,-71.4585,-134.832)">
            <path d="M121.6,87.422L121.6,87.417L121.6,87.422Z" style="fill:rgb(29,29,27);fill-rule:nonzero;stroke:rgb(29,29,27);stroke-width:0.18px;"/>
        </g>
        <g transform="matrix(0.878615,-4.71975,1.69648,2.44438,-100.944,680.972)">
            <rect x="118.16" y="86.727" width="0.604" height="5.415" style="fill:rgb(29,29,27);stroke:rgb(29,29,27);stroke-width:0.18px;"/>
        </g>
        <g transform="matrix(1.91045,0,0,5.31503,-71.4585,-134.832)">
            <path d="M116.99,95.602L116.99,95.6L116.98,95.6L116.99,95.602Z" style="fill:rgb(29,29,27);fill-rule:nonzero;stroke:rgb(29,29,27);stroke-width:0.18px;"/>
        </g>
        <g transform="matrix(1.91045,0,0,5.31503,-71.4585,-134.832)">
            <path d="M118.16,92.88C117.838,92.663 117.531,92.598 117.237,92.682C116.943,92.768 116.65,92.902 116.359,93.088L116.05,93.277C116.04,93.282 116.033,93.289 116.027,93.293C116.02,93.297 116.013,93.303 116.004,93.308C115.776,93.448 115.549,93.559 115.322,93.64C115.094,93.722 114.853,93.676 114.599,93.505C114.344,93.333 114.198,93.1 114.158,92.803C114.119,92.506 114.18,92.234 114.344,91.991C114.507,91.75 114.724,91.602 114.997,91.55C115.269,91.494 115.534,91.531 115.789,91.657L115.975,91.072C115.577,90.909 115.188,90.882 114.81,90.99C114.432,91.099 114.12,91.335 113.877,91.695C113.615,92.085 113.523,92.508 113.602,92.961C113.681,93.414 113.917,93.773 114.31,94.037C114.667,94.278 115.007,94.352 115.329,94.26C115.65,94.168 115.976,94.018 116.304,93.813L116.629,93.598C116.661,93.578 116.694,93.557 116.729,93.535C116.765,93.512 116.801,93.49 116.837,93.471C116.986,93.385 117.146,93.32 117.317,93.277C117.488,93.234 117.651,93.263 117.807,93.368C118.013,93.507 118.13,93.693 118.159,93.932C118.188,94.166 118.136,94.384 118.003,94.582C117.874,94.774 117.727,94.899 117.561,94.961C117.396,95.024 117.209,95.047 116.999,95.032L116.987,95.6C117.287,95.629 117.565,95.584 117.821,95.463C118.079,95.344 118.291,95.157 118.459,94.906C118.684,94.572 118.778,94.21 118.741,93.818C118.703,93.429 118.51,93.115 118.16,92.88Z" style="fill:rgb(29,29,27);fill-rule:nonzero;stroke:rgb(29,29,27);stroke-width:0.18px;"/>
        </g>
        <g transform="matrix(1.91045,0,0,5.31503,-71.4585,-134.832)">
            <path d="M55.512,43.902C55.755,43.902 55.951,43.706 55.951,43.463C55.951,43.219 55.755,43.022 55.512,43.022C55.269,43.022 55.073,43.219 55.073,43.463C55.073,43.706 55.269,43.902 55.512,43.902Z" style="fill:rgb(29,29,27);fill-rule:nonzero;stroke:rgb(29,29,27);stroke-width:0.18px;"/>
        </g>
        <g transform="matrix(1.91045,0,0,5.31503,-71.4585,-134.832)">
            <path d="M111.31,43.027C111.066,43.027 110.87,43.224 110.87,43.467C110.87,43.71 111.066,43.906 111.31,43.906C111.552,43.906 111.749,43.71 111.749,43.467C111.749,43.224 111.552,43.027 111.31,43.027Z" style="fill:rgb(29,29,27);fill-rule:nonzero;stroke:rgb(29,29,27);stroke-width:0.18px;"/>
        </g>
        <g transform="matrix(1.91045,0,0,5.31503,-71.4585,-134.832)">
            <path d="M55.647,98.523C55.404,98.523 55.208,98.719 55.208,98.962C55.208,99.207 55.404,99.402 55.647,99.402C55.89,99.402 56.087,99.207 56.087,98.962C56.087,98.719 55.89,98.523 55.647,98.523Z" style="fill:rgb(29,29,27);fill-rule:nonzero;stroke:rgb(29,29,27);stroke-width:0.18px;"/>
        </g>
        <g transform="matrix(1.91045,0,0,5.31503,-71.4585,-134.832)">
            <path d="M111.74,98.37C111.497,98.37 111.301,98.568 111.301,98.81C111.301,99.054 111.497,99.249 111.74,99.249C111.983,99.249 112.18,99.054 112.18,98.81C112.18,98.568 111.983,98.37 111.74,98.37Z" style="fill:rgb(29,29,27);fill-rule:nonzero;stroke:rgb(29,29,27);stroke-width:0.18px;"/>
        </g>
        <g transform="matrix(1.91045,0,0,5.31503,-71.4585,-134.832)">
            <path d="M83.57,27.329C59.404,27.329 39.741,46.991 39.741,71.157C39.741,86.517 47.691,100.05 59.687,107.879L59.914,108.024C66.743,112.422 74.861,114.986 83.57,114.986C107.737,114.986 127.398,95.323 127.398,71.157C127.398,46.991 107.737,27.329 83.57,27.329L83.57,27.329ZM83.617,30.01L84.593,30.01L84.593,29.482L83.617,29.482L83.617,28.158C86.313,28.222 88.713,29.416 89.669,31.153L83.617,31.153L83.617,30.01ZM90.776,31.68L90.776,32.56L75.97,32.56L75.97,31.681L90.776,31.681ZM105.054,49.293L105.054,43.431C113.748,50.075 118.928,60.511 118.928,71.453C118.928,72.959 118.826,74.453 118.635,75.93L115,75.93C115,75.93 114.977,72.129 114.968,69.402L116.979,71.272L117.37,70.854L114.944,68.606C114.942,67.476 114.94,65.024 114.94,65.024C114.991,65.15 115.115,65.24 115.26,65.24C115.452,65.24 115.608,65.085 115.608,64.893C115.608,64.701 115.452,64.545 115.26,64.545C115.115,64.545 114.991,64.635 114.94,64.762L114.94,63.851C114.991,63.977 115.115,64.068 115.26,64.068C115.452,64.068 115.608,63.912 115.608,63.72C115.608,63.528 115.452,63.373 115.26,63.373C115.115,63.373 114.991,63.462 114.94,63.589L114.94,62.678C114.991,62.806 115.115,62.895 115.26,62.895C115.452,62.895 115.608,62.738 115.608,62.546C115.608,62.356 115.452,62.199 115.26,62.199C115.115,62.199 114.991,62.289 114.94,62.416L114.94,62.025L114.812,62.025C114.923,61.968 115.001,61.855 115.001,61.721C115.001,61.528 114.845,61.373 114.653,61.373C114.461,61.373 114.305,61.528 114.305,61.721C114.305,61.855 114.383,61.968 114.493,62.025L114.366,62.025L114.366,62.382C114.307,62.276 114.197,62.199 114.066,62.199C113.874,62.199 113.718,62.356 113.718,62.546C113.718,62.738 113.874,62.895 114.066,62.895C114.197,62.895 114.307,62.819 114.366,62.712L114.366,63.555C114.307,63.448 114.197,63.373 114.066,63.373C113.874,63.373 113.718,63.528 113.718,63.72C113.718,63.912 113.874,64.068 114.066,64.068C114.197,64.068 114.307,63.991 114.366,63.886L114.366,64.728C114.307,64.621 114.197,64.545 114.066,64.545C113.874,64.545 113.718,64.701 113.718,64.893C113.718,65.085 113.874,65.24 114.066,65.24C114.197,65.24 114.307,65.166 114.366,65.057L114.366,68.449L111.35,68.458C111.349,68.386 111.313,57.226 111.313,57.226C111.365,57.352 111.489,57.443 111.634,57.443C111.825,57.443 111.981,57.286 111.981,57.094C111.981,56.903 111.825,56.748 111.634,56.748C111.489,56.748 111.365,56.836 111.313,56.963L111.313,56.053C111.365,56.179 111.489,56.27 111.634,56.27C111.825,56.27 111.981,56.114 111.981,55.921C111.981,55.73 111.825,55.575 111.634,55.575C111.489,55.575 111.365,55.665 111.313,55.791L111.313,54.881C111.365,55.006 111.489,55.096 111.634,55.096C111.825,55.096 111.981,54.942 111.981,54.749C111.981,54.556 111.825,54.402 111.634,54.402C111.489,54.402 111.365,54.492 111.313,54.618L111.313,54.227L111.185,54.227C111.296,54.17 111.373,54.058 111.373,53.923C111.373,53.734 111.218,53.577 111.026,53.577C110.834,53.577 110.678,53.734 110.678,53.923C110.678,54.058 110.756,54.17 110.867,54.227L110.739,54.227L110.739,54.583C110.68,54.477 110.57,54.402 110.439,54.402C110.247,54.402 110.091,54.556 110.091,54.749C110.091,54.942 110.247,55.096 110.439,55.096C110.57,55.096 110.68,55.021 110.739,54.915L110.739,55.756C110.68,55.65 110.57,55.575 110.439,55.575C110.247,55.575 110.091,55.73 110.091,55.921C110.091,56.114 110.247,56.27 110.439,56.27C110.57,56.27 110.68,56.195 110.739,56.086L110.739,56.929C110.68,56.824 110.57,56.748 110.439,56.748C110.247,56.748 110.091,56.903 110.091,57.094C110.091,57.286 110.247,57.443 110.439,57.443C110.57,57.443 110.68,57.367 110.739,57.26L110.739,63.483C109.662,58.578 106.931,54.9 105.054,53.579L105.054,49.823L106.526,49.823L106.526,49.294L105.054,49.294L105.054,49.293ZM104.513,99.165C104.481,99.205 104.445,99.238 104.406,99.269C104.337,99.35 104.254,99.419 104.152,99.468C103.768,99.756 103.193,99.871 102.791,99.913C102.42,99.962 101.974,99.593 101.741,99.355C102.292,98.534 102.131,97.476 102.125,97.438C102.108,97.302 101.685,94.103 101.361,92.59C101.091,91.322 101.307,89.185 101.97,86.566C102.073,86.153 102.17,85.675 102.255,85.144C102.601,82.984 102.714,80.286 102.644,78.843C102.576,77.398 101.791,75.42 101.468,74.661C101.542,74.642 101.616,74.623 101.688,74.601C104.449,77.891 104.489,80.205 104.506,81.459L104.519,99.168C104.518,99.166 104.515,99.166 104.513,99.166L104.513,99.165ZM104.519,99.859L104.519,105.413L103.224,105.41L103.201,100.385C103.758,100.288 104.203,100.109 104.519,99.859ZM96.838,103.948C96.838,103.948 96.806,103.161 96.754,102.8C96.681,102.282 96.538,101.87 96.42,101.592C96.526,101.548 96.627,101.492 96.724,101.41C97.03,101.152 97.172,100.899 97.285,100.697C97.424,100.449 97.507,100.299 97.775,100.194C98.224,100.124 98.548,100.168 98.89,100.216C98.919,100.22 98.948,100.224 98.977,100.228C98.669,100.949 97.95,102.711 97.973,103.403C97.98,103.593 98.024,103.772 98.083,103.948L98.082,103.948C98.082,103.948 98.083,103.949 98.084,103.951C98.138,104.081 98.443,104.714 98.555,104.904C98.751,105.243 98.976,105.623 99.181,106.108C99.285,106.353 99.291,106.554 99.198,106.729C99.01,107.082 98.442,107.264 98.264,107.299C97.754,107.346 97.101,107.312 96.946,107.195C96.819,107.098 96.846,106.454 96.86,106.143C96.87,105.897 96.833,104.082 96.838,103.948ZM78.801,109.892L80.059,108.023L80.333,108.023L80.333,109.892L78.801,109.892ZM80.333,110.383L80.333,111.266C79.699,111.212 79.141,111.187 78.721,111.177C77.562,111.143 76.824,111.264 76.15,111.454L76.15,108.023L79.421,108.023L77.842,110.378L80.333,110.383ZM65.693,107.496L65.697,105.417L64.124,105.413L64.124,104.352L66.675,104.352L66.678,104.367L66.696,104.352L69.108,104.352C68.829,104.746 68.628,105.135 68.569,105.33C68.454,105.709 68.489,106.253 69.308,106.692C69.471,106.781 69.679,106.819 69.903,106.819C70.565,106.819 71.363,106.489 71.562,106.167C71.755,105.856 71.792,105.04 71.71,104.387L72.77,104.387C72.862,104.63 73.025,104.861 73.316,104.973L73.378,104.996C73.609,105.088 73.799,105.149 73.991,105.149C74.309,105.149 74.632,104.982 75.149,104.516C75.372,104.919 75.574,105.174 75.788,105.304C75.947,105.401 76.134,105.63 76.315,105.85C76.656,106.265 77.04,106.736 77.546,106.736C77.646,106.736 77.768,106.741 77.899,106.746C78.071,106.752 78.258,106.761 78.445,106.761C79.123,106.761 79.817,106.667 79.947,106.122C80.161,105.224 79.226,104.833 78.666,104.599C78.508,104.533 78.364,104.474 78.267,104.413C78.261,104.41 78.249,104.394 78.239,104.387L88.616,104.387C88.444,104.553 88.271,104.693 88.082,104.796C87.437,105.154 86.8,105.904 86.893,106.595C86.94,106.935 87.004,107.269 87.049,107.496L65.693,107.496ZM63.585,90.808L63.585,105.412L62.261,105.411L62.261,54.175C62.83,54.469 63.703,54.811 65.248,55.116C65.222,55.358 65.207,55.6 65.207,55.849C65.207,57.393 65.707,58.85 66.649,60.065C65.806,60.633 64.597,61.557 63.643,62.961C63.021,63.794 62.951,67.063 62.95,67.095C62.93,68.184 63.266,69.814 63.451,70.443C63.66,71.159 63.574,71.85 63.506,72.406C63.48,72.628 63.455,72.83 63.451,73.007C63.442,73.284 63.322,73.825 63.204,74.346C63.068,74.95 62.94,75.522 62.95,75.833C62.969,76.548 63.304,77.184 63.585,77.604L63.585,88.016L62.996,88.229L63.585,90.807L63.585,90.808ZM62.261,38.56L62.261,37.912L68.083,34.728L68.083,43.111C67.292,42.011 65.884,40.937 65.438,40.61L65.438,38.517L64.89,38.517L64.89,40.64C64.476,40.935 63.291,41.801 62.261,42.743L62.261,39.087L63.521,39.087L63.521,38.56L62.261,38.56ZM65.184,41.038C66.034,41.664 68.031,43.327 68.083,44.425L68.083,49.293L62.261,49.293L62.261,43.426C63.32,42.399 64.734,41.36 65.184,41.038ZM68.757,49.821C67.889,50.304 67.139,50.975 66.553,51.772C64.627,51.397 63.146,50.944 62.272,50.458L62.261,50.475L62.261,49.821L68.757,49.821ZM76.718,38.559L76.718,33.088L90.06,33.088L90.06,38.559L88.936,38.559L88.936,39.087L90.06,39.087L90.06,49.293L89.241,49.293C88.849,46.357 84.312,39.339 83.66,38.342L83.66,35.678L83.046,35.678L83.046,38.356C82.354,39.398 77.966,46.105 77.587,49.292L76.718,49.292L76.718,39.086L77.842,39.086L77.842,38.559L76.718,38.559L76.718,38.559ZM91.313,49.821C90.099,50.5 89.114,51.535 88.491,52.784C86.62,52.519 85.003,52.058 83.883,51.514C84.062,51.43 84.265,51.21 84.265,51.21C84.441,51.004 84.55,50.743 84.55,50.455C84.55,50.221 84.48,50.004 84.36,49.821L91.313,49.821ZM90.676,49.293L90.676,43.865C90.676,43.063 93.351,41.201 93.822,40.864C94.619,41.451 96.477,43.032 96.643,44.101L96.643,49.237C96.016,49.05 95.355,48.946 94.667,48.946C93.916,48.946 93.195,49.069 92.517,49.293L90.676,49.293ZM90.381,58.867C90.169,58.517 89.95,58.152 89.965,57.802C89.98,57.412 90.135,57.164 90.3,56.901C90.481,56.614 90.668,56.318 90.631,55.879C90.575,55.214 90.765,53.63 91.703,53.245C92.494,52.915 92.944,53.099 93.245,53.364C92.862,53.413 92.517,53.533 92.272,53.728C91.598,54.263 91.413,54.778 91.313,55.257C91.26,55.515 91.099,57.156 91.135,57.65C91.176,58.282 91.416,58.897 91.541,59.163L91.537,59.165C91.539,59.167 91.67,59.368 91.726,59.8C91.779,60.209 91.8,61.094 91.796,61.498C91.524,61.577 90.969,61.72 90.45,61.729C90.254,61.735 90.046,61.726 89.943,61.72C89.88,61.714 89.823,61.713 89.751,61.698C89.307,61.614 88.948,61.519 88.702,61.446C88.617,61.151 88.557,60.706 88.734,60.624C88.86,60.57 89.053,60.608 89.259,60.647C89.67,60.728 90.23,60.838 90.641,60.235C90.941,59.8 90.656,59.326 90.381,58.867ZM98.876,59.997C99.028,60.046 99.188,60.066 99.344,60.066C99.523,60.066 99.695,60.04 99.846,60.006C99.949,60.114 100.657,60.906 101.013,62.03C100.718,61.946 99.977,61.413 99.977,61.413C99.932,61.381 99.031,60.776 97.984,60.751C97.569,60.74 97.008,60.923 96.695,61.032C96.695,60.995 96.701,60.951 96.698,60.919C96.67,60.646 96.616,60.378 96.569,60.183C96.582,60.183 96.541,60.036 96.512,59.958C96.499,59.91 96.49,59.878 96.489,59.873L96.482,59.875C96.392,59.592 96.369,59.283 96.444,59.004C96.657,58.198 96.573,56.757 96.502,55.969C96.458,55.478 96.111,54.241 95.37,53.781C95.124,53.63 94.84,53.52 94.544,53.444C94.846,53.187 95.217,52.987 95.968,53.026C96.29,53.045 96.625,53.261 96.914,53.63C97.384,54.232 97.629,55.099 97.509,55.737L97.474,55.916C97.274,56.929 96.803,59.303 98.876,59.997ZM101.538,55.182C103.001,54.896 103.871,54.548 104.526,54.194L104.526,67.84C104.475,67.752 104.429,67.669 104.375,67.58L104.3,67.454C104.25,67.368 104.15,67.254 103.985,67.069C103.382,66.387 101.967,64.792 101.709,62.714C101.531,61.283 100.695,60.179 100.346,59.776C101.15,58.618 101.572,57.266 101.572,55.849C101.572,55.623 101.56,55.401 101.538,55.181L101.538,55.182ZM101.456,54.616C101.306,53.794 101.011,53.026 100.598,52.332C102.296,51.991 103.615,51.598 104.526,51.157L104.526,53.541C103.881,53.917 103.041,54.303 101.456,54.616ZM85.856,78.758C85.612,78.311 85.335,77.805 85.095,77.056C84.563,75.392 87.279,74.02 88.438,73.432C88.588,73.358 88.718,73.291 88.872,73.208C89.81,72.701 90.974,72.07 92.365,72.385C92.552,72.427 92.805,72.485 93.094,72.528C92.926,73.077 92.459,74.483 91.853,75.331C91.037,76.471 89.736,77.934 89.278,78.234C88.672,78.626 87.832,79.919 87.547,80.891C87.376,81.474 86.916,83.045 86.268,83.718C86.331,83.053 86.399,82.346 86.482,81.596C86.639,80.184 86.293,79.554 85.856,78.758ZM85.677,91.395C86.143,92.025 86.895,92.81 87.187,93.107C86.663,94.009 86.33,95.132 86.029,96.556C85.716,98.041 85.793,99.085 86.266,99.746C86.746,100.418 87.501,100.508 87.952,100.565C88.42,100.623 88.94,100.535 89.488,100.431C89.599,100.77 89.793,101.432 89.793,101.887C89.793,102.04 89.802,102.178 89.81,102.306C89.837,102.747 89.854,103.012 89.488,103.43L89.294,103.653C89.231,103.725 89.174,103.792 89.114,103.86L81.224,103.86C81.125,103.913 80.534,103.858 80.461,103.858C80.405,103.858 79.953,103.819 79.764,103.832C79.745,103.841 79.724,103.85 79.707,103.855L79.709,103.86L78.028,103.86C78.02,103.721 78.008,103.53 77.993,103.306C79.065,103.227 80.604,102.787 80.891,102.666C81.347,102.473 81.636,102.19 81.753,101.825C81.97,101.145 81.52,100.412 81.25,99.972C81.189,99.874 81.139,99.798 81.122,99.751L81.106,99.755C81.103,99.749 81.1,99.742 81.096,99.735C80.921,99.41 80.756,99.1 80.668,98.866C80.398,98.148 80.414,95.681 80.815,93.932C81.048,92.919 81.467,92.383 81.912,91.813C82.215,91.428 82.527,91.028 82.768,90.48C83.146,89.622 83.015,88.594 82.786,87.238L82.719,86.847C82.528,85.732 82.388,84.929 82.651,84.067C82.677,83.982 82.727,83.889 82.783,83.781C83.077,83.216 83.567,82.27 83.029,80.087C82.851,79.366 82.95,78.819 83.055,78.241C83.174,77.587 83.296,76.913 83,76.013C82.784,75.356 83.067,73.936 83.328,73.356C83.858,74.207 84.619,74.878 85.028,75.203C84.58,75.788 84.353,76.461 84.594,77.216C84.848,78.016 85.14,78.544 85.395,79.01C85.818,79.782 86.098,80.293 85.959,81.538C85.872,82.313 85.803,83.043 85.738,83.729C85.626,84.92 85.529,85.945 85.374,86.867C85.166,88.112 84.995,90.468 85.677,91.395ZM100.937,67.247C100.485,66.782 99.498,67.037 98.988,67.264C98.521,67.471 97.658,68 97.729,68.534C97.772,68.841 98.086,68.944 98.339,69.026C98.435,69.055 98.616,69.114 98.643,69.141C98.694,69.388 98.613,69.722 98.471,69.859C98.403,69.923 98.278,70.07 98.14,70.251C97.528,69.805 97.153,69.086 97.153,68.322C97.153,67.007 98.224,65.934 99.542,65.934C100.86,65.934 101.931,67.007 101.931,68.322C101.931,68.864 101.741,69.385 101.406,69.807C101.256,69.826 101.115,69.842 101.038,69.82C100.98,69.803 100.881,69.765 100.853,69.709C100.798,69.597 100.911,69.309 101.01,69.059C101.215,68.539 101.495,67.824 100.937,67.247ZM98.056,71.478C98.1,71.16 98.637,70.429 98.835,70.238C99.106,69.98 99.245,69.461 99.158,69.037C99.094,68.715 98.765,68.61 98.501,68.524C98.412,68.494 98.263,68.449 98.252,68.473C98.266,68.358 98.637,67.994 99.199,67.747C99.756,67.5 100.391,67.44 100.559,67.614C100.86,67.923 100.739,68.311 100.52,68.866C100.368,69.252 100.224,69.619 100.38,69.94C100.467,70.12 100.638,70.25 100.888,70.324C101.078,70.38 101.293,70.352 101.52,70.324C102.023,70.256 102.59,70.182 103.199,70.912C103.345,71.085 103.214,71.576 103.108,71.967C102.973,72.47 102.844,72.948 103.081,73.259C103.115,73.302 103.164,73.351 103.219,73.401C103.101,73.465 102.941,73.547 102.744,73.638C102.349,73.159 102.297,72.976 101.893,72.789C101.808,72.748 101.803,72.589 101.805,72.385C101.806,72.185 101.809,71.908 101.557,71.821C101.302,71.731 100.879,71.808 100.285,72.662C100.095,72.937 99.713,72.955 99.331,72.962C99.357,72.895 99.388,72.821 99.412,72.767C99.538,72.477 99.656,72.203 99.459,72.022C99.266,71.842 98.999,71.985 98.885,72.044C98.626,72.179 98.259,72.281 97.904,72.355C97.975,72.044 98.02,71.736 98.056,71.478ZM98.906,72.612C98.788,72.885 98.692,73.14 98.823,73.334C98.863,73.395 98.956,73.493 99.136,73.493L99.146,73.493L99.271,73.488C99.732,73.483 100.362,73.474 100.717,72.962C100.973,72.593 101.167,72.427 101.278,72.358L101.278,72.379C101.275,72.642 101.271,73.08 101.673,73.266C101.877,73.364 102.019,73.549 102.285,73.836C101.642,74.092 100.798,74.341 99.936,74.346C98.749,74.363 97.647,74.047 97.038,73.831C97.118,73.776 97.198,73.715 97.272,73.651C97.478,73.47 97.627,73.211 97.738,72.923C98.116,72.856 98.551,72.757 98.906,72.612ZM100.137,74.863C100.411,74.853 100.681,74.821 100.943,74.776C101.221,75.422 102.05,77.458 102.118,78.866C102.186,80.281 102.076,82.933 101.735,85.06C101.725,85.122 101.716,85.181 101.705,85.243C98.673,84.528 97.031,86.047 95.292,87.653C94.092,88.765 92.853,89.91 91.048,90.431C89.625,90.842 88.646,91.381 87.929,92.119C88.158,91.46 88.696,90.47 89.949,89.721C90.616,89.323 91.039,88.612 91.448,87.92C91.721,87.458 92.005,86.981 92.356,86.609C93.27,85.643 93.774,85.149 94.511,84.502L94.756,84.289C95.416,83.715 96.041,83.171 96.929,81.957C97.798,80.766 98.965,78.76 99.631,76.702C99.923,75.796 100.067,75.223 100.137,74.864ZM100.847,92.699C101.165,94.192 101.598,97.473 101.604,97.513C101.606,97.523 101.753,98.477 101.264,99.126C101.01,99.465 100.62,99.664 100.103,99.729C99.632,99.783 99.306,99.741 98.961,99.693C98.598,99.644 98.222,99.592 97.642,99.686C97.142,99.873 96.981,100.16 96.825,100.438C96.719,100.627 96.616,100.809 96.384,101.008C96.36,101.028 96.332,101.036 96.307,101.051C96.415,100.238 96.703,98.096 96.783,97.429C97.067,95.083 96.624,92.721 95.501,90.602C95.063,89.772 95.494,88.386 95.593,88.094C95.612,88.078 95.63,88.059 95.65,88.041C97.355,86.464 98.835,85.095 101.609,85.762C101.561,86.001 101.51,86.228 101.458,86.436C100.976,88.341 100.479,90.976 100.847,92.699ZM102.601,100.426L102.618,103.947L98.638,103.947C98.557,103.756 98.504,103.575 98.498,103.383C98.479,102.817 99.188,101.057 99.526,100.276C99.716,100.283 99.923,100.28 100.166,100.251C100.662,100.191 101.072,100.025 101.392,99.753C101.628,99.991 102.084,100.369 102.601,100.426ZM90.335,102.274C90.327,102.156 90.32,102.027 90.32,101.887C90.32,101.389 90.134,100.723 90.011,100.338C90.414,100.265 90.828,100.2 91.278,100.18C91.69,100.169 92.064,100.218 92.409,100.297C92.344,100.386 92.273,100.485 92.191,100.599C91.317,101.822 91.565,102.987 91.721,103.299C91.744,103.343 91.775,103.402 91.814,103.468C91.988,103.777 92.279,104.291 92.222,104.76C92.175,105.159 91.307,105.479 90.852,105.56C90.449,105.634 89.946,105.851 89.315,106.225C88.817,106.522 87.996,107.023 87.546,107.299C87.505,107.084 87.453,106.803 87.415,106.523C87.357,106.102 87.845,105.528 88.336,105.257C88.716,105.05 89.021,104.754 89.351,104.386L89.383,104.386L89.383,104.352C89.483,104.239 89.585,104.122 89.692,103.996L89.884,103.777C90.392,103.196 90.365,102.747 90.335,102.274ZM92.191,103.064C92.101,102.88 91.891,101.925 92.619,100.906C92.772,100.691 92.879,100.548 92.954,100.45C93.436,100.616 93.838,100.831 94.161,101.008L94.306,101.084C94.768,101.337 95.342,101.649 95.882,101.676C95.991,101.908 96.155,102.325 96.233,102.876C96.277,103.18 96.321,103.617 96.329,103.953L92.662,103.953C92.562,103.694 92.363,103.37 92.272,103.21C92.24,103.151 92.21,103.102 92.191,103.064ZM93.831,92.202C93.465,91.044 93.843,89.8 93.941,89.514C94.267,89.267 94.578,89.008 94.879,88.742C94.758,89.371 94.701,90.212 95.036,90.849C96.108,92.872 96.532,95.126 96.262,97.367C96.176,98.082 95.852,100.485 95.764,101.135C95.379,101.072 94.94,100.832 94.558,100.625L94.411,100.544C94.122,100.387 93.768,100.2 93.356,100.036C93.486,99.768 93.929,98.84 94.061,98.26C94.241,97.467 94.533,94.435 93.831,92.202ZM91.193,90.938C91.98,90.713 92.655,90.376 93.269,89.984C93.143,90.585 93.052,91.478 93.329,92.36C94.005,94.51 93.695,97.493 93.548,98.145C93.432,98.648 93.033,99.496 92.897,99.775C92.863,99.787 92.828,99.805 92.789,99.84C92.388,99.727 91.942,99.651 91.45,99.651C91.386,99.651 91.322,99.651 91.257,99.655C90.631,99.68 90.053,99.789 89.543,99.886C88.954,99.999 88.447,100.091 88.016,100.042C87.522,99.982 87.013,99.885 86.695,99.44C86.317,98.912 86.267,97.979 86.544,96.665C87.24,93.37 88.04,91.846 91.193,90.938ZM72.662,103.86L71.602,103.86C71.597,103.844 71.554,103.679 71.529,103.561L71.779,102.734C72.092,102.819 72.42,102.884 72.757,102.923C72.701,103.288 72.664,103.519 72.662,103.53C72.66,103.545 72.65,103.68 72.662,103.86ZM65.427,96.203L66.871,95.441L67.862,102.595L67.048,103.353L65.427,96.203ZM66.57,103.896L64.124,103.896L64.124,93.17L66.57,103.896ZM65.125,81.866C65.171,81.966 65.195,82.051 65.206,82.132C65.139,82.409 64.993,82.641 64.834,82.879C64.641,83.171 64.442,83.469 64.398,83.86C64.313,84.604 64.559,85.254 64.566,85.273L64.839,86.06L65.246,86.179C65.292,86.144 65.402,86.054 65.551,85.934L65.733,87.238L64.124,87.821L64.124,77.961L64.138,77.946C64.312,78.127 64.516,78.261 64.694,78.374C64.842,78.469 64.983,78.559 65.069,78.65C65.311,78.913 65.239,79.291 65.102,79.887C64.964,80.491 64.804,81.177 65.125,81.866ZM65.301,84.124L65.468,85.331C65.381,85.401 65.294,85.474 65.211,85.54L65.056,85.095C65.053,85.088 64.845,84.538 64.915,83.917C64.945,83.653 65.094,83.428 65.268,83.169C65.478,82.852 65.715,82.494 65.76,82.001L65.74,82C66.108,81.583 66.731,81.796 66.972,81.904C67.299,82.107 67.466,82.724 67.42,83.353C67.428,83.367 67.439,83.373 67.446,83.387C67.461,83.416 67.478,83.438 67.492,83.466C67.167,83.847 66.586,84.384 65.987,84.896L65.869,84.045L65.301,84.124ZM67.772,83.937C67.793,83.974 67.817,84.009 67.836,84.045C67.824,84.38 67.795,84.775 67.763,85.217C67.732,85.62 67.7,86.061 67.673,86.535L66.284,87.038L66.071,85.507C66.622,85.046 67.318,84.437 67.772,83.937ZM67.645,87.156C67.594,88.427 67.606,89.917 67.819,91.598C67.974,92.815 68.117,93.577 68.242,94.097L67.328,94.563L66.364,87.618L67.645,87.156ZM68.806,101.396L68.908,101.855L68.396,102.262L67.412,95.165L68.394,94.663C68.426,94.772 68.457,94.87 68.486,94.956C68.589,95.274 68.64,95.432 68.64,95.837C68.64,96.535 68.62,96.888 68.59,97.425C68.573,97.712 68.554,98.046 68.534,98.508C68.473,99.901 68.706,100.948 68.806,101.396ZM71.091,103.209C71.041,103.188 70.989,103.171 70.941,103.162C70.348,103.059 69.95,103.387 69.892,103.411C69.88,103.425 69.863,103.436 69.846,103.447L69.469,101.736C69.528,101.78 69.59,101.823 69.658,101.862C69.96,102.033 70.552,102.336 71.281,102.583L71.091,103.209ZM69.045,102.477L69.359,103.896L67.268,103.896L69.045,102.477ZM70.58,103.711C70.664,103.692 70.743,103.685 70.811,103.685C70.911,103.685 71.062,103.896 71.089,103.971C71.294,104.574 71.235,105.693 71.114,105.889C70.992,106.067 69.976,106.456 69.555,106.227C69.018,105.941 69.01,105.69 69.072,105.481C69.203,105.05 69.999,103.844 70.58,103.711ZM72.835,102.409C71.553,102.262 70.377,101.67 69.915,101.408C69.522,101.186 69.307,100.789 69.244,100.656C69.154,100.137 69.069,99.408 69.107,98.531C69.127,98.073 69.146,97.741 69.162,97.458C69.192,96.93 69.214,96.55 69.214,95.837C69.214,95.342 69.141,95.12 69.031,94.779C68.881,94.313 68.653,93.608 68.388,91.524C68.061,88.95 68.218,86.818 68.334,85.259C68.35,85.037 68.365,84.833 68.378,84.635C68.386,84.658 68.395,84.673 68.403,84.695L68.398,84.698C68.404,84.71 68.413,84.728 68.419,84.741C68.424,84.756 68.424,84.625 68.413,84.445C68.747,84.775 69.151,85.247 69.429,85.82C69.672,86.318 69.787,86.678 69.889,86.993C70.029,87.428 70.15,87.804 70.531,88.305C71.075,89.024 72.503,90.262 72.926,90.623C72.821,91.367 72.788,92.162 72.891,92.97C72.969,93.593 73.046,94.116 73.115,94.583C73.33,96.044 73.459,96.925 73.313,98.55C73.197,99.852 72.985,101.389 72.835,102.409ZM69.186,78.885C69.09,78.439 69.051,78.071 68.996,77.765C68.819,76.755 68.753,76.376 68.878,75.525C69.024,74.528 68.679,73.974 68.346,73.439C68.257,73.296 68.168,73.154 68.088,72.998C67.749,72.343 67.392,71.479 67.645,70.603C67.86,69.862 68.294,68.011 67.683,66.877C67.249,66.068 66.576,65.031 65.831,64.677C65.236,64.395 63.941,64.289 63.746,64.273C63.833,63.812 63.942,63.439 64.071,63.267C64.181,63.106 64.296,62.957 64.412,62.809C64.836,63.213 66.767,64.773 71.336,64.799L71.431,64.799C71.649,64.799 71.859,64.792 72.065,64.784C72.287,65.422 72.824,67.159 72.728,67.792C72.689,68.053 72.613,68.183 72.532,68.321C72.339,68.649 72.229,68.929 72.43,69.777C72.552,70.285 72.67,70.661 72.769,70.977C72.916,71.445 73.013,71.755 73.013,72.171C73.013,72.436 72.896,72.745 72.773,73.075C72.58,73.593 72.36,74.177 72.528,74.77C72.629,75.13 72.74,75.411 72.837,75.66C72.982,76.027 73.107,76.344 73.18,76.836C73.24,77.24 73.186,77.391 73.111,77.593C73.041,77.783 72.955,78.02 72.955,78.454C72.955,79.115 73.522,79.864 73.979,80.468C74.118,80.65 74.252,80.826 74.339,80.963C74.373,80.997 75.341,83.195 75.549,83.652L75.546,83.655C75.546,83.655 75.555,83.67 75.568,83.693C75.575,83.709 75.578,83.713 75.582,83.722C75.305,84.361 74.645,85.863 74.222,86.658C73.965,87.144 73.348,88.421 73.028,90.023C72.464,89.531 71.38,88.562 70.946,87.991C70.619,87.561 70.521,87.255 70.385,86.833C70.284,86.519 70.157,86.123 69.898,85.591C69.432,84.63 68.667,83.941 68.313,83.655C68.288,83.558 68.262,83.478 68.228,83.439C68.296,83.309 68.364,83.178 68.426,83.056C68.537,82.837 69.649,81.029 69.186,78.885ZM76.418,57.751C76.474,58.185 76.527,58.597 76.163,58.97C75.776,59.365 75.034,59.181 74.652,59.065C74.771,58.936 74.864,58.828 74.911,58.774C75.052,58.595 76.287,57.001 75.89,55.901C75.732,55.457 75.377,55.386 75.117,55.334C74.965,55.303 74.82,55.273 74.697,55.183C74.604,55.114 74.567,55.021 74.508,54.861C74.427,54.636 74.316,54.328 73.904,54.167C73.764,54.114 73.634,54.118 73.494,54.12C73.317,54.124 73.085,54.128 72.713,54.003C71.928,53.734 71.219,54.284 70.924,54.65C70.805,54.796 70.776,54.887 70.747,55.004C70.723,55.097 70.689,55.239 70.456,55.623C70.136,56.156 69.674,56.473 69.507,56.573C69.451,56.538 69.395,56.502 69.339,56.467C69.104,56.321 68.668,56.052 68.675,55.922C68.68,55.833 68.741,55.782 68.953,55.656C69.147,55.541 69.386,55.398 69.517,55.118C69.566,55.016 69.608,54.868 69.655,54.7C69.739,54.395 69.844,54.013 70.049,53.835C70.159,53.742 70.616,53.712 70.918,53.693C71.292,53.669 71.615,53.649 71.825,53.544C71.981,53.466 72.108,53.364 72.218,53.276C72.396,53.132 72.535,53.021 72.758,53.011C73.074,52.988 73.192,53.155 73.329,53.358C73.429,53.503 73.552,53.686 73.778,53.711C73.959,53.732 74.138,53.658 74.312,53.585C74.549,53.486 74.712,53.428 74.844,53.492C74.988,53.564 75.127,53.908 75.228,54.16C75.339,54.434 75.434,54.672 75.593,54.804C75.662,54.861 75.706,54.915 75.75,54.969C75.871,55.116 76.009,55.282 76.414,55.441C76.523,55.482 76.599,55.57 76.646,55.708C76.757,56.032 76.663,56.505 76.512,56.759C76.33,57.062 76.376,57.412 76.418,57.751ZM70.907,55.896C71.179,55.445 71.226,55.255 71.258,55.132C71.275,55.062 71.278,55.048 71.334,54.981C71.339,54.974 71.904,54.281 72.542,54.501C73.002,54.66 73.303,54.65 73.507,54.646C73.604,54.646 73.673,54.644 73.714,54.66C73.894,54.728 73.938,54.831 74.014,55.039C74.078,55.219 74.159,55.442 74.386,55.609C74.604,55.767 74.831,55.812 75.014,55.85C75.258,55.899 75.34,55.92 75.396,56.077C75.647,56.78 74.834,58.026 74.506,58.438C74.066,58.949 73.301,59.712 72.979,59.808C72.528,59.94 72.014,59.808 71.796,59.665C71.622,59.556 71.031,59.09 70.651,58.786C70.656,58.766 70.665,58.748 70.669,58.725C70.827,57.755 70.496,57.427 70.077,57.011C70.077,57.011 69.98,56.925 69.96,56.905C70.219,56.722 70.611,56.388 70.907,55.895ZM71.512,60.11C71.763,60.271 72.162,60.387 72.578,60.387C72.762,60.387 72.95,60.363 73.129,60.312C73.227,60.284 73.337,60.224 73.452,60.148L75.296,61.151C75.024,61.262 74.724,61.432 74.503,61.698L74.382,61.847C73.983,62.339 73.53,62.896 72.82,62.956C72.438,62.983 72.203,62.817 71.888,62.6C71.56,62.371 71.188,62.11 70.591,62.016C70.119,61.943 69.769,61.932 69.486,61.923C69.094,61.907 68.857,61.9 68.553,61.746C68.034,61.485 67.541,60.727 67.538,60.727L67.323,60.249C67.37,60.218 67.423,60.183 67.464,60.155C68.461,59.589 69.689,59.784 70.424,59.278C70.778,59.56 71.325,59.989 71.512,60.11ZM68.316,62.216C68.723,62.423 69.052,62.434 69.468,62.448C69.75,62.458 70.07,62.468 70.51,62.538C70.986,62.613 71.293,62.827 71.589,63.03C71.909,63.254 72.241,63.485 72.73,63.485C72.773,63.485 72.818,63.482 72.863,63.477C73.798,63.401 74.348,62.724 74.791,62.178L74.908,62.034C75.277,61.589 76.02,61.498 76.027,61.496L76.094,61.486L76.107,61.478C76.274,61.81 76.71,62.634 77.07,62.928C76.873,63.073 75.13,64.27 71.43,64.27L71.339,64.27C66.839,64.249 65.017,62.662 64.75,62.402C65.487,61.562 66.277,60.955 66.879,60.541L67.075,60.976C67.099,61.015 67.659,61.886 68.316,62.216ZM82.517,80.215C82.597,80.534 82.645,80.815 82.681,81.079C82.328,81.253 81.29,81.883 80.91,83.492C80.685,84.443 80.594,85.104 80.528,85.584C80.47,86.015 80.431,86.3 80.335,86.549C80.142,87.042 78.18,89.529 77.127,90.574C77.072,90.405 77.028,90.254 77,90.125C76.908,89.708 77.217,89.263 77.542,88.791C77.873,88.313 78.215,87.818 78.248,87.238C78.274,86.751 78.163,86.533 78.044,86.301C77.879,85.983 77.653,85.544 77.71,83.796C77.791,81.239 78.24,79.356 78.342,78.957C78.906,78.319 80.134,77.308 80.42,77.073C80.652,77.19 80.896,77.264 81.147,77.264C81.197,77.264 81.244,77.261 81.293,77.255C81.754,77.201 82.263,76.81 82.589,76.515C82.72,77.124 82.631,77.625 82.537,78.146C82.426,78.755 82.313,79.385 82.517,80.215ZM82.201,86.937L82.267,87.325C82.486,88.63 82.605,89.542 82.285,90.271C82.072,90.756 81.791,91.112 81.497,91.489C81.037,92.079 80.559,92.687 80.301,93.814C79.899,95.56 79.838,98.154 80.174,99.051C80.275,99.318 80.448,99.641 80.631,99.983C80.639,99.999 80.647,100.015 80.656,100.029L80.679,100.029C80.711,100.091 80.752,100.159 80.806,100.247C81.028,100.608 81.401,101.215 81.256,101.667C81.187,101.883 81.001,102.054 80.687,102.187C80.427,102.297 78.953,102.714 77.957,102.785C77.871,101.6 77.718,99.935 77.509,99.163C77.161,97.88 77.6,95.88 77.893,94.801C78.197,93.681 77.687,92.204 77.313,91.126C78.319,90.193 80.575,87.383 80.825,86.74C80.944,86.433 80.989,86.107 81.05,85.656C81.114,85.185 81.202,84.541 81.422,83.613C81.699,82.439 82.365,81.881 82.731,81.653C82.768,82.647 82.5,83.183 82.316,83.538C82.242,83.681 82.182,83.803 82.147,83.913C81.849,84.894 82.004,85.797 82.201,86.937ZM82.442,75.928C82.177,76.193 81.615,76.688 81.233,76.731C80.453,76.818 79.583,75.719 79.204,75.128C79.655,74.588 80.57,73.524 80.882,73.281C81.063,73.14 81.238,73.091 81.428,73.135C81.916,73.248 82.366,73.942 82.521,74.241C82.407,74.819 82.36,75.454 82.442,75.928ZM78.652,75.237C78.672,75.27 78.859,75.587 79.156,75.958L78.385,76.154L76.446,68.311L77.86,67.966L79.373,74.117C79.032,74.51 78.742,74.86 78.678,74.938L78.561,75.078L78.652,75.237ZM80.559,72.865C80.389,72.997 80.099,73.301 79.796,73.636L78.372,67.842L80.265,67.381L81.493,72.616C81.17,72.559 80.85,72.64 80.559,72.865ZM75.809,67.926L78.001,76.795L79.547,76.403C79.673,76.532 79.809,76.656 79.953,76.769C79.623,77.04 78.249,78.18 77.764,78.827C77.189,79.597 76.856,80.506 76.632,81.415C76.463,82.1 76.116,82.753 75.859,83.176C75.466,82.319 74.573,80.381 74.399,80.148C74.011,79.637 73.482,78.938 73.482,78.454C73.482,78.112 73.541,77.948 73.604,77.776C73.691,77.542 73.781,77.297 73.7,76.757C73.619,76.208 73.478,75.847 73.328,75.466C73.23,75.218 73.128,74.962 73.034,74.626C72.914,74.2 73.092,73.721 73.266,73.26C73.4,72.9 73.54,72.528 73.54,72.17C73.54,71.974 73.519,71.8 73.486,71.629L73.489,71.629C73.489,71.626 73.489,71.344 73.987,70.523C74.238,70.106 74.285,69.744 74.331,69.395C74.402,68.837 74.483,68.204 75.438,67.033C76.706,65.476 77.511,64.882 77.752,64.722C78.182,65.324 79.066,66.473 79.493,67.025L75.809,67.926ZM75.029,66.701C73.982,67.987 73.886,68.731 73.809,69.328C73.765,69.663 73.73,69.929 73.537,70.251C73.417,70.447 73.329,70.612 73.253,70.761C73.161,70.466 73.054,70.119 72.943,69.653C72.773,68.948 72.858,68.803 72.986,68.587C73.079,68.427 73.194,68.232 73.249,67.869C73.366,67.091 72.802,65.326 72.61,64.754C75.356,64.555 76.834,63.721 77.274,63.426C77.281,63.469 77.287,63.51 77.293,63.553C77.326,63.786 77.366,64.039 77.473,64.277C77.187,64.462 76.343,65.089 75.029,66.701ZM73.179,103.599C73.183,103.569 73.638,100.763 73.832,98.596C73.983,96.91 73.843,95.953 73.631,94.508C73.562,94.043 73.486,93.522 73.408,92.904C73.058,90.135 74.408,87.418 74.683,86.902C75.148,86.024 75.872,84.365 76.111,83.811C76.112,83.812 76.114,83.812 76.116,83.812C76.117,83.802 76.119,83.795 76.12,83.789C76.159,83.697 76.185,83.637 76.191,83.625L76.188,83.623C76.577,83.049 76.858,82.291 77.086,81.549C77.226,81.093 77.385,80.635 77.582,80.201C77.414,81.043 77.232,82.268 77.185,83.778C77.124,85.662 77.384,86.171 77.575,86.541C77.679,86.742 77.741,86.864 77.722,87.209C77.697,87.642 77.398,88.072 77.11,88.49C76.733,89.035 76.345,89.597 76.485,90.236C76.548,90.522 76.672,90.881 76.815,91.295C77.166,92.31 77.646,93.697 77.385,94.662C77.011,96.043 76.64,97.967 77.001,99.299C77.256,100.238 77.427,102.688 77.49,103.691C77.166,103.467 76.749,103.294 76.212,103.361C75.756,103.413 75.46,103.537 75.27,103.674C75.14,103.719 75.076,103.805 75.042,103.9C74.169,104.744 74.039,104.695 73.568,104.51L73.504,104.486C73.12,104.337 73.179,103.599 73.179,103.599ZM76.274,103.883C76.974,103.802 77.414,104.28 77.708,104.598C77.814,104.711 77.898,104.802 77.985,104.857C78.102,104.931 78.274,105.004 78.462,105.084C79.076,105.34 79.536,105.57 79.434,106C79.369,106.274 78.317,106.236 77.918,106.219C77.779,106.215 77.651,106.211 77.545,106.209C77.29,106.209 76.988,105.84 76.722,105.517C76.503,105.249 76.296,104.995 76.061,104.854C75.913,104.764 75.736,104.522 75.537,104.131C75.641,104.044 75.853,103.934 76.274,103.883ZM92.481,71.871C90.897,71.513 89.584,72.225 88.569,72.772C88.471,72.826 88.346,72.887 88.201,72.962C87.432,73.35 86.206,73.972 85.376,74.806C84.967,74.482 84.122,73.742 83.637,72.84C85.736,71.537 88.787,69.882 89.388,70.024C91.529,70.58 92.581,70.124 93.089,69.905C93.183,69.867 93.272,69.826 93.319,69.82C93.494,69.788 93.622,69.826 93.906,69.911C94.11,69.972 94.369,70.049 94.739,70.125C95.844,70.353 96.036,70.627 96.067,70.737C96.111,70.892 95.96,71.145 95.639,71.45C94.677,72.367 93.193,72.033 92.481,71.871ZM89.52,69.513C88.55,69.25 84.697,71.564 83.42,72.355C83.358,72.177 83.31,71.995 83.289,71.81C83.224,71.254 83.646,70.262 84.11,69.882C84.201,69.806 86.329,68.019 86.669,64.395C86.767,63.359 88.156,62.242 88.543,61.948C88.804,62.024 89.181,62.125 89.652,62.215C89.807,62.244 89.946,62.257 90.078,62.26C90.078,62.257 90.078,62.251 90.078,62.246C90.163,62.25 90.257,62.252 90.357,62.252C90.391,62.252 90.427,62.252 90.462,62.251C90.936,62.242 91.425,62.136 91.752,62.051C91.703,62.44 91.622,62.98 91.539,63.219C91.512,63.299 91.478,63.388 91.442,63.484C91.258,63.976 91.129,64.346 91.161,64.598C91.165,64.629 91.167,64.669 91.17,64.711C91.19,65.037 91.236,65.798 92.066,65.967C92.353,66.027 92.706,66.066 93.07,66.066C93.557,66.066 94.064,65.996 94.461,65.796C95.082,65.487 95.873,64.661 96.142,63.584C96.203,63.344 96.268,63.099 96.333,62.859C96.462,62.38 96.65,61.601 96.65,61.601C96.883,61.51 97.459,61.269 97.984,61.271C98.535,61.272 99.085,61.504 99.503,61.732C100.125,62.198 100.683,62.562 101.146,62.578C101.159,62.647 101.178,62.711 101.187,62.78C101.196,62.856 101.217,62.927 101.23,63C100.986,62.944 100.653,62.908 100.199,62.96C99.161,63.078 97.702,63.852 97.274,64.535C96.461,65.83 94.614,66.287 94.614,66.287C94.126,66.437 92.037,67.173 91.861,67.287C91.337,67.626 90.108,69.087 89.718,69.558C89.65,69.542 89.591,69.533 89.52,69.513ZM92.249,59.788C92.667,59.769 92.95,59.568 93.185,59.396C93.385,59.253 93.557,59.127 93.801,59.097C94.067,59.064 94.31,59.213 94.615,59.399C94.955,59.608 95.374,59.859 95.932,59.874C95.956,59.976 95.986,60.076 96.024,60.173L96.031,60.173C96.076,60.35 96.147,60.66 96.179,60.969C96.212,61.301 96.018,62.023 95.829,62.723C95.764,62.968 95.698,63.215 95.637,63.457C95.417,64.334 94.762,65.063 94.228,65.33C93.77,65.56 92.923,65.611 92.17,65.458C91.764,65.374 91.714,65.07 91.69,64.678C91.687,64.623 91.683,64.574 91.679,64.535C91.66,64.387 91.829,63.936 91.93,63.666C91.967,63.566 92.002,63.472 92.032,63.388C92.181,62.962 92.297,61.903 92.311,61.71C92.329,61.463 92.313,60.345 92.249,59.788ZM95.093,54.229C95.438,54.441 95.687,54.935 95.834,55.381C95.061,55.253 94.264,55.523 94.09,55.608L94.321,56.081C94.443,56.021 95.26,55.74 95.936,55.939C95.936,55.939 95.975,55.972 95.979,56.014C96.032,56.62 96.135,58.112 95.935,58.865C95.893,59.021 95.879,59.183 95.877,59.344C95.494,59.315 95.196,59.145 94.887,58.956C94.543,58.744 94.187,58.526 93.738,58.58C93.361,58.626 93.104,58.811 92.879,58.976C92.638,59.15 92.445,59.275 92.137,59.26C92.123,59.216 92.108,59.164 92.095,59.127C92.094,59.124 92.093,59.121 92.091,59.117C92.087,59.107 92.083,59.096 92.079,59.088C92.068,59.054 92.057,59.02 92.044,58.996C91.934,58.788 91.696,58.173 91.66,57.613C91.639,57.321 91.701,56.513 91.758,55.944L91.762,55.949C91.763,55.947 91.909,55.86 92.289,55.86C92.6,55.86 92.938,55.848 93.08,56.041C93.122,56.096 93.203,56.299 93.165,56.489C93.024,57.203 92.821,57.923 92.724,58.104C92.724,58.104 93.182,58.119 93.287,58.124C93.329,57.975 93.665,56.654 93.669,56.642C93.784,56.261 93.703,55.915 93.587,55.76C93.31,55.386 92.699,55.333 92.289,55.333C92.098,55.333 91.948,55.351 91.827,55.377C91.828,55.374 91.828,55.368 91.829,55.363C91.903,55.008 92.03,54.59 92.599,54.137C93.119,53.726 94.352,53.771 95.093,54.229ZM88.516,60.145C87.945,60.406 88.082,61.186 88.186,61.558C87.7,61.929 86.259,63.125 86.146,64.344C85.89,67.072 84.483,68.892 83.775,69.474C83.171,69.97 82.68,71.135 82.766,71.87C82.807,72.222 82.915,72.56 83.066,72.881L83.016,72.843C82.909,72.982 82.799,73.231 82.702,73.531C82.549,73.317 82.346,73.078 82.1,72.894L80.656,66.742L80.054,66.888C79.672,66.396 78.269,64.577 78.001,64.157C77.885,63.974 77.849,63.722 77.815,63.48C77.765,63.125 77.713,62.757 77.413,62.531C77.169,62.347 76.745,61.59 76.526,61.138C77.982,59.922 78.877,58.151 78.99,56.258C80.691,55.939 82.2,55.502 83.387,54.991C84.735,55.574 86.177,56.004 87.779,56.294C87.841,57.777 88.207,59.109 88.819,60.076C88.716,60.084 88.615,60.1 88.516,60.145ZM87.768,55.758C86.184,55.462 84.755,55.034 83.428,54.44L83.425,54.433C83.41,54.435 83.394,54.437 83.377,54.437C83.362,54.437 83.349,54.435 83.335,54.433L83.333,54.44C82.185,54.954 80.698,55.394 79.008,55.719C78.993,54.857 78.818,54.035 78.514,53.28C80.532,52.98 82.229,52.48 83.39,51.853C84.55,52.48 86.247,52.98 88.265,53.28C87.956,54.047 87.781,54.882 87.768,55.758ZM84.36,47.577C84.361,47.594 84.358,47.607 84.359,47.624C84.404,48.238 84.858,48.682 85.549,48.682L85.563,48.682C85.937,48.679 86.282,48.526 86.537,48.25C86.8,47.967 86.935,47.58 86.909,47.191C86.853,46.443 86.297,45.857 85.547,45.685L85.559,45.685C85.559,44.687 84.809,43.876 83.888,43.876L83.888,44.402C84.503,44.402 85.003,44.949 85.028,45.634C84.299,45.656 83.71,46.031 83.39,46.608C83.071,46.027 82.481,45.653 81.751,45.63C81.777,44.946 82.275,44.399 82.89,44.399L82.89,43.872C81.969,43.872 81.22,44.684 81.22,45.682L81.239,45.682C80.488,45.854 79.926,46.438 79.871,47.188C79.844,47.574 79.977,47.961 80.241,48.245C80.495,48.52 80.841,48.675 81.217,48.679L81.231,48.679C81.919,48.679 82.39,48.234 82.434,47.619C82.436,47.605 82.435,47.592 82.435,47.577L81.909,47.577L81.91,47.582C81.882,47.961 81.546,48.147 81.221,48.151C80.993,48.15 80.782,48.055 80.627,47.888C80.463,47.711 80.379,47.469 80.396,47.225C80.442,46.601 80.982,46.151 81.684,46.151L81.697,46.151C82.539,46.158 83.126,46.77 83.126,47.638L83.126,49.292L78.141,49.292C78.509,46.441 82.369,40.386 83.358,38.876C84.353,40.42 88.307,46.68 88.692,49.292L83.653,49.292L83.653,47.641C83.653,46.774 84.24,46.164 85.081,46.156L85.095,46.156C85.786,46.156 86.338,46.616 86.383,47.23C86.401,47.472 86.316,47.715 86.151,47.891C85.996,48.06 85.785,48.154 85.557,48.156L85.549,48.156C85.2,48.156 84.911,47.962 84.885,47.588L84.885,47.58L84.36,47.577ZM83.39,49.82C83.74,49.82 84.023,50.103 84.023,50.454C84.023,50.803 83.74,51.086 83.39,51.088C83.04,51.086 82.755,50.803 82.755,50.454C82.755,50.103 83.04,49.82 83.39,49.82ZM82.419,49.82C82.381,49.879 82.347,49.937 82.32,50.003C82.26,50.141 82.227,50.295 82.227,50.454C82.227,50.613 82.26,50.765 82.32,50.904C82.367,51.015 82.435,51.116 82.514,51.209C82.514,51.209 82.764,51.457 82.926,51.517C81.807,52.062 80.16,52.516 78.288,52.783C77.665,51.534 76.68,50.499 75.465,49.82L82.419,49.82ZM76.102,38.558L74.748,38.558L74.748,39.085L76.102,39.085L76.102,42.841C75.078,41.639 73.953,40.811 73.32,40.462L73.32,38.341L72.772,38.341L72.772,40.435C72.328,40.76 70.929,41.826 70.136,42.924L70.136,34.722L76.102,37.448L76.102,38.558ZM73.027,40.863C73.497,41.2 76.052,43.112 76.102,44.056L76.102,49.291L74.261,49.291C73.584,49.068 72.862,48.945 72.111,48.945C71.424,48.945 70.762,49.048 70.136,49.236L70.136,44.25C70.267,43.184 72.183,41.484 73.027,40.863ZM72.111,49.471C75.627,49.471 78.488,52.332 78.488,55.848C78.488,57.833 77.548,59.715 75.97,60.918L73.911,59.798C74.046,59.679 74.284,59.5 74.284,59.5C74.304,59.505 74.336,59.517 74.379,59.53C74.79,59.661 75.885,60.007 76.539,59.336C77.082,58.779 77.001,58.144 76.94,57.683C76.906,57.411 76.876,57.176 76.964,57.027C77.182,56.662 77.314,56.032 77.143,55.536C77.047,55.252 76.862,55.05 76.606,54.951C76.328,54.841 76.256,54.752 76.156,54.632C76.093,54.554 76.028,54.477 75.929,54.397C75.873,54.35 75.779,54.117 75.716,53.96C75.569,53.595 75.403,53.182 75.08,53.018C74.725,52.842 74.37,52.988 74.112,53.097C74.02,53.135 73.883,53.193 73.87,53.197C73.847,53.179 73.8,53.111 73.765,53.06C73.613,52.835 73.351,52.436 72.736,52.484C72.341,52.501 72.101,52.693 71.891,52.863C71.79,52.944 71.695,53.018 71.59,53.072C71.475,53.128 71.148,53.15 70.885,53.165C70.404,53.197 69.95,53.226 69.706,53.436C69.379,53.716 69.251,54.184 69.147,54.559C69.11,54.692 69.079,54.811 69.041,54.893C68.978,55.027 68.841,55.108 68.684,55.203C68.467,55.332 68.169,55.51 68.15,55.893C68.126,56.333 68.601,56.628 69.061,56.913C69.285,57.05 69.706,57.382 69.706,57.382C70.089,57.763 70.264,57.936 70.15,58.639C70.078,59.076 69.777,59.124 69.324,59.149C69.199,59.156 67.822,59.302 67.206,59.701C67.171,59.722 67.126,59.751 67.089,59.775C66.204,58.645 65.734,57.287 65.734,55.848C65.734,52.332 68.596,49.471 72.111,49.471ZM69.567,49.291L68.651,49.291L68.651,34.416L69.019,34.214L69.567,34.465L69.567,49.291ZM66.185,52.324C65.781,52.999 65.487,53.748 65.333,54.55C63.604,54.207 62.779,53.827 62.261,53.525L62.261,51.141C63.167,51.583 64.484,51.98 66.185,52.324ZM63.475,75.819C63.469,75.57 63.601,74.98 63.717,74.46C63.846,73.888 63.967,73.349 63.976,73.02C63.98,72.857 64.003,72.673 64.029,72.469C64.103,71.865 64.195,71.115 63.955,70.294C63.786,69.709 63.457,68.123 63.477,67.104C63.491,66.358 63.684,64.797 63.684,64.797C64.067,64.823 65.156,64.937 65.605,65.15C66.078,65.376 66.667,66.095 67.22,67.122C67.753,68.115 67.292,69.923 67.139,70.456C66.832,71.52 67.266,72.554 67.621,73.237C67.707,73.407 67.803,73.562 67.898,73.716C68.208,74.212 68.476,74.64 68.358,75.445C68.22,76.382 68.295,76.814 68.478,77.853C68.533,78.159 68.596,78.519 68.667,78.964C68.961,80.831 68.381,81.98 67.957,82.818C67.95,82.831 67.942,82.847 67.935,82.861C67.879,82.26 67.655,81.706 67.22,81.439C66.565,81.136 65.959,81.156 65.536,81.464C65.389,80.99 65.503,80.489 65.615,80.003C65.754,79.397 65.899,78.769 65.455,78.292C65.324,78.151 65.155,78.042 64.978,77.929C64.802,77.815 63.87,77.238 63.704,76.74C63.579,76.462 63.484,76.145 63.475,75.819ZM65.814,87.817L66.788,94.838L65.269,95.613L63.668,88.593L65.814,87.817ZM87.198,108.109C87.529,108.33 88.263,108.837 88.599,109.196C88.838,109.45 88.816,109.683 88.519,110.026C88.398,110.163 87.726,110.725 87.231,111.13C86.944,110.849 86.355,110.277 86.001,109.923C85.912,109.834 85.675,109.597 86.055,109.177C86.134,109.088 86.745,108.522 87.198,108.109ZM88.916,110.37C89.516,109.682 89.284,109.156 88.982,108.833C88.742,108.58 88.342,108.272 87.994,108.021L92.062,108.021L91.515,108.544C91.482,108.578 91.188,108.902 91.22,109.3C91.232,109.45 91.298,109.675 91.546,109.864C92.047,110.253 92.209,110.383 92.212,110.385L92.545,109.978C92.545,109.978 92.385,109.845 91.868,109.448C91.765,109.369 91.749,109.302 91.744,109.259C91.732,109.118 91.856,108.95 91.889,108.913L92.753,108.088C92.988,108.231 93.435,108.519 93.805,108.857C93.851,108.902 93.994,109.033 93.794,109.441C93.665,109.699 93.471,109.913 93.468,109.916L91.84,111.678C90.923,111.369 90.121,111.134 88.55,111.175C88.383,111.179 88.19,111.185 87.976,111.199C88.356,110.883 88.794,110.511 88.916,110.37ZM88.234,107.493C88.674,107.225 89.216,106.896 89.583,106.678C90.152,106.341 90.61,106.139 90.947,106.075C91.015,106.063 92.631,105.764 92.744,104.822C92.762,104.673 92.754,104.528 92.734,104.385L96.313,104.385C96.313,104.472 96.315,104.563 96.315,104.644C96.315,105.005 96.316,105.318 96.337,105.527C96.352,105.675 96.343,105.891 96.333,106.119C96.31,106.646 96.288,107.188 96.511,107.493L88.234,107.493ZM99.661,106.976C99.832,106.656 99.833,106.294 99.665,105.9C99.446,105.384 99.213,104.988 99.008,104.637C98.949,104.535 98.895,104.442 98.844,104.351L102.62,104.351L102.625,105.407L101.4,105.407L101.4,107.493L99.146,107.493C99.348,107.367 99.541,107.2 99.661,106.976ZM102.224,74.424C102.983,74.148 103.536,73.83 103.682,73.743C104.22,74.093 104.947,74.467 105.334,74.658C105.318,74.709 105.3,74.768 105.283,74.815C105.157,75.184 105.066,75.452 105.066,75.667C105.071,77.05 105.759,77.998 106.312,78.761C106.638,79.212 106.921,79.6 106.921,79.915C106.921,80.122 106.848,80.296 106.7,80.44C106.321,80.807 105.539,80.916 105.06,80.935L105.06,80.829C104.994,79.455 104.582,77.295 102.224,74.424ZM106.921,80.929L106.921,82.77L105.06,82.77L105.06,81.462C105.503,81.444 106.365,81.348 106.921,80.929ZM105.06,92.731C105.178,92.907 105.316,93.079 105.478,93.24C106.025,93.781 106.72,94.07 107.488,94.07L107.515,94.07C109.572,94.051 110.028,92.288 110.037,91.817C110.041,91.558 110.016,91.243 109.921,90.93C109.921,90.93 109.743,90.505 109.74,90.503C109.196,89.573 109.383,87.761 110.072,87.272C110.365,87.064 110.708,86.978 110.995,87.048C111.222,87.103 111.396,87.249 111.516,87.484C111.633,87.712 111.628,87.97 111.504,88.169C111.388,88.359 111.181,88.494 110.944,88.46L110.937,88.988L110.953,88.988C111.369,88.988 111.741,88.786 111.952,88.446C112.174,88.087 112.186,87.639 111.985,87.245C111.796,86.872 111.497,86.628 111.12,86.536C110.682,86.426 110.189,86.54 109.767,86.842C109.026,87.368 108.771,88.694 108.953,89.782C108.654,89.642 108.307,89.562 107.899,89.562C107.3,89.562 106.801,89.831 106.532,90.3C106.286,90.73 106.278,91.269 106.514,91.671C106.738,92.052 107.132,92.26 107.626,92.26L107.646,92.26L107.639,91.733C107.308,91.737 107.097,91.621 106.969,91.405C106.827,91.163 106.834,90.831 106.989,90.562C107.09,90.385 107.344,90.088 107.899,90.088C108.418,90.088 108.818,90.226 109.085,90.498C109.469,90.888 109.516,91.486 109.511,91.806C109.511,91.823 109.361,93.527 107.511,93.541C107.503,93.541 107.495,93.543 107.488,93.543C106.697,93.541 106.16,93.175 105.848,92.866C105.309,92.331 105.06,91.775 105.06,91.042L105.06,90.466L109.669,85.419L112.789,85.419L112.789,84.893L109.438,84.893L105.06,89.685L105.06,83.298L112.789,83.298L112.789,82.77L111.346,82.77L111.34,76.454L117.39,76.445C116.263,77.291 113.924,79.081 113.701,79.284C113.351,79.6 113.009,79.988 113.002,80.927C112.998,81.365 113.167,81.767 113.488,82.089C113.845,82.448 114.373,82.681 114.835,82.681C115.407,82.681 116.381,82.3 116.415,81.275C116.429,80.86 116.252,80.507 116.019,80.275C115.818,80.074 115.545,79.98 115.213,79.99C114.577,80.016 114.304,80.594 114.31,80.978L114.838,80.967C114.837,80.895 114.905,80.531 115.235,80.514C115.407,80.514 115.552,80.551 115.649,80.648C115.774,80.773 115.897,80.993 115.89,81.255C115.864,81.993 115.105,82.154 114.835,82.154C114.566,82.154 114.161,82.02 113.862,81.72C113.708,81.564 113.525,81.302 113.529,80.932C113.534,80.143 113.81,79.896 114.054,79.675C114.307,79.444 118.331,76.452 118.331,76.452L118.565,76.452C117.251,85.512 112.414,93.845 105.061,99.468L105.061,92.731L105.06,92.731ZM107.182,63.498C106.864,62.59 106.308,61.556 105.585,60.533C106.046,59.171 106.692,58.053 107.338,56.986C107.955,57.909 108.545,58.988 109.054,60.203C108.198,61.264 107.536,62.452 107.182,63.498ZM109.298,60.828C110.16,63.082 110.785,65.738 110.762,68.645L110.776,82.77L107.448,82.77L107.448,65.044C107.448,63.969 108.24,62.22 109.298,60.827L109.298,60.828ZM111.331,69.006L114.405,69.006L114.405,75.927L111.339,75.927L111.331,69.006ZM106.946,56.426C106.291,57.502 105.571,58.723 105.054,60.185L105.054,54.361C105.663,54.86 106.312,55.559 106.946,56.426ZM106.916,65.041L106.921,65.041L106.921,78.708C106.861,78.625 106.801,78.54 106.737,78.453C106.229,77.752 105.597,76.879 105.594,75.667C105.593,75.539 105.681,75.283 105.781,74.984C105.985,74.39 106.292,73.484 106.301,72.393C106.307,71.556 105.884,70.339 105.054,68.78L105.054,60.771C106.134,62.275 106.916,63.98 106.916,65.041ZM105.775,72.388C105.769,73.067 105.639,73.652 105.493,74.15C104.73,73.767 103.694,73.195 103.5,72.939C103.421,72.833 103.537,72.394 103.617,72.103C103.768,71.539 103.925,70.956 103.603,70.573C103.073,69.939 102.535,69.778 102.074,69.76C102.322,69.325 102.458,68.83 102.458,68.322C102.458,66.715 101.15,65.405 99.542,65.405C97.935,65.405 96.626,66.715 96.626,68.322C96.626,69.26 97.09,70.141 97.845,70.685C97.692,70.935 97.565,71.195 97.536,71.403C97.455,71.965 97.322,72.908 96.925,73.256C96.774,73.388 96.6,73.496 96.43,73.605C96.359,73.65 96.179,73.72 96.137,73.793C96.094,73.866 96.148,73.924 96.188,73.957C96.2,73.968 96.204,73.97 96.204,73.97C96.238,74 96.301,74.053 96.404,74.102C97.01,74.439 98.393,74.81 99.6,74.863C99.53,75.194 99.395,75.718 99.13,76.541C98.483,78.54 97.349,80.488 96.503,81.645C95.651,82.812 95.048,83.338 94.41,83.892L94.164,84.105C93.412,84.766 92.901,85.266 91.973,86.247C91.582,86.66 91.284,87.166 90.994,87.653C90.603,88.315 90.232,88.939 89.679,89.269C87.919,90.32 87.426,91.793 87.288,92.455C86.938,92.085 86.433,91.533 86.101,91.082C85.62,90.431 85.633,88.511 85.894,86.952C86.022,86.187 86.111,85.353 86.2,84.423C87.095,83.961 87.658,82.391 88.052,81.038C88.321,80.121 89.108,78.97 89.565,78.674C90.134,78.304 91.493,76.737 92.281,75.636C92.982,74.659 93.485,73.067 93.628,72.58C94.399,72.623 95.303,72.498 96.002,71.83C96.491,71.365 96.678,70.959 96.572,70.592C96.443,70.138 95.895,69.826 94.845,69.61C94.573,69.553 94.366,69.498 94.195,69.447C94.316,69.398 94.443,69.348 94.582,69.294C95.127,69.053 95.356,69.021 95.687,69.037L95.711,68.51C95.249,68.488 94.941,68.56 94.382,68.808C93.72,69.06 93.237,69.288 93.171,69.316C93.083,69.34 92.993,69.375 92.882,69.422C92.464,69.602 91.733,69.909 90.304,69.678C90.859,69.018 91.781,67.969 92.147,67.73C92.546,67.471 93.958,67.041 94.801,66.781C95.107,66.687 95.368,66.608 95.532,66.553C96.233,66.316 97.295,65.474 97.716,64.82C98.035,64.326 99.326,63.589 100.259,63.483C100.876,63.412 101.213,63.529 101.344,63.593C101.824,65.424 103.035,66.789 103.591,67.417C103.7,67.539 103.821,67.676 103.844,67.717L103.923,67.848C105.463,70.422 105.78,71.739 105.775,72.388ZM104.526,49.291L98.706,49.291L98.706,44.265C98.706,43.253 100.722,41.556 101.664,40.863C102.106,41.179 103.474,42.015 104.526,43.025L104.526,49.292ZM104.526,38.558L103.302,38.558L103.302,39.086L104.526,39.086L104.526,42.346C103.511,41.425 102.365,40.754 101.959,40.464L101.959,38.342L101.411,38.342L101.411,40.436C100.953,40.77 99.472,41.898 98.695,43.03L98.695,34.727L104.526,37.904L104.526,38.559ZM104.526,49.82L104.526,50.466C103.644,50.952 102.16,51.403 100.23,51.778C99.643,50.978 98.893,50.305 98.022,49.82L104.526,49.82ZM98.126,49.292L97.212,49.292L97.212,34.466L97.759,34.215L98.126,34.416L98.126,49.292L98.126,49.292ZM101.045,55.849C101.045,57.141 100.66,58.375 99.936,59.437C99.696,59.514 99.327,59.591 99.043,59.496C97.41,58.948 97.802,56.969 97.991,56.018L98.026,55.832C98.174,55.045 97.893,54.03 97.328,53.306C96.946,52.815 96.475,52.531 96,52.502C94.828,52.429 94.348,52.89 93.962,53.26L93.914,53.305C93.593,52.909 92.899,52.178 91.501,52.756C90.188,53.297 90.051,55.273 90.107,55.922C90.128,56.184 90.014,56.368 89.854,56.619C89.678,56.901 89.458,57.249 89.439,57.78C89.419,58.285 89.69,58.739 89.929,59.138C90.163,59.526 90.307,59.791 90.207,59.94C90.03,60.197 89.838,60.213 89.524,60.16C88.741,59.184 88.29,57.618 88.29,55.849C88.29,52.332 91.152,49.472 94.667,49.472C98.184,49.472 101.045,52.332 101.045,55.849ZM96.643,42.829C95.841,41.767 94.508,40.75 94.077,40.435L94.077,38.342L93.528,38.342L93.528,40.464C93.083,40.779 91.751,41.757 90.676,42.775L90.676,39.086L92.031,39.086L92.031,38.558L90.676,38.558L90.676,37.438L96.643,34.722L96.643,42.829ZM83.09,29.48L82.188,29.48L82.188,30.007L83.09,30.007L83.09,31.151L77.11,31.151C78.058,29.43 80.422,28.242 83.09,28.158L83.09,29.48ZM40.266,71.155C40.266,48.191 58.235,29.355 80.852,27.948C78.838,28.479 77.234,29.632 76.526,31.151L75.443,31.151L75.443,33.086L76.102,33.086L76.102,36.87L69.26,33.746L69.26,30.671L68.833,30.671L68.833,33.716L62.23,37.328L62.23,35.14L61.703,35.14L61.718,38.558L60.424,38.558L60.424,39.086L61.718,39.086L61.718,43.226C52.949,50.062 47.919,60.347 47.919,71.451C47.919,82.559 52.947,92.842 61.718,99.676L61.718,105.409L60.054,105.407L60.064,107.495C48.162,99.768 40.267,86.371 40.267,71.156L40.266,71.155ZM60.293,91.672C60.529,91.27 60.521,90.73 60.275,90.301C60.006,89.832 59.509,89.562 58.907,89.562C58.501,89.562 58.153,89.643 57.855,89.783C58.037,88.694 57.781,87.369 57.04,86.843C56.618,86.541 56.126,86.427 55.688,86.537C55.311,86.629 55.012,86.873 54.822,87.242C54.622,87.64 54.634,88.088 54.855,88.446C55.066,88.787 55.438,88.988 55.854,88.988L55.87,88.988L55.864,88.461C55.639,88.438 55.42,88.359 55.303,88.17C55.179,87.971 55.175,87.713 55.291,87.484C55.411,87.25 55.586,87.103 55.813,87.049C56.098,86.978 56.442,87.064 56.736,87.272C57.425,87.762 57.611,89.574 57.067,90.504C57.065,90.506 56.77,91.022 56.77,91.818C56.77,92.291 57.235,94.052 59.292,94.07L59.32,94.07C60.088,94.07 60.783,93.782 61.33,93.24C61.478,93.093 61.606,92.934 61.718,92.77L61.718,98.994C54.553,93.273 50.011,85.381 48.8,76.455L48.925,76.455C48.96,76.485 52.47,79.417 52.755,79.676C52.998,79.897 53.274,80.144 53.28,80.933C53.283,81.303 53.1,81.565 52.947,81.719C52.648,82.021 52.243,82.097 51.974,82.097C51.705,82.097 50.953,81.994 50.928,81.256C50.919,80.994 51.034,80.774 51.158,80.649C51.257,80.552 51.397,80.514 51.573,80.515C51.904,80.531 51.995,80.896 51.995,80.968L52.522,80.979C52.528,80.595 52.232,80.017 51.595,79.99C51.272,79.981 50.99,80.075 50.789,80.275C50.556,80.508 50.389,80.86 50.403,81.275C50.437,82.301 51.401,82.625 51.974,82.625C52.435,82.625 52.964,82.448 53.321,82.09C53.643,81.768 53.81,81.365 53.807,80.928C53.799,79.987 53.457,79.601 53.109,79.285C52.885,79.082 50.818,77.316 49.81,76.455L55.557,76.455L55.551,82.771L53.99,82.771L53.99,83.299L61.718,83.299L61.718,89.686L57.341,84.894L53.99,84.894L53.99,85.42L57.108,85.42L61.718,90.467L61.718,90.884C61.767,91.788 61.414,92.416 60.96,92.867C60.648,93.176 60.111,93.544 59.32,93.544C59.313,93.544 59.305,93.542 59.297,93.542C57.446,93.527 57.296,91.824 57.296,91.81C57.292,91.486 57.339,90.889 57.724,90.499C57.99,90.227 58.389,90.089 58.908,90.089C59.465,90.089 59.718,90.386 59.819,90.563C59.974,90.832 59.982,91.164 59.84,91.405C59.71,91.622 59.453,91.735 59.169,91.733L59.162,92.261C59.676,92.266 60.067,92.057 60.294,91.672L60.293,91.672ZM61.718,49.82L61.718,53.946C59.845,55.306 57.263,58.927 56.106,63.793L56.106,57.574C56.165,57.681 56.274,57.756 56.405,57.756C56.597,57.756 56.753,57.6 56.753,57.408C56.753,57.216 56.597,57.06 56.405,57.06C56.274,57.06 56.165,57.136 56.106,57.242L56.106,56.402C56.165,56.508 56.274,56.583 56.405,56.583C56.597,56.583 56.753,56.427 56.753,56.238C56.753,56.044 56.597,55.888 56.405,55.888C56.274,55.888 56.165,55.963 56.106,56.072L56.106,55.229C56.165,55.336 56.274,55.412 56.405,55.412C56.597,55.412 56.753,55.254 56.753,55.064C56.753,54.871 56.597,54.715 56.405,54.715C56.274,54.715 56.165,54.791 56.106,54.898L56.106,54.543L55.978,54.543C56.088,54.484 56.167,54.371 56.167,54.239C56.167,54.046 56.011,53.89 55.819,53.89C55.627,53.89 55.471,54.046 55.471,54.239C55.471,54.371 55.549,54.484 55.659,54.543L55.532,54.543L55.532,54.932C55.48,54.806 55.356,54.715 55.211,54.715C55.019,54.715 54.863,54.871 54.863,55.064C54.863,55.254 55.019,55.412 55.211,55.412C55.356,55.412 55.48,55.321 55.532,55.195L55.532,56.106C55.48,55.978 55.356,55.888 55.211,55.888C55.019,55.888 54.863,56.044 54.863,56.238C54.863,56.427 55.019,56.583 55.211,56.583C55.356,56.583 55.48,56.494 55.532,56.368L55.532,57.279C55.48,57.151 55.356,57.06 55.211,57.06C55.019,57.06 54.863,57.216 54.863,57.408C54.863,57.6 55.019,57.756 55.211,57.756C55.356,57.756 55.48,57.667 55.532,57.541C55.532,57.541 55.538,68.043 55.536,68.787L52.479,68.777L52.479,65.372C52.538,65.479 52.648,65.554 52.779,65.554C52.971,65.554 53.127,65.4 53.127,65.207C53.127,65.015 52.971,64.86 52.779,64.86C52.648,64.86 52.538,64.934 52.479,65.042L52.479,64.199C52.538,64.306 52.648,64.382 52.779,64.382C52.971,64.382 53.127,64.226 53.127,64.035C53.127,63.842 52.971,63.686 52.779,63.686C52.648,63.686 52.538,63.761 52.479,63.869L52.479,63.027C52.538,63.135 52.648,63.209 52.779,63.209C52.971,63.209 53.127,63.054 53.127,62.862C53.127,62.67 52.971,62.513 52.779,62.513C52.648,62.513 52.538,62.59 52.479,62.697L52.479,62.341L52.351,62.341C52.462,62.282 52.54,62.169 52.54,62.036C52.54,61.845 52.384,61.689 52.192,61.689C52,61.689 51.845,61.845 51.845,62.036C51.845,62.169 51.922,62.282 52.033,62.341L51.905,62.341L51.905,62.731C51.853,62.603 51.73,62.513 51.584,62.513C51.393,62.513 51.237,62.67 51.237,62.862C51.237,63.054 51.393,63.209 51.584,63.209C51.73,63.209 51.853,63.119 51.905,62.993L51.905,63.902C51.853,63.777 51.73,63.686 51.584,63.686C51.393,63.686 51.237,63.842 51.237,64.035C51.237,64.226 51.393,64.382 51.584,64.382C51.73,64.382 51.853,64.292 51.905,64.167L51.905,65.076C51.853,64.949 51.73,64.86 51.584,64.86C51.393,64.86 51.237,65.015 51.237,65.207C51.237,65.4 51.393,65.554 51.584,65.554C51.73,65.554 51.853,65.465 51.905,65.338L51.905,68.913L49.475,71.168L49.865,71.587L51.922,69.622L51.922,75.927L48.734,75.927C48.549,74.456 48.446,72.962 48.446,71.451C48.446,60.65 53.281,50.643 61.718,43.908L61.718,49.291L60.255,49.291L60.255,49.82L61.718,49.82L61.718,49.82ZM59.323,65.372L59.323,82.77L56.106,82.77L56.119,68.773C56.119,65.883 56.623,63.429 57.546,61.144C58.603,62.536 59.28,64.144 59.319,65.192C59.316,65.25 59.323,65.371 59.323,65.371L59.323,65.372ZM57.79,60.519C58.299,59.305 58.889,58.226 59.506,57.303C60.152,58.371 60.797,59.488 61.259,60.851C60.536,61.873 59.932,62.918 59.614,63.826C59.26,62.78 58.646,61.582 57.79,60.519ZM59.851,65.368C59.851,65.368 59.858,65.311 59.866,65.215C59.93,64.211 60.674,62.666 61.718,61.192L61.718,82.77L59.851,82.77L59.851,65.368L59.851,65.368ZM59.898,56.742C60.507,55.91 61.129,55.231 61.718,54.738L61.718,60.308C61.205,58.934 60.523,57.772 59.898,56.742ZM55.563,69.332L55.557,75.928L52.457,75.928L52.457,69.338L55.563,69.332ZM60.582,105.932L65.169,105.94L65.165,107.494L60.59,107.494L60.582,105.932ZM60.886,108.021L68.147,108.021C67.492,108.711 67.609,109.449 67.938,109.913C68.065,110.089 69.468,111.652 70.032,112.279C66.799,111.211 63.733,109.779 60.886,108.021ZM69.79,111.222C69.109,110.462 68.436,109.704 68.366,109.607C68.206,109.381 68.013,108.921 68.531,108.382C68.731,108.172 68.934,108.07 69.109,108.021L69.626,108.021L71.255,109.734C70.942,109.755 70.642,109.865 70.388,110.072C70.029,110.358 69.815,110.777 69.79,111.222ZM70.692,112.181C70.509,111.994 70.297,111.683 70.312,111.271C70.323,110.97 70.475,110.675 70.717,110.481C70.956,110.289 71.253,110.217 71.55,110.268C71.803,110.314 72.003,110.475 72.087,110.696C72.104,110.74 72.115,110.786 72.12,110.831C72.298,110.843 72.474,110.845 72.651,110.86C72.645,110.742 72.623,110.624 72.58,110.511C72.498,110.294 72.353,110.115 72.17,109.98L70.353,108.021L74.804,108.021L73.69,109.055L74.048,109.443L75.579,108.021L75.62,108.021L75.62,111.615C75.489,111.658 75.358,111.702 75.223,111.748L75.026,111.816C74.762,111.905 74.483,112.005 74.204,112.108C73.364,112.416 72.497,112.736 71.915,112.736C71.495,112.736 71.015,112.518 70.692,112.181ZM72.855,113.114C73.34,112.986 73.866,112.793 74.385,112.604C74.661,112.501 74.933,112.403 75.195,112.314L75.393,112.246C76.352,111.919 77.107,111.668 78.706,111.701C79.388,111.717 80.438,111.772 81.589,111.935C81.796,112.277 82.501,113.522 83.019,114.444C79.518,114.399 76.112,113.946 72.855,113.114ZM83.412,114.069C81.932,111.433 81.919,111.426 81.716,111.421C81.423,111.379 81.137,111.344 80.859,111.313L80.859,110.393L82.105,110.393L82.114,109.89L80.859,109.89L80.859,108.021L86.514,108.021C86.164,108.344 85.744,108.734 85.663,108.825C85.216,109.32 85.203,109.869 85.628,110.296C85.913,110.579 86.347,111.003 86.658,111.304C86.235,111.351 85.774,111.412 85.276,111.494C85.113,111.494 85.101,111.498 83.412,114.069ZM83.792,114.451C84.404,113.522 85.203,112.314 85.421,112C86.059,111.762 87.927,111.675 88.264,111.667C89.866,111.633 90.917,111.918 91.877,112.246L92.076,112.314C92.336,112.403 92.608,112.501 92.883,112.603C93.381,112.785 93.886,112.969 94.354,113.097C90.974,113.966 87.435,114.433 83.792,114.451ZM96.578,112.181C96.255,112.518 95.774,112.736 95.355,112.736C94.773,112.736 93.905,112.416 93.065,112.108C92.833,112.023 92.607,111.942 92.385,111.866L93.854,110.273C93.915,110.207 94.448,109.615 94.423,109.037C94.414,108.817 94.323,108.619 94.16,108.472C93.979,108.305 93.786,108.153 93.602,108.021L96.942,108.021L95.101,109.982C94.918,110.115 94.772,110.294 94.69,110.511C94.648,110.623 94.626,110.739 94.62,110.853C94.797,110.836 94.971,110.839 95.148,110.846C95.153,110.796 95.164,110.746 95.183,110.696C95.266,110.475 95.468,110.316 95.72,110.268C96.024,110.217 96.316,110.29 96.553,110.481C96.795,110.675 96.947,110.97 96.958,111.271C96.972,111.683 96.761,111.995 96.578,112.181ZM96.882,110.071C96.627,109.865 96.328,109.754 96.014,109.734L97.641,108.021L98.164,108.021C98.34,108.071 98.538,108.173 98.738,108.382C99.257,108.921 99.065,109.381 98.903,109.607C98.832,109.706 98.159,110.463 97.479,111.222C97.455,110.777 97.24,110.358 96.882,110.071ZM97.297,112.213C97.895,111.549 99.209,110.085 99.331,109.913C99.661,109.449 99.779,108.71 99.121,108.021L106.25,108.021C103.46,109.744 100.458,111.154 97.297,112.213ZM106.506,107.494L101.928,107.494L101.928,105.94L106.506,105.94L106.506,107.494ZM107.029,107.521L107.033,105.415L105.06,105.411L105.06,100.13C114.074,93.402 119.453,82.69 119.453,71.45C119.453,60.21 114.072,49.493 105.053,42.766L105.053,39.085L106.397,39.085L106.397,38.557L105.053,38.557L105.053,35.139L104.508,35.139L104.508,37.303L97.946,33.717L97.946,30.671L97.518,30.671L97.518,33.744L90.676,36.858L90.676,33.086L91.3,33.086L91.3,31.15L90.252,31.15C89.527,29.595 87.867,28.423 85.787,27.909C108.637,29.066 126.869,48.021 126.869,71.154C126.869,86.388 118.954,99.8 107.028,107.52L107.029,107.521Z" style="fill:rgb(29,29,27);fill-rule:nonzero;stroke:rgb(29,29,27);stroke-width:0.18px;"/>
        </g>
    </g>
</svg>