<?xml version="1.0" encoding="UTF-8" standalone="no"?>
<!DOCTYPE svg PUBLIC "-//W3C//DTD SVG 1.1//EN" "http://www.w3.org/Graphics/SVG/1.1/DTD/svg11.dtd">
<svg width="100%" height="100%" viewBox="0 0 80 80" version="1.1" xmlns="http://www.w3.org/2000/svg" xmlns:xlink="http://www.w3.org/1999/xlink" xml:space="preserve" xmlns:serif="http://www.serif.com/" style="fill-rule:evenodd;clip-rule:evenodd;stroke-linejoin:round;stroke-miterlimit:2;">
    <g id="Artboard1" transform="matrix(0.0416667,0,0,0.0666667,0,0)">
        <rect x="0" y="0" width="1920" height="1200" style="fill:none;"/>
        <g transform="matrix(16.0678,0,0,10.0424,-470.034,-193.347)">
            <g transform="matrix(3.27313,0,0,3.27313,-166.362,-164.898)">
                <circle cx="78.018" cy="74.515" r="18.026" style="fill:white;"/>
                <path d="M78.134,56.49L78.251,56.491L78.367,56.493L78.483,56.496L78.598,56.499L78.714,56.503L78.83,56.508L78.945,56.513L79.06,56.519L79.175,56.526L79.289,56.534L79.404,56.542L79.518,56.551L79.632,56.561L79.746,56.572L79.86,56.583L79.973,56.595L80.086,56.607L80.199,56.621L80.312,56.635L80.425,56.649L80.537,56.665L80.649,56.681L80.761,56.698L80.873,56.715L80.985,56.733L81.096,56.752L81.207,56.772L81.318,56.792L81.428,56.813L81.539,56.834L81.649,56.856L81.758,56.879L81.868,56.903L81.977,56.927L82.087,56.952L82.195,56.977L82.304,57.003L82.412,57.03L82.52,57.058L82.628,57.086L82.736,57.115L82.843,57.144L82.95,57.174L83.057,57.205L83.163,57.236L83.27,57.268L83.376,57.301L83.481,57.334L83.587,57.368L83.692,57.402L83.797,57.438L83.901,57.473L84.005,57.51L84.109,57.547L84.213,57.584L84.316,57.623L84.419,57.661L84.522,57.701L84.625,57.741L84.727,57.782L84.829,57.823L84.93,57.865L85.031,57.907L85.132,57.95L85.233,57.994L85.333,58.038L85.433,58.083L85.533,58.129L85.632,58.175L85.731,58.221L85.83,58.268L85.928,58.316L86.026,58.365L86.124,58.414L86.221,58.463L86.318,58.513L86.415,58.564L86.511,58.615L86.607,58.667L86.702,58.719L86.798,58.772L86.893,58.825L86.987,58.879L87.081,58.934L87.175,58.989L87.269,59.045L87.362,59.101L87.454,59.158L87.547,59.215L87.639,59.273L87.73,59.331L87.822,59.39L87.913,59.45L88.003,59.51L88.093,59.57L88.183,59.631L88.272,59.693L88.361,59.755L88.45,59.817L88.538,59.88L88.626,59.944L88.713,60.008L88.8,60.073L88.886,60.138L88.973,60.204L89.058,60.27L89.144,60.336L89.229,60.404L89.313,60.471L89.397,60.539L89.481,60.608L89.564,60.677L89.647,60.747L89.729,60.817L89.811,60.888L89.893,60.959L89.974,61.03L90.055,61.102L90.135,61.175L90.215,61.248L90.294,61.321L90.373,61.395L90.452,61.47L90.53,61.545L90.607,61.62L90.685,61.696L90.761,61.772L90.838,61.849L90.913,61.926L90.989,62.003L91.063,62.081L91.138,62.16L91.212,62.239L91.285,62.318L91.358,62.398L91.431,62.478L91.503,62.559L91.574,62.64L91.646,62.722L91.716,62.804L91.786,62.886L91.856,62.969L91.925,63.052L91.994,63.136L92.062,63.22L92.13,63.305L92.197,63.389L92.263,63.475L92.33,63.561L92.395,63.647L92.46,63.733L92.525,63.82L92.589,63.908L92.653,63.995L92.716,64.084L92.778,64.172L92.841,64.261L92.902,64.35L92.963,64.44L93.024,64.53L93.084,64.621L93.143,64.712L93.202,64.803L93.26,64.894L93.318,64.986L93.375,65.079L93.432,65.171L93.488,65.265L93.544,65.358L93.599,65.452L93.654,65.546L93.708,65.641L93.761,65.735L93.814,65.831L93.866,65.926L93.918,66.022L93.969,66.119L94.02,66.215L94.07,66.312L94.12,66.409L94.169,66.507L94.217,66.605L94.265,66.703L94.312,66.802L94.358,66.901L94.405,67L94.45,67.1L94.495,67.2L94.539,67.3L94.583,67.401L94.626,67.502L94.668,67.603L94.71,67.705L94.752,67.806L94.792,67.909L94.832,68.011L94.872,68.114L94.911,68.217L94.949,68.32L94.986,68.424L95.023,68.528L95.06,68.632L95.096,68.737L95.131,68.841L95.165,68.947L95.199,69.052L95.232,69.158L95.265,69.264L95.297,69.37L95.328,69.476L95.359,69.583L95.389,69.69L95.419,69.797L95.447,69.905L95.475,70.013L95.503,70.121L95.53,70.229L95.556,70.338L95.581,70.447L95.606,70.556L95.63,70.665L95.654,70.775L95.677,70.885L95.699,70.995L95.721,71.105L95.741,71.216L95.762,71.326L95.781,71.437L95.8,71.549L95.818,71.66L95.835,71.772L95.852,71.884L95.868,71.996L95.884,72.108L95.898,72.221L95.912,72.334L95.926,72.447L95.938,72.56L95.95,72.673L95.961,72.787L95.972,72.901L95.982,73.015L95.991,73.129L95.999,73.244L96.007,73.358L96.014,73.473L96.02,73.588L96.025,73.704L96.03,73.819L96.034,73.935L96.037,74.05L96.04,74.166L96.042,74.283L96.043,74.399L96.043,74.515L96.043,74.632L96.042,74.748L96.04,74.864L96.037,74.98L96.034,75.096L96.03,75.212L96.025,75.327L96.02,75.442L96.014,75.557L96.007,75.672L95.999,75.787L95.991,75.901L95.982,76.016L95.972,76.13L95.961,76.244L95.95,76.357L95.938,76.471L95.926,76.584L95.912,76.697L95.898,76.81L95.884,76.922L95.868,77.035L95.852,77.147L95.835,77.259L95.818,77.371L95.8,77.482L95.781,77.593L95.762,77.704L95.741,77.815L95.721,77.926L95.699,78.036L95.677,78.146L95.654,78.256L95.63,78.366L95.606,78.475L95.581,78.584L95.556,78.693L95.53,78.802L95.503,78.91L95.475,79.018L95.447,79.126L95.419,79.233L95.389,79.341L95.359,79.448L95.328,79.555L95.297,79.661L95.265,79.767L95.232,79.873L95.199,79.979L95.165,80.084L95.131,80.189L95.096,80.294L95.06,80.399L95.023,80.503L94.986,80.607L94.949,80.711L94.911,80.814L94.872,80.917L94.832,81.02L94.792,81.122L94.752,81.224L94.71,81.326L94.668,81.428L94.626,81.529L94.583,81.63L94.539,81.73L94.495,81.831L94.45,81.931L94.405,82.03L94.358,82.13L94.312,82.229L94.265,82.327L94.217,82.426L94.169,82.524L94.12,82.621L94.07,82.719L94.02,82.816L93.969,82.912L93.918,83.009L93.866,83.105L93.814,83.2L93.761,83.295L93.708,83.39L93.654,83.485L93.599,83.579L93.544,83.673L93.488,83.766L93.432,83.859L93.375,83.952L93.318,84.044L93.26,84.136L93.202,84.228L93.143,84.319L93.084,84.41L93.024,84.501L92.963,84.591L92.902,84.68L92.841,84.77L92.778,84.859L92.716,84.947L92.653,85.035L92.589,85.123L92.525,85.211L92.46,85.298L92.395,85.384L92.33,85.47L92.263,85.556L92.197,85.641L92.13,85.726L92.062,85.811L91.994,85.895L91.925,85.979L91.856,86.062L91.786,86.145L91.716,86.227L91.646,86.309L91.574,86.391L91.503,86.472L91.431,86.552L91.358,86.633L91.285,86.713L91.212,86.792L91.138,86.871L91.063,86.949L90.989,87.027L90.913,87.105L90.838,87.182L90.761,87.259L90.685,87.335L90.607,87.411L90.53,87.486L90.452,87.561L90.373,87.636L90.294,87.709L90.215,87.783L90.135,87.856L90.055,87.928L89.974,88L89.893,88.072L89.811,88.143L89.729,88.214L89.647,88.284L89.564,88.354L89.481,88.423L89.397,88.491L89.313,88.559L89.229,88.627L89.144,88.694L89.058,88.761L88.973,88.827L88.886,88.893L88.8,88.958L88.713,89.023L88.626,89.087L88.538,89.15L88.45,89.213L88.361,89.276L88.272,89.338L88.183,89.4L88.093,89.461L88.003,89.521L87.913,89.581L87.822,89.641L87.73,89.7L87.639,89.758L87.547,89.816L87.454,89.873L87.362,89.93L87.269,89.986L87.175,90.042L87.081,90.097L86.987,90.151L86.893,90.205L86.798,90.259L86.702,90.312L86.607,90.364L86.511,90.416L86.415,90.467L86.318,90.518L86.221,90.568L86.124,90.617L86.026,90.666L85.928,90.715L85.83,90.762L85.731,90.81L85.632,90.856L85.533,90.902L85.433,90.948L85.333,90.992L85.233,91.037L85.132,91.08L85.031,91.123L84.93,91.166L84.829,91.208L84.727,91.249L84.625,91.29L84.522,91.33L84.419,91.369L84.316,91.408L84.213,91.446L84.109,91.484L84.005,91.521L83.901,91.557L83.797,91.593L83.692,91.628L83.587,91.663L83.481,91.697L83.376,91.73L83.27,91.763L83.163,91.795L83.057,91.826L82.95,91.857L82.843,91.887L82.736,91.916L82.628,91.945L82.52,91.973L82.412,92.001L82.304,92.027L82.195,92.054L82.087,92.079L81.977,92.104L81.868,92.128L81.758,92.152L81.649,92.174L81.539,92.197L81.428,92.218L81.318,92.239L81.207,92.259L81.096,92.279L80.985,92.298L80.873,92.316L80.761,92.333L80.649,92.35L80.537,92.366L80.425,92.381L80.312,92.396L80.199,92.41L80.086,92.423L79.973,92.436L79.86,92.448L79.746,92.459L79.632,92.47L79.518,92.479L79.404,92.488L79.289,92.497L79.175,92.504L79.06,92.511L78.945,92.517L78.83,92.523L78.714,92.528L78.598,92.532L78.483,92.535L78.367,92.538L78.251,92.539L78.134,92.541L78.018,92.541L77.901,92.541L77.785,92.539L77.669,92.538L77.553,92.535L77.437,92.532L77.321,92.528L77.206,92.523L77.091,92.517L76.976,92.511L76.861,92.504L76.746,92.497L76.632,92.488L76.517,92.479L76.403,92.47L76.29,92.459L76.176,92.448L76.062,92.436L75.949,92.423L75.836,92.41L75.723,92.396L75.611,92.381L75.498,92.366L75.386,92.35L75.274,92.333L75.162,92.316L75.051,92.298L74.94,92.279L74.829,92.259L74.718,92.239L74.607,92.218L74.497,92.197L74.387,92.174L74.277,92.152L74.167,92.128L74.058,92.104L73.949,92.079L73.84,92.054L73.732,92.027L73.623,92.001L73.515,91.973L73.407,91.945L73.3,91.916L73.192,91.887L73.085,91.857L72.979,91.826L72.872,91.795L72.766,91.763L72.66,91.73L72.554,91.697L72.449,91.663L72.344,91.628L72.239,91.593L72.134,91.557L72.03,91.521L71.926,91.484L71.823,91.446L71.719,91.408L71.616,91.369L71.513,91.33L71.411,91.29L71.309,91.249L71.207,91.208L71.105,91.166L71.004,91.123L70.903,91.08L70.803,91.037L70.702,90.992L70.602,90.948L70.503,90.902L70.403,90.856L70.304,90.81L70.206,90.762L70.107,90.715L70.01,90.666L69.912,90.617L69.815,90.568L69.718,90.518L69.621,90.467L69.525,90.416L69.429,90.364L69.333,90.312L69.238,90.259L69.143,90.205L69.048,90.151L68.954,90.097L68.86,90.042L68.767,89.986L68.674,89.93L68.581,89.873L68.489,89.816L68.397,89.758L68.305,89.7L68.214,89.641L68.123,89.581L68.033,89.521L67.942,89.461L67.853,89.4L67.763,89.338L67.674,89.276L67.586,89.213L67.498,89.15L67.41,89.087L67.323,89.023L67.236,88.958L67.149,88.893L67.063,88.827L66.977,88.761L66.892,88.694L66.807,88.627L66.722,88.559L66.638,88.491L66.555,88.423L66.471,88.354L66.388,88.284L66.306,88.214L66.224,88.143L66.143,88.072L66.061,88L65.981,87.928L65.9,87.856L65.821,87.783L65.741,87.709L65.662,87.636L65.584,87.561L65.506,87.486L65.428,87.411L65.351,87.335L65.274,87.259L65.198,87.182L65.122,87.105L65.047,87.027L64.972,86.949L64.898,86.871L64.824,86.792L64.75,86.713L64.677,86.633L64.605,86.552L64.533,86.472L64.461,86.391L64.39,86.309L64.319,86.227L64.249,86.145L64.18,86.062L64.11,85.979L64.042,85.895L63.974,85.811L63.906,85.726L63.839,85.641L63.772,85.556L63.706,85.47L63.64,85.384L63.575,85.298L63.511,85.211L63.446,85.123L63.383,85.035L63.32,84.947L63.257,84.859L63.195,84.77L63.133,84.68L63.072,84.591L63.012,84.501L62.952,84.41L62.893,84.319L62.834,84.228L62.775,84.136L62.717,84.044L62.66,83.952L62.603,83.859L62.547,83.766L62.491,83.673L62.436,83.579L62.382,83.485L62.328,83.39L62.274,83.295L62.221,83.2L62.169,83.105L62.117,83.009L62.066,82.912L62.015,82.816L61.965,82.719L61.916,82.621L61.867,82.524L61.819,82.426L61.771,82.327L61.724,82.229L61.677,82.13L61.631,82.03L61.586,81.931L61.541,81.831L61.496,81.73L61.453,81.63L61.41,81.529L61.367,81.428L61.325,81.326L61.284,81.224L61.243,81.122L61.203,81.02L61.164,80.917L61.125,80.814L61.087,80.711L61.049,80.607L61.012,80.503L60.976,80.399L60.94,80.294L60.905,80.189L60.87,80.084L60.836,79.979L60.803,79.873L60.771,79.767L60.739,79.661L60.707,79.555L60.676,79.448L60.646,79.341L60.617,79.233L60.588,79.126L60.56,79.018L60.533,78.91L60.506,78.802L60.48,78.693L60.454,78.584L60.429,78.475L60.405,78.366L60.382,78.256L60.359,78.146L60.336,78.036L60.315,77.926L60.294,77.815L60.274,77.704L60.254,77.593L60.236,77.482L60.217,77.371L60.2,77.259L60.183,77.147L60.167,77.035L60.152,76.922L60.137,76.81L60.123,76.697L60.11,76.584L60.097,76.471L60.085,76.357L60.074,76.244L60.064,76.13L60.054,76.016L60.045,75.901L60.036,75.787L60.029,75.672L60.022,75.557L60.016,75.442L60.01,75.327L60.005,75.212L60.001,75.096L59.998,74.98L59.995,74.864L59.994,74.748L59.993,74.632L59.992,74.515L59.993,74.399L59.994,74.283L59.995,74.166L59.998,74.05L60.001,73.935L60.005,73.819L60.01,73.704L60.016,73.588L60.022,73.473L60.029,73.358L60.036,73.244L60.045,73.129L60.054,73.015L60.064,72.901L60.074,72.787L60.085,72.673L60.097,72.56L60.11,72.447L60.123,72.334L60.137,72.221L60.152,72.108L60.167,71.996L60.183,71.884L60.2,71.772L60.217,71.66L60.236,71.549L60.254,71.437L60.274,71.326L60.294,71.216L60.315,71.105L60.336,70.995L60.359,70.885L60.382,70.775L60.405,70.665L60.429,70.556L60.454,70.447L60.48,70.338L60.506,70.229L60.533,70.121L60.56,70.013L60.588,69.905L60.617,69.797L60.646,69.69L60.676,69.583L60.707,69.476L60.739,69.37L60.771,69.264L60.803,69.158L60.836,69.052L60.87,68.947L60.905,68.841L60.94,68.737L60.976,68.632L61.012,68.528L61.049,68.424L61.087,68.32L61.125,68.217L61.164,68.114L61.203,68.011L61.243,67.909L61.284,67.806L61.325,67.705L61.367,67.603L61.41,67.502L61.453,67.401L61.496,67.3L61.541,67.2L61.586,67.1L61.631,67L61.677,66.901L61.724,66.802L61.771,66.703L61.819,66.605L61.867,66.507L61.916,66.409L61.965,66.312L62.015,66.215L62.066,66.119L62.117,66.022L62.169,65.926L62.221,65.831L62.274,65.735L62.328,65.641L62.382,65.546L62.436,65.452L62.491,65.358L62.547,65.265L62.603,65.171L62.66,65.079L62.717,64.986L62.775,64.894L62.834,64.803L62.893,64.712L62.952,64.621L63.012,64.53L63.072,64.44L63.133,64.35L63.195,64.261L63.257,64.172L63.32,64.084L63.383,63.995L63.446,63.908L63.511,63.82L63.575,63.733L63.64,63.647L63.706,63.561L63.772,63.475L63.839,63.389L63.906,63.305L63.974,63.22L64.042,63.136L64.11,63.052L64.18,62.969L64.249,62.886L64.319,62.804L64.39,62.722L64.461,62.64L64.533,62.559L64.605,62.478L64.677,62.398L64.75,62.318L64.824,62.239L64.898,62.16L64.972,62.081L65.047,62.003L65.122,61.926L65.198,61.849L65.274,61.772L65.351,61.696L65.428,61.62L65.506,61.545L65.584,61.47L65.662,61.395L65.741,61.321L65.821,61.248L65.9,61.175L65.981,61.102L66.061,61.03L66.143,60.959L66.224,60.888L66.306,60.817L66.388,60.747L66.471,60.677L66.555,60.608L66.638,60.539L66.722,60.471L66.807,60.404L66.892,60.336L66.977,60.27L67.063,60.204L67.149,60.138L67.236,60.073L67.323,60.008L67.41,59.944L67.498,59.88L67.586,59.817L67.674,59.755L67.763,59.693L67.853,59.631L67.942,59.57L68.033,59.51L68.123,59.45L68.214,59.39L68.305,59.331L68.397,59.273L68.489,59.215L68.581,59.158L68.674,59.101L68.767,59.045L68.86,58.989L68.954,58.934L69.048,58.879L69.143,58.825L69.238,58.772L69.333,58.719L69.429,58.667L69.525,58.615L69.621,58.564L69.718,58.513L69.815,58.463L69.912,58.414L70.01,58.365L70.107,58.316L70.206,58.268L70.304,58.221L70.403,58.175L70.503,58.129L70.602,58.083L70.702,58.038L70.803,57.994L70.903,57.95L71.004,57.907L71.105,57.865L71.207,57.823L71.309,57.782L71.411,57.741L71.513,57.701L71.616,57.661L71.719,57.623L71.823,57.584L71.926,57.547L72.03,57.51L72.134,57.473L72.239,57.438L72.344,57.402L72.449,57.368L72.554,57.334L72.66,57.301L72.766,57.268L72.872,57.236L72.979,57.205L73.085,57.174L73.192,57.144L73.3,57.115L73.407,57.086L73.515,57.058L73.623,57.03L73.732,57.003L73.84,56.977L73.949,56.952L74.058,56.927L74.167,56.903L74.277,56.879L74.387,56.856L74.497,56.834L74.607,56.813L74.718,56.792L74.829,56.772L74.94,56.752L75.051,56.733L75.162,56.715L75.274,56.698L75.386,56.681L75.498,56.665L75.611,56.649L75.723,56.635L75.836,56.621L75.949,56.607L76.062,56.595L76.176,56.583L76.29,56.572L76.403,56.561L76.517,56.551L76.632,56.542L76.746,56.534L76.861,56.526L76.976,56.519L77.091,56.513L77.206,56.508L77.321,56.503L77.437,56.499L77.553,56.496L77.669,56.493L77.785,56.491L77.901,56.49L78.018,56.49L78.134,56.49ZM77.919,59.228L77.82,59.229L77.721,59.231L77.622,59.233L77.524,59.236L77.426,59.239L77.327,59.243L77.23,59.248L77.132,59.253L77.034,59.259L76.937,59.265L76.84,59.273L76.743,59.28L76.646,59.289L76.549,59.297L76.453,59.307L76.357,59.317L76.261,59.328L76.165,59.339L76.069,59.351L75.973,59.363L75.878,59.376L75.783,59.39L75.688,59.404L75.594,59.419L75.499,59.434L75.405,59.45L75.311,59.467L75.217,59.484L75.123,59.502L75.03,59.52L74.936,59.539L74.843,59.558L74.75,59.578L74.658,59.598L74.565,59.62L74.473,59.641L74.381,59.663L74.29,59.686L74.198,59.709L74.107,59.733L74.016,59.757L73.925,59.782L73.834,59.808L73.744,59.834L73.654,59.86L73.564,59.887L73.474,59.915L73.384,59.943L73.295,59.972L73.206,60.001L73.117,60.031L73.029,60.061L72.941,60.092L72.853,60.123L72.765,60.155L72.677,60.188L72.59,60.221L72.503,60.254L72.416,60.288L72.33,60.322L72.243,60.357L72.157,60.393L72.071,60.429L71.986,60.465L71.901,60.502L71.816,60.54L71.731,60.578L71.647,60.616L71.562,60.655L71.479,60.695L71.395,60.735L71.312,60.775L71.229,60.816L71.146,60.858L71.063,60.9L70.981,60.942L70.899,60.985L70.818,61.029L70.736,61.072L70.655,61.117L70.574,61.162L70.494,61.207L70.414,61.253L70.334,61.299L70.254,61.346L70.175,61.393L70.096,61.441L70.017,61.489L69.939,61.537L69.861,61.586L69.783,61.636L69.706,61.686L69.629,61.736L69.552,61.787L69.476,61.839L69.399,61.89L69.324,61.943L69.248,61.995L69.173,62.048L69.098,62.102L69.024,62.156L68.95,62.21L68.876,62.265L68.802,62.321L68.729,62.376L68.656,62.433L68.584,62.489L68.512,62.546L68.44,62.604L68.369,62.661L68.298,62.72L68.227,62.778L68.157,62.838L68.087,62.897L68.017,62.957L67.948,63.017L67.879,63.078L67.81,63.139L67.742,63.201L67.674,63.263L67.607,63.325L67.54,63.388L67.473,63.451L67.407,63.515L67.341,63.579L67.275,63.643L67.21,63.708L67.146,63.773L67.081,63.839L67.017,63.905L66.954,63.971L66.891,64.038L66.828,64.105L66.765,64.172L66.703,64.24L66.642,64.308L66.581,64.376L66.52,64.445L66.459,64.515L66.4,64.584L66.34,64.654L66.281,64.725L66.222,64.795L66.164,64.866L66.106,64.938L66.049,65.009L65.992,65.082L65.935,65.154L65.879,65.227L65.823,65.3L65.768,65.373L65.713,65.447L65.658,65.521L65.604,65.596L65.551,65.671L65.498,65.746L65.445,65.821L65.393,65.897L65.341,65.973L65.29,66.05L65.239,66.126L65.188,66.204L65.138,66.281L65.089,66.359L65.04,66.437L64.991,66.515L64.943,66.594L64.895,66.673L64.848,66.752L64.801,66.832L64.755,66.911L64.709,66.992L64.664,67.072L64.619,67.153L64.575,67.234L64.531,67.315L64.487,67.397L64.445,67.479L64.402,67.561L64.36,67.643L64.319,67.726L64.278,67.809L64.237,67.893L64.197,67.976L64.158,68.06L64.119,68.144L64.08,68.229L64.042,68.313L64.005,68.398L63.968,68.484L63.931,68.569L63.895,68.655L63.86,68.741L63.825,68.827L63.79,68.914L63.756,69L63.723,69.088L63.69,69.175L63.658,69.262L63.626,69.35L63.594,69.438L63.564,69.526L63.533,69.615L63.504,69.704L63.474,69.793L63.446,69.882L63.417,69.971L63.39,70.061L63.363,70.151L63.336,70.241L63.31,70.332L63.285,70.422L63.26,70.513L63.235,70.604L63.212,70.696L63.188,70.787L63.166,70.879L63.143,70.971L63.122,71.063L63.101,71.156L63.08,71.248L63.06,71.341L63.041,71.434L63.022,71.527L63.004,71.621L62.986,71.714L62.969,71.808L62.953,71.902L62.937,71.997L62.921,72.091L62.907,72.186L62.892,72.281L62.879,72.376L62.866,72.471L62.853,72.567L62.841,72.662L62.83,72.758L62.819,72.854L62.809,72.95L62.8,73.047L62.791,73.144L62.783,73.24L62.775,73.337L62.768,73.435L62.761,73.532L62.755,73.629L62.75,73.727L62.746,73.825L62.742,73.923L62.738,74.021L62.735,74.12L62.733,74.219L62.732,74.317L62.731,74.416L62.73,74.515L62.731,74.615L62.732,74.713L62.733,74.812L62.735,74.911L62.738,75.009L62.742,75.108L62.746,75.206L62.75,75.304L62.755,75.401L62.761,75.499L62.768,75.596L62.775,75.693L62.783,75.79L62.791,75.887L62.8,75.984L62.809,76.08L62.819,76.177L62.83,76.273L62.841,76.368L62.853,76.464L62.866,76.56L62.879,76.655L62.892,76.75L62.907,76.845L62.921,76.94L62.937,77.034L62.953,77.128L62.969,77.222L62.986,77.316L63.004,77.41L63.022,77.504L63.041,77.597L63.06,77.69L63.08,77.783L63.101,77.875L63.122,77.968L63.143,78.06L63.166,78.152L63.188,78.244L63.212,78.335L63.235,78.426L63.26,78.518L63.285,78.608L63.31,78.699L63.336,78.789L63.363,78.88L63.39,78.97L63.417,79.059L63.446,79.149L63.474,79.238L63.504,79.327L63.533,79.416L63.564,79.504L63.594,79.593L63.626,79.681L63.658,79.768L63.69,79.856L63.723,79.943L63.756,80.03L63.79,80.117L63.825,80.204L63.86,80.29L63.895,80.376L63.931,80.462L63.968,80.547L64.005,80.632L64.042,80.717L64.08,80.802L64.119,80.887L64.158,80.971L64.197,81.055L64.237,81.138L64.278,81.222L64.319,81.305L64.36,81.387L64.402,81.47L64.445,81.552L64.487,81.634L64.531,81.716L64.575,81.797L64.619,81.878L64.664,81.959L64.709,82.039L64.755,82.119L64.801,82.199L64.848,82.279L64.895,82.358L64.943,82.437L64.991,82.516L65.04,82.594L65.089,82.672L65.138,82.75L65.188,82.827L65.239,82.904L65.29,82.981L65.341,83.058L65.393,83.134L65.445,83.21L65.498,83.285L65.551,83.36L65.604,83.435L65.658,83.509L65.713,83.584L65.768,83.657L65.823,83.731L65.879,83.804L65.935,83.877L65.992,83.949L66.049,84.021L66.106,84.093L66.164,84.165L66.222,84.236L66.281,84.306L66.34,84.377L66.4,84.447L66.459,84.516L66.52,84.585L66.581,84.654L66.642,84.723L66.703,84.791L66.765,84.859L66.828,84.926L66.891,84.993L66.954,85.06L67.017,85.126L67.081,85.192L67.146,85.258L67.21,85.323L67.275,85.388L67.341,85.452L67.407,85.516L67.473,85.579L67.54,85.643L67.607,85.705L67.674,85.768L67.742,85.83L67.81,85.891L67.879,85.953L67.948,86.013L68.017,86.074L68.087,86.134L68.157,86.193L68.227,86.252L68.298,86.311L68.369,86.369L68.44,86.427L68.512,86.485L68.584,86.542L68.656,86.598L68.729,86.654L68.802,86.71L68.876,86.765L68.95,86.82L69.024,86.875L69.098,86.929L69.173,86.982L69.248,87.035L69.324,87.088L69.399,87.14L69.476,87.192L69.552,87.243L69.629,87.294L69.706,87.345L69.783,87.395L69.861,87.444L69.939,87.493L70.017,87.542L70.096,87.59L70.175,87.638L70.254,87.685L70.334,87.732L70.414,87.778L70.494,87.824L70.574,87.869L70.655,87.914L70.736,87.958L70.818,88.002L70.899,88.046L70.981,88.089L71.063,88.131L71.146,88.173L71.229,88.214L71.312,88.255L71.395,88.296L71.479,88.336L71.562,88.375L71.647,88.414L71.731,88.453L71.816,88.491L71.901,88.529L71.986,88.565L72.071,88.602L72.157,88.638L72.243,88.673L72.33,88.708L72.416,88.743L72.503,88.777L72.59,88.81L72.677,88.843L72.765,88.876L72.852,88.907L72.941,88.939L73.029,88.97L73.117,89L73.206,89.03L73.295,89.059L73.384,89.088L73.474,89.116L73.564,89.143L73.653,89.17L73.744,89.197L73.834,89.223L73.925,89.248L74.016,89.273L74.107,89.298L74.198,89.322L74.29,89.345L74.381,89.367L74.473,89.39L74.565,89.411L74.658,89.432L74.75,89.453L74.843,89.473L74.936,89.492L75.03,89.511L75.123,89.529L75.217,89.547L75.311,89.564L75.405,89.58L75.499,89.596L75.594,89.612L75.688,89.627L75.783,89.641L75.878,89.654L75.974,89.667L76.069,89.68L76.165,89.692L76.261,89.703L76.357,89.714L76.453,89.724L76.549,89.733L76.646,89.742L76.743,89.751L76.84,89.758L76.937,89.765L77.034,89.772L77.132,89.778L77.23,89.783L77.327,89.788L77.426,89.792L77.524,89.795L77.622,89.798L77.721,89.8L77.82,89.802L77.919,89.803L78.018,89.803L78.117,89.803L78.216,89.802L78.315,89.8L78.413,89.798L78.512,89.795L78.61,89.792L78.708,89.788L78.806,89.783L78.904,89.778L79.001,89.772L79.099,89.765L79.196,89.758L79.293,89.751L79.39,89.742L79.486,89.733L79.583,89.724L79.679,89.714L79.775,89.703L79.871,89.692L79.967,89.68L80.062,89.667L80.157,89.654L80.252,89.641L80.347,89.627L80.442,89.612L80.536,89.596L80.631,89.58L80.725,89.564L80.819,89.547L80.912,89.529L81.006,89.511L81.099,89.492L81.192,89.473L81.285,89.453L81.378,89.432L81.47,89.411L81.562,89.39L81.654,89.367L81.746,89.345L81.837,89.322L81.929,89.298L82.02,89.273L82.111,89.248L82.201,89.223L82.292,89.197L82.382,89.17L82.472,89.143L82.562,89.116L82.651,89.088L82.74,89.059L82.829,89.03L82.918,89L83.007,88.97L83.095,88.939L83.183,88.907L83.271,88.876L83.358,88.843L83.446,88.81L83.533,88.777L83.619,88.743L83.706,88.708L83.792,88.673L83.878,88.638L83.964,88.602L84.05,88.565L84.135,88.529L84.22,88.491L84.304,88.453L84.389,88.414L84.473,88.375L84.557,88.336L84.641,88.296L84.724,88.255L84.807,88.214L84.89,88.173L84.972,88.131L85.054,88.089L85.136,88.046L85.218,88.002L85.299,87.958L85.38,87.914L85.461,87.869L85.542,87.824L85.622,87.778L85.702,87.732L85.781,87.685L85.86,87.638L85.939,87.59L86.018,87.542L86.096,87.493L86.174,87.444L86.252,87.395L86.33,87.345L86.407,87.294L86.483,87.243L86.56,87.192L86.636,87.14L86.712,87.088L86.787,87.035L86.863,86.982L86.937,86.929L87.012,86.875L87.086,86.82L87.16,86.765L87.233,86.71L87.306,86.654L87.379,86.598L87.452,86.542L87.524,86.485L87.595,86.427L87.667,86.369L87.738,86.311L87.809,86.252L87.879,86.193L87.949,86.134L88.019,86.074L88.088,86.013L88.157,85.953L88.225,85.891L88.293,85.83L88.361,85.768L88.429,85.705L88.496,85.643L88.562,85.579L88.629,85.516L88.694,85.452L88.76,85.388L88.825,85.323L88.89,85.258L88.954,85.192L89.018,85.126L89.082,85.06L89.145,84.993L89.208,84.926L89.27,84.859L89.332,84.791L89.394,84.723L89.455,84.654L89.516,84.585L89.576,84.516L89.636,84.447L89.696,84.377L89.755,84.306L89.813,84.236L89.872,84.165L89.93,84.093L89.987,84.021L90.044,83.949L90.101,83.877L90.157,83.804L90.213,83.731L90.268,83.657L90.323,83.584L90.377,83.509L90.431,83.435L90.485,83.36L90.538,83.285L90.59,83.21L90.643,83.134L90.695,83.058L90.746,82.981L90.797,82.904L90.847,82.827L90.897,82.75L90.947,82.672L90.996,82.594L91.044,82.516L91.092,82.437L91.14,82.358L91.187,82.279L91.234,82.199L91.28,82.119L91.326,82.039L91.371,81.959L91.416,81.878L91.461,81.797L91.505,81.716L91.548,81.634L91.591,81.552L91.633,81.47L91.675,81.387L91.717,81.305L91.758,81.221L91.798,81.138L91.838,81.055L91.878,80.971L91.917,80.887L91.955,80.802L91.993,80.717L92.031,80.632L92.068,80.547L92.104,80.462L92.14,80.376L92.176,80.29L92.211,80.204L92.245,80.117L92.279,80.03L92.313,79.943L92.346,79.856L92.378,79.768L92.41,79.681L92.441,79.593L92.472,79.504L92.502,79.416L92.532,79.327L92.561,79.238L92.59,79.149L92.618,79.059L92.646,78.97L92.673,78.88L92.699,78.789L92.725,78.699L92.751,78.608L92.776,78.518L92.8,78.426L92.824,78.335L92.847,78.244L92.87,78.152L92.892,78.06L92.914,77.968L92.935,77.875L92.955,77.783L92.975,77.69L92.994,77.597L93.013,77.503L93.032,77.41L93.049,77.316L93.066,77.223L93.083,77.128L93.099,77.034L93.114,76.94L93.129,76.845L93.143,76.75L93.157,76.655L93.17,76.56L93.182,76.464L93.194,76.369L93.205,76.273L93.216,76.177L93.226,76.08L93.236,75.984L93.245,75.887L93.253,75.79L93.261,75.693L93.268,75.596L93.274,75.499L93.28,75.401L93.285,75.304L93.29,75.206L93.294,75.108L93.297,75.009L93.3,74.911L93.302,74.812L93.304,74.714L93.305,74.615L93.305,74.515L93.305,74.416L93.304,74.317L93.302,74.218L93.3,74.12L93.297,74.021L93.294,73.923L93.29,73.825L93.285,73.727L93.28,73.629L93.274,73.532L93.268,73.435L93.261,73.337L93.253,73.24L93.245,73.144L93.236,73.047L93.226,72.95L93.216,72.854L93.205,72.758L93.194,72.662L93.182,72.567L93.17,72.471L93.157,72.376L93.143,72.281L93.129,72.186L93.114,72.091L93.099,71.997L93.083,71.902L93.066,71.808L93.049,71.714L93.032,71.621L93.013,71.527L92.994,71.434L92.975,71.341L92.955,71.248L92.935,71.155L92.914,71.063L92.892,70.971L92.87,70.879L92.847,70.787L92.824,70.696L92.8,70.604L92.776,70.513L92.751,70.422L92.725,70.332L92.699,70.241L92.673,70.151L92.646,70.061L92.618,69.972L92.59,69.882L92.561,69.793L92.532,69.704L92.502,69.615L92.472,69.526L92.441,69.438L92.41,69.35L92.378,69.262L92.346,69.175L92.313,69.087L92.279,69L92.245,68.914L92.211,68.827L92.176,68.741L92.14,68.655L92.104,68.569L92.068,68.484L92.031,68.398L91.993,68.313L91.955,68.229L91.917,68.144L91.878,68.06L91.838,67.976L91.798,67.893L91.758,67.809L91.717,67.726L91.675,67.643L91.633,67.561L91.591,67.479L91.548,67.397L91.505,67.315L91.461,67.234L91.416,67.153L91.371,67.072L91.326,66.992L91.28,66.911L91.234,66.831L91.187,66.752L91.14,66.673L91.092,66.594L91.044,66.515L90.996,66.437L90.947,66.359L90.897,66.281L90.847,66.204L90.797,66.126L90.746,66.05L90.695,65.973L90.643,65.897L90.591,65.821L90.538,65.746L90.485,65.671L90.431,65.596L90.377,65.521L90.323,65.447L90.268,65.373L90.213,65.3L90.157,65.227L90.101,65.154L90.044,65.082L89.987,65.009L89.93,64.938L89.872,64.866L89.813,64.795L89.755,64.725L89.696,64.654L89.636,64.584L89.576,64.515L89.516,64.445L89.455,64.376L89.394,64.308L89.332,64.24L89.27,64.172L89.208,64.105L89.145,64.038L89.082,63.971L89.018,63.905L88.954,63.839L88.89,63.773L88.825,63.708L88.76,63.643L88.694,63.579L88.629,63.515L88.562,63.451L88.496,63.388L88.429,63.325L88.361,63.263L88.293,63.201L88.225,63.139L88.157,63.078L88.088,63.017L88.019,62.957L87.949,62.897L87.879,62.838L87.809,62.779L87.738,62.72L87.667,62.661L87.595,62.604L87.524,62.546L87.452,62.489L87.379,62.433L87.306,62.376L87.233,62.321L87.16,62.265L87.086,62.21L87.012,62.156L86.937,62.102L86.862,62.048L86.787,61.995L86.712,61.943L86.636,61.89L86.56,61.839L86.483,61.787L86.407,61.736L86.33,61.686L86.252,61.636L86.174,61.586L86.096,61.537L86.018,61.489L85.939,61.441L85.86,61.393L85.781,61.346L85.702,61.299L85.622,61.253L85.542,61.207L85.461,61.162L85.38,61.117L85.299,61.072L85.218,61.029L85.136,60.985L85.054,60.942L84.972,60.9L84.89,60.858L84.807,60.816L84.724,60.775L84.641,60.735L84.557,60.695L84.473,60.655L84.389,60.616L84.304,60.578L84.22,60.54L84.135,60.502L84.05,60.465L83.964,60.429L83.878,60.393L83.792,60.357L83.706,60.322L83.619,60.288L83.533,60.254L83.446,60.221L83.358,60.188L83.271,60.155L83.183,60.123L83.095,60.092L83.007,60.061L82.918,60.031L82.829,60.001L82.74,59.972L82.651,59.943L82.562,59.915L82.472,59.887L82.382,59.86L82.292,59.834L82.201,59.808L82.111,59.782L82.02,59.757L81.929,59.733L81.838,59.709L81.746,59.686L81.654,59.663L81.562,59.641L81.47,59.62L81.378,59.598L81.285,59.578L81.192,59.558L81.099,59.539L81.006,59.52L80.912,59.502L80.819,59.484L80.725,59.467L80.631,59.45L80.536,59.434L80.442,59.419L80.347,59.404L80.252,59.39L80.157,59.376L80.062,59.363L79.967,59.351L79.871,59.339L79.775,59.328L79.679,59.317L79.583,59.307L79.486,59.297L79.39,59.289L79.293,59.28L79.196,59.273L79.099,59.265L79.001,59.259L78.904,59.253L78.806,59.248L78.708,59.243L78.61,59.239L78.512,59.236L78.413,59.233L78.315,59.231L78.216,59.229L78.117,59.228L78.018,59.228L77.919,59.228Z" style="fill:rgb(233,234,240);"/>
            </g>
            <g id="logo-geometry" transform="matrix(1,0,0,1,38.9922,29)">
                <path id="top-filler" d="M50.009,40.002L50.016,0L94.016,59.982L50.016,99.986L50.016,100L50.008,99.993L50,100L50,99.986L6,59.982L50,0L50.006,40.003L50.008,40L50.009,40.002Z" style="fill:rgb(155,162,199);"/>
                <g id="right-top-leaf" transform="matrix(-1,0,0,1,100.016,0)">
                    <path d="M50,0L50.016,100L6,59.982L50,0Z" style="fill:rgb(130,139,185);"/>
                </g>
                <path id="left-top-leaf" d="M50,0L50.016,100L6,59.982L50,0Z" style="fill:rgb(155,162,199);"/>
                <g id="mid-leaf" transform="matrix(0.484096,0,0,1,25.8033,0)">
                    <path d="M50,40L19.03,59.982L50,79.96L81.001,59.982L50,40Z" style="fill:rgb(180,185,213);"/>
                </g>
                <path id="bottom-filler" d="M50,100L94,60.007L82,20.014L50,79.96L18,20.014L6,59.982L50,100Z" style="fill:rgb(50,56,66);"/>
                <g id="right-mid-leaf" transform="matrix(-1,0,0,1,100,0)">
                    <path d="M6,59.982L18,20.014L50,79.96L6,59.982Z" style="fill:rgb(63,70,84);"/>
                </g>
                <path id="left-mid-leaf" d="M6,59.982L18,20.014L50,79.96L6,59.982Z" style="fill:rgb(63,70,84);"/>
                <path id="bottom-leaf" d="M94,59.982L50,100L6,60L50.001,80L94,59.982Z" style="fill:rgb(50,56,66);"/>
            </g>
        </g>
    </g>
</svg>