<?xml version="1.0" encoding="UTF-8" standalone="no"?>
<!DOCTYPE svg PUBLIC "-//W3C//DTD SVG 1.1//EN" "http://www.w3.org/Graphics/SVG/1.1/DTD/svg11.dtd">
<svg width="100%" height="100%" viewBox="0 0 115 100" version="1.1" xmlns="http://www.w3.org/2000/svg" xmlns:xlink="http://www.w3.org/1999/xlink" xml:space="preserve" xmlns:serif="http://www.serif.com/" style="fill-rule:evenodd;clip-rule:evenodd;stroke-linejoin:round;stroke-miterlimit:2;">
    <g transform="matrix(1,0,0,1,-682,0)">
        <g id="EU" transform="matrix(0.0598958,0,0,0.0833333,682,0)">
            <rect x="0" y="0" width="1920" height="1200" style="fill:none;"/>
            <clipPath id="_clip1">
                <rect x="0" y="0" width="1920" height="1200"/>
            </clipPath>
            <g clip-path="url(#_clip1)">
                <g transform="matrix(15.5826,0,0,11.2,-607.005,-112)">
                    <rect x="38.954" y="10" width="122.092" height="82.5" style="fill:rgb(0,51,153);"/>
                    <path d="M97.398,27.976L99.974,26.07L102.551,27.976L101.57,24.895L104.187,22.988L100.961,22.988L99.974,19.87L98.988,22.992L95.764,22.988L98.379,24.895L97.398,27.976Z" style="fill:rgb(255,204,0);fill-rule:nonzero;"/>
                    <path d="M84.066,31.606L86.642,29.702L89.217,31.606L88.238,28.525L90.854,26.621L87.628,26.621L86.641,23.497L85.653,26.622L82.431,26.621L85.045,28.525L84.066,31.606Z" style="fill:rgb(255,204,0);fill-rule:nonzero;"/>
                    <path d="M76.888,33.405L75.901,36.531L72.676,36.528L75.291,38.435L74.311,41.517L76.888,39.61L79.465,41.517L78.484,38.435L81.099,36.528L77.874,36.528L76.888,33.405Z" style="fill:rgb(255,204,0);fill-rule:nonzero;"/>
                    <path d="M73.308,53.107L75.884,55.011L74.905,51.931L77.52,50.025L74.295,50.025L73.308,46.902L72.322,50.031L69.097,50.025L71.713,51.931L70.732,55.011L73.308,53.107Z" style="fill:rgb(255,204,0);fill-rule:nonzero;"/>
                    <path d="M77.875,63.562L76.888,60.439L75.9,63.565L72.676,63.562L75.291,65.469L74.312,68.548L76.888,66.641L79.465,68.548L78.484,65.469L81.099,63.562L77.875,63.562Z" style="fill:rgb(255,204,0);fill-rule:nonzero;"/>
                    <path d="M87.648,73.469L86.661,70.35L85.676,73.471L82.451,73.469L85.066,75.373L84.086,78.455L86.663,76.55L89.236,78.455L88.258,75.373L90.875,73.469L87.648,73.469Z" style="fill:rgb(255,204,0);fill-rule:nonzero;"/>
                    <path d="M100.964,77.058L99.977,73.936L98.992,77.063L95.765,77.058L98.38,78.963L97.402,82.044L99.978,80.139L102.554,82.044L101.571,78.963L104.188,77.058L100.964,77.058Z" style="fill:rgb(255,204,0);fill-rule:nonzero;"/>
                    <path d="M114.278,73.469L113.294,70.35L112.305,73.471L109.081,73.469L111.695,75.373L110.717,78.455L113.294,76.55L115.868,78.455L114.886,75.373L117.504,73.469L114.278,73.469Z" style="fill:rgb(255,204,0);fill-rule:nonzero;"/>
                    <path d="M124.056,63.562L123.066,60.439L122.078,63.565L118.856,63.562L121.472,65.469L120.491,68.548L123.066,66.641L125.642,68.548L124.661,65.469L127.276,63.562L124.056,63.562Z" style="fill:rgb(255,204,0);fill-rule:nonzero;"/>
                    <path d="M130.819,49.988L127.593,49.988L126.604,46.865L125.62,49.99L122.395,49.988L125.011,51.892L124.031,54.974L126.604,53.066L129.181,54.974L128.202,51.892L130.819,49.988Z" style="fill:rgb(255,204,0);fill-rule:nonzero;"/>
                    <path d="M120.491,41.475L123.066,39.57L125.644,41.475L124.661,38.395L127.277,36.492L124.056,36.492L123.066,33.368L122.078,36.495L118.856,36.492L121.473,38.395L120.491,41.475Z" style="fill:rgb(255,204,0);fill-rule:nonzero;"/>
                    <path d="M113.329,23.5L112.345,26.625L109.12,26.621L111.732,28.528L110.755,31.608L113.333,29.701L115.906,31.608L114.927,28.528L117.544,26.621L114.315,26.621L113.329,23.5Z" style="fill:rgb(255,204,0);fill-rule:nonzero;"/>
                    <path d="M38.961,111.754L38.961,100.061L47.415,100.061L47.415,101.44L40.509,101.44L40.509,105.021L46.977,105.021L46.977,106.395L40.509,106.395L40.509,110.374L47.688,110.374L47.688,111.754L38.961,111.754Z" style="fill:rgb(0,51,153);fill-rule:nonzero;"/>
                    <path d="M55.683,111.754L55.683,110.51C55.024,111.466 54.128,111.944 52.995,111.944C52.494,111.944 52.028,111.849 51.596,111.657C51.162,111.467 50.841,111.225 50.631,110.936C50.421,110.647 50.273,110.291 50.188,109.872C50.129,109.591 50.101,109.143 50.101,108.532L50.101,103.284L51.537,103.284L51.537,107.981C51.537,108.731 51.565,109.237 51.624,109.497C51.714,109.874 51.906,110.171 52.199,110.386C52.491,110.603 52.852,110.708 53.283,110.708C53.713,110.708 54.117,110.599 54.495,110.378C54.872,110.158 55.14,109.858 55.296,109.478C55.453,109.097 55.531,108.546 55.531,107.823L55.531,103.285L56.967,103.285L56.967,111.756L55.683,111.756L55.683,111.754Z" style="fill:rgb(0,51,153);fill-rule:nonzero;"/>
                    <path d="M59.689,111.754L59.689,103.283L60.981,103.283L60.981,104.566C61.311,103.964 61.614,103.57 61.894,103.378C62.174,103.187 62.48,103.091 62.816,103.091C63.298,103.091 63.791,103.245 64.292,103.553L63.797,104.885C63.445,104.677 63.095,104.573 62.743,104.573C62.43,104.573 62.148,104.669 61.898,104.857C61.648,105.045 61.471,105.309 61.363,105.643C61.204,106.153 61.124,106.71 61.124,107.317L61.124,111.753L59.689,111.753L59.689,111.754Z" style="fill:rgb(0,51,153);fill-rule:nonzero;"/>
                    <path d="M65.1,107.519C65.1,105.951 65.537,104.789 66.409,104.034C67.138,103.407 68.025,103.093 69.072,103.093C70.238,103.093 71.189,103.474 71.927,104.238C72.665,105.002 73.037,106.054 73.037,107.4C73.037,108.49 72.873,109.347 72.546,109.973C72.219,110.597 71.744,111.082 71.119,111.428C70.493,111.774 69.812,111.947 69.072,111.947C67.887,111.947 66.928,111.567 66.197,110.806C65.465,110.043 65.1,108.948 65.1,107.519M66.576,107.519C66.576,108.603 66.813,109.416 67.287,109.955C67.76,110.495 68.355,110.765 69.072,110.765C69.785,110.765 70.378,110.494 70.851,109.952C71.325,109.409 71.561,108.582 71.561,107.47C71.561,106.423 71.323,105.631 70.846,105.091C70.371,104.55 69.78,104.28 69.072,104.28C68.355,104.28 67.759,104.549 67.287,105.086C66.813,105.623 66.576,106.434 66.576,107.519" style="fill:rgb(0,51,153);fill-rule:nonzero;"/>
                    <path d="M75.208,115L75.208,103.283L76.517,103.283L76.517,104.383C76.825,103.953 77.174,103.629 77.561,103.414C77.949,103.199 78.42,103.092 78.973,103.092C79.697,103.092 80.334,103.279 80.888,103.651C81.441,104.022 81.859,104.547 82.14,105.225C82.422,105.904 82.563,106.646 82.563,107.455C82.563,108.321 82.408,109.101 82.096,109.795C81.785,110.49 81.333,111.02 80.74,111.391C80.147,111.76 79.524,111.946 78.87,111.946C78.391,111.946 77.961,111.843 77.581,111.643C77.201,111.44 76.888,111.184 76.643,110.877L76.643,115L75.208,115ZM76.509,107.566C76.509,108.656 76.73,109.462 77.171,109.982C77.613,110.503 78.146,110.763 78.773,110.763C79.412,110.763 79.959,110.493 80.413,109.953C80.868,109.415 81.095,108.577 81.095,107.445C81.095,106.366 80.873,105.557 80.429,105.02C79.984,104.485 79.455,104.214 78.837,104.214C78.227,104.214 77.686,104.5 77.214,105.072C76.745,105.645 76.509,106.476 76.509,107.566" style="fill:rgb(0,51,153);fill-rule:nonzero;"/>
                    <path d="M90.582,109.025L92.066,109.208C91.832,110.077 91.399,110.748 90.766,111.227C90.134,111.705 89.326,111.944 88.341,111.944C87.103,111.944 86.12,111.563 85.394,110.801C84.668,110.037 84.306,108.968 84.306,107.59C84.306,106.164 84.672,105.06 85.406,104.272C86.14,103.485 87.092,103.092 88.261,103.092C89.394,103.092 90.319,103.478 91.037,104.249C91.755,105.02 92.114,106.103 92.114,107.502C92.114,107.588 92.111,107.716 92.105,107.885L85.789,107.885C85.842,108.817 86.104,109.53 86.579,110.024C87.053,110.518 87.642,110.766 88.349,110.766C88.876,110.766 89.326,110.626 89.697,110.348C90.069,110.072 90.364,109.632 90.582,109.025M85.869,106.705L90.599,106.705C90.535,105.992 90.353,105.458 90.057,105.101C89.599,104.548 89.006,104.271 88.278,104.271C87.619,104.271 87.064,104.492 86.615,104.933C86.166,105.375 85.917,105.965 85.869,106.705" style="fill:rgb(0,51,153);fill-rule:nonzero;"/>
                    <path d="M99.885,110.709C99.354,111.162 98.842,111.479 98.351,111.665C97.859,111.852 97.331,111.945 96.767,111.945C95.837,111.945 95.121,111.716 94.622,111.262C94.122,110.806 93.872,110.228 93.872,109.519C93.872,109.105 93.967,108.726 94.155,108.382C94.344,108.04 94.592,107.765 94.897,107.557C95.202,107.35 95.547,107.193 95.93,107.087C96.213,107.012 96.638,106.941 97.206,106.872C98.365,106.733 99.219,106.568 99.766,106.376C99.771,106.181 99.775,106.054 99.775,106.002C99.775,105.417 99.638,105.005 99.367,104.767C99,104.441 98.455,104.279 97.732,104.279C97.057,104.279 96.558,104.398 96.237,104.634C95.916,104.87 95.677,105.29 95.523,105.89L94.12,105.699C94.248,105.097 94.457,104.613 94.75,104.244C95.042,103.874 95.464,103.59 96.018,103.39C96.571,103.191 97.212,103.091 97.941,103.091C98.664,103.091 99.251,103.177 99.703,103.347C100.155,103.517 100.487,103.73 100.7,103.99C100.913,104.247 101.062,104.572 101.147,104.967C101.196,105.211 101.219,105.652 101.219,106.289L101.219,108.203C101.219,109.538 101.248,110.383 101.31,110.736C101.372,111.089 101.493,111.428 101.673,111.754L100.173,111.754C100.022,111.456 99.928,111.106 99.885,110.709M99.765,107.502C99.244,107.715 98.463,107.897 97.42,108.045C96.83,108.129 96.412,108.226 96.168,108.331C95.924,108.437 95.735,108.594 95.602,108.799C95.469,109.003 95.402,109.231 95.402,109.481C95.402,109.864 95.547,110.182 95.838,110.438C96.127,110.693 96.551,110.821 97.109,110.821C97.662,110.821 98.155,110.7 98.585,110.457C99.016,110.217 99.331,109.885 99.535,109.464C99.689,109.142 99.765,108.661 99.765,108.03L99.765,107.502Z" style="fill:rgb(0,51,153);fill-rule:nonzero;"/>
                    <path d="M103.933,111.754L103.933,103.283L105.226,103.283L105.226,104.487C105.847,103.557 106.746,103.091 107.92,103.091C108.431,103.091 108.901,103.183 109.329,103.366C109.757,103.549 110.077,103.79 110.29,104.087C110.502,104.386 110.65,104.739 110.735,105.149C110.79,105.414 110.815,105.88 110.815,106.545L110.815,111.754L109.379,111.754L109.379,106.602C109.379,106.016 109.324,105.579 109.211,105.289C109.1,105.001 108.901,104.768 108.618,104.596C108.332,104.423 108,104.337 107.617,104.337C107.006,104.337 106.476,104.53 106.033,104.917C105.59,105.306 105.367,106.044 105.367,107.128L105.367,111.755L103.933,111.755L103.933,111.754Z" style="fill:rgb(0,51,153);fill-rule:nonzero;"/>
                    <path d="M126.392,100.061L127.939,100.061L127.939,106.817C127.939,107.993 127.806,108.925 127.542,109.615C127.276,110.307 126.795,110.87 126.103,111.303C125.409,111.737 124.499,111.953 123.371,111.953C122.274,111.953 121.38,111.765 120.683,111.387C119.986,111.008 119.49,110.462 119.193,109.748C118.894,109.033 118.746,108.055 118.746,106.816L118.746,100.06L120.293,100.06L120.293,106.807C120.293,107.824 120.387,108.572 120.576,109.052C120.764,109.534 121.09,109.904 121.549,110.164C122.01,110.426 122.572,110.556 123.237,110.556C124.375,110.556 125.184,110.298 125.669,109.783C126.153,109.265 126.396,108.275 126.396,106.807L126.396,100.061L126.392,100.061Z" style="fill:rgb(0,51,153);fill-rule:nonzero;"/>
                    <path d="M130.821,111.754L130.821,103.283L132.114,103.283L132.114,104.487C132.735,103.557 133.634,103.091 134.809,103.091C135.319,103.091 135.788,103.183 136.217,103.366C136.645,103.55 136.965,103.79 137.178,104.087C137.389,104.386 137.539,104.739 137.625,105.149C137.677,105.414 137.704,105.88 137.704,106.545L137.704,111.754L136.267,111.754L136.267,106.602C136.267,106.016 136.212,105.579 136.099,105.289C135.989,105.001 135.79,104.768 135.506,104.596C135.222,104.424 134.888,104.337 134.504,104.337C133.894,104.337 133.364,104.53 132.921,104.917C132.478,105.306 132.255,106.044 132.255,107.128L132.255,111.755L130.821,111.755L130.821,111.754Z" style="fill:rgb(0,51,153);fill-rule:nonzero;"/>
                    <path d="M140.403,100.059L141.839,100.059L141.839,101.711L140.403,101.711L140.403,100.059ZM140.403,103.283L141.839,103.283L141.839,111.754L140.403,111.754L140.403,103.283Z" style="fill:rgb(0,51,153);fill-rule:nonzero;"/>
                    <path d="M143.981,107.519C143.981,105.951 144.418,104.789 145.289,104.034C146.018,103.407 146.905,103.093 147.952,103.093C149.117,103.093 150.069,103.474 150.809,104.238C151.547,105.002 151.918,106.054 151.918,107.4C151.918,108.49 151.754,109.347 151.426,109.973C151.099,110.597 150.623,111.082 149.998,111.428C149.373,111.774 148.691,111.947 147.951,111.947C146.766,111.947 145.807,111.567 145.076,110.806C144.347,110.043 143.981,108.948 143.981,107.519M145.456,107.519C145.456,108.603 145.692,109.416 146.167,109.955C146.64,110.495 147.235,110.765 147.952,110.765C148.666,110.765 149.259,110.494 149.731,109.952C150.206,109.409 150.442,108.582 150.442,107.47C150.442,106.423 150.204,105.631 149.727,105.091C149.25,104.55 148.661,104.28 147.952,104.28C147.235,104.28 146.639,104.549 146.167,105.086C145.692,105.623 145.456,106.434 145.456,107.519" style="fill:rgb(0,51,153);fill-rule:nonzero;"/>
                    <path d="M154.091,111.754L154.091,103.283L155.383,103.283L155.383,104.487C156.005,103.557 156.903,103.091 158.077,103.091C158.588,103.091 159.057,103.183 159.485,103.366C159.914,103.55 160.235,103.79 160.447,104.087C160.659,104.386 160.808,104.739 160.893,105.149C160.946,105.414 160.973,105.88 160.973,106.545L160.973,111.754L159.536,111.754L159.536,106.602C159.536,106.016 159.48,105.579 159.369,105.289C159.258,105.001 159.058,104.768 158.775,104.596C158.49,104.423 158.156,104.337 157.773,104.337C157.163,104.337 156.634,104.53 156.191,104.917C155.746,105.306 155.525,106.044 155.525,107.128L155.525,111.755L154.091,111.755L154.091,111.754Z" style="fill:rgb(0,51,153);fill-rule:nonzero;"/>
                </g>
            </g>
        </g>
    </g>
</svg>